<svg xmlns="http://www.w3.org/2000/svg" viewBox="0 0 104 104"><defs><style>.cls-1{fill:#527fa4;}.cls-2{fill:#fff;}</style></defs><title>instagram</title><g id="Layer_2" data-name="Layer 2"><g id="Layer_1-2" data-name="Layer 1"><rect class="cls-1" width="104" height="104"/><path class="cls-2" d="M53.07,36.5A15.5,15.5,0,1,0,68.57,52,15.49,15.49,0,0,0,53.07,36.5Zm0,25.55A10.06,10.06,0,1,1,63.14,52,10.05,10.05,0,0,1,53.07,62.05Z"/><path class="cls-2" d="M69.18,32.27a3.63,3.63,0,1,0,3.62,3.62A3.63,3.63,0,0,0,69.18,32.27Z"/><path class="cls-2" d="M83.07,39.55a22.09,22.09,0,0,0-1.41-7.32,15.44,15.44,0,0,0-8.82-8.82A22.09,22.09,0,0,0,65.52,22c-3.21-.14-4.25-.17-12.45-.17s-9.22,0-12.43.17a22.17,22.17,0,0,0-7.34,1.41A14.69,14.69,0,0,0,28,26.89a14.88,14.88,0,0,0-3.48,5.34,22.35,22.35,0,0,0-1.41,7.32c-.14,3.23-.17,4.25-.17,12.45s0,9.22.17,12.43a22.43,22.43,0,0,0,1.41,7.34A15.05,15.05,0,0,0,28,77.11a15.23,15.23,0,0,0,5.34,3.48A22.17,22.17,0,0,0,40.64,82c3.21.14,4.24.17,12.43.17s9.24,0,12.45-.17a22.09,22.09,0,0,0,7.32-1.41,14.88,14.88,0,0,0,5.34-3.48,14.53,14.53,0,0,0,3.48-5.34,22.17,22.17,0,0,0,1.41-7.34c.16-3.21.17-4.24.17-12.43S83.23,42.78,83.07,39.55ZM77.63,64.18a16.6,16.6,0,0,1-1,5.62,9.55,9.55,0,0,1-2.25,3.46,9.13,9.13,0,0,1-3.48,2.25,16.2,16.2,0,0,1-5.6,1c-3.18.14-4.14.18-12.2.18s-9,0-12.18-.18a16.46,16.46,0,0,1-5.62-1,9.06,9.06,0,0,1-3.46-2.25,9.3,9.3,0,0,1-2.25-3.46,17,17,0,0,1-1-5.62c-.14-3.18-.18-4.12-.18-12.18s0-9,.18-12.2a16.81,16.81,0,0,1,1-5.59,9.33,9.33,0,0,1,2.25-3.49,9.55,9.55,0,0,1,3.46-2.25,16.6,16.6,0,0,1,5.62-1c3.18-.14,4.13-.18,12.18-.18s9,0,12.2.18a16.33,16.33,0,0,1,5.6,1,9.85,9.85,0,0,1,5.73,5.74,16.43,16.43,0,0,1,1,5.59c.16,3.18.18,4.14.18,12.2S77.79,61,77.63,64.18Z"/></g></g></svg>