<svg xmlns="http://www.w3.org/2000/svg" viewBox="0 0 104 104"><defs><style>.cls-1{fill:#39c6f4;}.cls-2{fill:#fff;}</style></defs><title>twitter</title><g id="Layer_2" data-name="Layer 2"><g id="Layer_1-2" data-name="Layer 1"><rect class="cls-1" width="104" height="104"/><path class="cls-2" d="M75,40.2c.75,16.68-11.7,35.29-33.72,35.29A33.61,33.61,0,0,1,23.1,70.15a23.78,23.78,0,0,0,17.56-4.9A11.89,11.89,0,0,1,29.57,57a11.89,11.89,0,0,0,5.36-.2A11.84,11.84,0,0,1,25.43,45a11.93,11.93,0,0,0,5.37,1.49,11.87,11.87,0,0,1-3.68-15.84A33.64,33.64,0,0,0,51.56,43.07,11.88,11.88,0,0,1,71.78,32.25a23.23,23.23,0,0,0,7.53-2.89,11.81,11.81,0,0,1-5.22,6.57,23.83,23.83,0,0,0,6.81-1.86A23.93,23.93,0,0,1,75,40.2Z"/></g></g></svg>