<svg xmlns="http://www.w3.org/2000/svg" viewBox="0 0 104 104"><defs><style>.cls-1{fill:#fdc010;}.cls-2{fill:#fff;}</style></defs><title>untappd</title><g id="Layer_2" data-name="Layer 2"><g id="Layer_1-2" data-name="Layer 1"><rect class="cls-1" width="104" height="104"/><path class="cls-2" d="M49.4,55.37,34.23,76.55a3.62,3.62,0,0,1-3.4,1.5,12.25,12.25,0,0,1-5.71-2.3,12.45,12.45,0,0,1-4-4.69,3.69,3.69,0,0,1,.31-3.71L36.59,46.17a8.26,8.26,0,0,1,2.77-2.42l3-1.58a5.79,5.79,0,0,0,1.58-1.24c1.46-1.64,5.33-6,12.24-12.91l.13-.55a.35.35,0,0,1,.25-.25l.39-.09a.34.34,0,0,0,.25-.37l0-.47a.33.33,0,0,1,.33-.36,4.39,4.39,0,0,1,2.6,1,4.41,4.41,0,0,1,1.8,2.14.35.35,0,0,1-.25.44l-.46.11a.37.37,0,0,0-.27.36l0,.4a.37.37,0,0,1-.17.33l-.49.29c-4.36,8.76-7.2,13.84-8.29,15.75a5.31,5.31,0,0,0-.67,1.91L50.78,52A8,8,0,0,1,49.4,55.37Zm33.17,12L67.4,46.15a8.22,8.22,0,0,0-2.76-2.42l-3-1.58a5.94,5.94,0,0,1-1.58-1.24L58.54,39.2a.22.22,0,0,0-.36.06c-2.29,4.42-3.86,7.16-4.55,8.4a4.17,4.17,0,0,0-.45,1.25,9.27,9.27,0,0,0,0,2.88l0,.16a8.07,8.07,0,0,0,1.4,3.4L69.76,76.54A3.62,3.62,0,0,0,73.13,78a12.35,12.35,0,0,0,5.74-2.29,12.54,12.54,0,0,0,4-4.7,3.62,3.62,0,0,0-.3-3.71M42.38,29.49l.45.11a.37.37,0,0,1,.27.37l0,.4a.33.33,0,0,0,.16.32l.49.29c.8,1.62,1.57,3.11,2.26,4.48a.21.21,0,0,0,.34,0c1.15-1.22,2.51-2.67,4.13-4.34a.35.35,0,0,0,0-.5c-.82-.83-1.67-1.7-2.62-2.65l-.12-.55a.35.35,0,0,0-.26-.25l-.38-.09a.36.36,0,0,1-.26-.37l0-.47a.32.32,0,0,0-.33-.36,4.34,4.34,0,0,0-2.61,1,4.45,4.45,0,0,0-1.81,2.14.36.36,0,0,0,.28.4"/></g></g></svg>