<?xml version="1.0" standalone="no"?>
<!DOCTYPE svg PUBLIC "-//W3C//DTD SVG 20010904//EN"
 "http://www.w3.org/TR/2001/REC-SVG-20010904/DTD/svg10.dtd">
<svg version="1.0" xmlns="http://www.w3.org/2000/svg"
 width="320.000000pt" height="320.000000pt" viewBox="0 0 320.000000 320.000000"
 preserveAspectRatio="xMidYMid meet">
<metadata>
Created by potrace 1.11, written by Peter Selinger 2001-2013
</metadata>
<g transform="translate(0.000000,320.000000) scale(0.100000,-0.100000)"
fill="#000000" stroke="none">
<path d="M0 2696 l0 -504 63 -6 c34 -2 71 -4 82 -4 11 1 38 -2 59 -7 27 -5 37
-4 32 3 -3 6 -2 13 4 17 6 3 13 -1 16 -9 10 -27 59 -20 72 10 7 14 8 23 2 19
-20 -13 -9 9 25 46 20 22 35 50 35 64 0 13 6 28 14 32 16 10 116 128 116 138
0 4 -7 4 -16 1 -8 -3 -12 -2 -9 4 3 6 13 10 21 10 19 0 18 24 -3 41 -15 12
-16 12 -8 -1 6 -12 5 -13 -5 -3 -10 9 -10 16 -2 26 9 11 5 18 -17 35 -16 11
-50 53 -76 91 -25 39 -51 73 -56 77 -15 9 7 30 57 55 25 11 63 43 86 70 23 27
47 49 54 49 7 0 19 9 27 20 19 28 130 110 139 103 5 -2 5 -9 1 -16 -10 -16 53
29 119 86 52 45 87 55 74 21 -8 -20 74 -120 85 -103 6 10 11 6 18 -14 6 -16
11 -31 11 -33 0 -3 17 -27 37 -52 21 -26 38 -49 39 -50 2 -2 12 -1 23 3 12 3
19 11 16 16 -3 5 1 6 9 3 8 -3 43 7 78 21 46 20 87 28 151 32 52 3 87 2 87 -4
0 -5 7 -10 16 -10 13 0 15 8 11 39 -6 44 2 118 13 118 4 0 5 -12 3 -27 -4 -22
-2 -25 6 -13 12 16 14 69 5 94 -5 14 -84 16 -760 16 l-754 0 0 -504z m750 419
c-7 -9 -15 -13 -19 -10 -3 3 1 10 9 15 21 14 24 12 10 -5z m-320 -565 c0 -5
-2 -10 -4 -10 -3 0 -8 5 -11 10 -3 6 -1 10 4 10 6 0 11 -4 11 -10z m-102 -38
c2 -7 -3 -12 -12 -12 -9 0 -16 7 -16 16 0 17 22 14 28 -4z m32 -142 c0 -5 -4
-10 -10 -10 -5 0 -10 5 -10 10 0 6 5 10 10 10 6 0 10 -4 10 -10z m-195 -30 c3
-5 1 -10 -4 -10 -6 0 -11 5 -11 10 0 6 2 10 4 10 3 0 8 -4 11 -10z m-45 -80
c0 -11 -7 -20 -15 -20 -8 0 -15 9 -15 20 0 11 7 20 15 20 8 0 15 -9 15 -20z"/>
<path d="M2168 3175 c2 -14 9 -22 15 -18 6 4 8 -2 4 -18 -4 -13 -10 -41 -13
-61 -4 -21 -10 -38 -15 -38 -5 0 -9 -8 -9 -17 0 -9 -5 -46 -11 -82 -9 -50 -14
-61 -20 -46 -7 19 -8 19 -8 -3 -1 -14 -5 -21 -12 -17 -7 5 -9 -3 -7 -21 3 -26
7 -29 41 -30 39 -1 121 -40 171 -81 23 -19 31 -22 38 -11 8 10 9 9 5 -3 -7
-20 84 -126 107 -126 9 0 14 2 11 5 -5 6 86 82 100 83 5 1 17 1 25 0 9 -1 29
12 45 29 16 16 34 30 41 30 7 0 28 18 46 41 l35 41 31 -40 c18 -22 39 -56 47
-76 8 -19 28 -50 44 -68 15 -18 45 -60 66 -93 21 -33 61 -86 89 -117 28 -31
66 -77 84 -102 l33 -45 -73 -54 c-40 -29 -94 -68 -119 -85 -46 -31 -99 -86
-99 -102 0 -5 7 -15 15 -24 8 -8 12 -22 9 -31 -4 -9 -3 -20 3 -24 11 -7 33
-136 38 -221 2 -30 4 -58 4 -62 1 -4 7 -5 14 -3 7 3 63 -6 126 -20 62 -14 117
-22 122 -19 5 3 9 338 9 779 l0 774 -519 1 -518 0 5 -25z m497 6 c3 -5 1 -12
-5 -16 -5 -3 -10 1 -10 9 0 18 6 21 15 7z m325 -142 c0 -6 -4 -7 -10 -4 -5 3
-10 11 -10 16 0 6 5 7 10 4 6 -3 10 -11 10 -16z m-800 -159 c0 -11 -7 -20 -15
-20 -15 0 -21 21 -8 33 12 13 23 7 23 -13z m500 10 c0 -5 -5 -10 -11 -10 -5 0
-7 5 -4 10 3 6 8 10 11 10 2 0 4 -4 4 -10z m-563 -42 c-3 -8 -6 -5 -6 6 -1 11
2 17 5 13 3 -3 4 -12 1 -19z m969 -215 c-10 -10 -19 5 -10 18 6 11 8 11 12 0
2 -7 1 -15 -2 -18z m-136 7 c0 -5 -4 -10 -10 -10 -5 0 -10 5 -10 10 0 6 5 10
10 10 6 0 10 -4 10 -10z m212 -35 c0 -5 -5 -11 -11 -13 -6 -2 -11 4 -11 13 0
9 5 15 11 13 6 -2 11 -8 11 -13z m-42 -20 c0 -8 -4 -15 -9 -15 -13 0 -22 16
-14 24 11 11 23 6 23 -9z m40 -331 c0 -11 -5 -14 -16 -10 -9 3 -18 6 -20 6 -3
0 -2 5 1 10 10 16 35 12 35 -6z m-45 -54 c3 -5 1 -10 -4 -10 -6 0 -11 5 -11
10 0 6 2 10 4 10 3 0 8 -4 11 -10z m-95 -89 c0 -11 -4 -23 -10 -26 -6 -4 -10
5 -10 19 0 14 5 26 10 26 6 0 10 -9 10 -19z m110 -166 c0 -8 -4 -15 -9 -15
-13 0 -22 16 -14 24 11 11 23 6 23 -9z m-70 -60 c0 -8 -4 -15 -9 -15 -5 0 -11
7 -15 15 -3 9 0 15 9 15 8 0 15 -7 15 -15z m65 -25 c-5 -8 -11 -8 -17 -2 -6 6
-7 16 -3 22 5 8 11 8 17 2 6 -6 7 -16 3 -22z m-155 -104 c0 -3 -4 -8 -10 -11
-5 -3 -10 -1 -10 4 0 6 5 11 10 11 6 0 10 -2 10 -4z"/>
<path d="M1645 2429 c-27 -5 -67 -10 -88 -10 -20 -1 -40 -6 -43 -11 -4 -6 -9
-5 -14 2 -5 8 -13 9 -21 4 -8 -5 -25 -7 -39 -6 -18 2 -21 0 -11 -6 9 -7 -1 -9
-33 -7 -25 2 -46 0 -46 -5 0 -5 -9 -12 -20 -15 -11 -3 -20 -14 -21 -23 0 -11
-3 -12 -6 -4 -8 20 -54 15 -60 -8 -3 -11 -10 -20 -15 -20 -5 0 -21 -9 -36 -20
-20 -16 -27 -18 -34 -8 -6 10 -14 7 -29 -12 -12 -14 -28 -24 -37 -22 -11 3
-13 -2 -9 -17 4 -15 0 -21 -12 -21 -18 0 -101 -74 -101 -90 0 -12 -52 -65 -65
-67 -5 -1 -15 -15 -20 -32 -6 -16 -15 -34 -19 -38 -5 -5 -6 -2 -1 6 5 9 3 12
-6 9 -8 -3 -14 -14 -15 -25 -2 -33 -12 -53 -28 -53 -15 0 -16 -55 -2 -79 4 -7
2 -18 -4 -26 -6 -8 -9 -18 -6 -23 3 -6 -1 -15 -10 -22 -10 -9 -13 -22 -9 -42
4 -17 2 -28 -4 -28 -6 0 -11 -13 -11 -29 0 -16 -6 -31 -15 -35 -19 -7 -19 -45
0 -52 18 -7 20 -55 3 -100 -6 -18 -8 -39 -3 -50 8 -18 9 -18 12 3 5 25 33 39
44 21 8 -13 -10 -30 -23 -22 -11 7 -10 1 2 -32 7 -19 7 -30 -1 -40 -12 -14 -1
-35 30 -60 8 -6 12 -17 9 -25 -7 -22 34 -92 97 -163 62 -70 83 -84 97 -64 5 8
7 -2 3 -25 -3 -21 -1 -37 5 -37 5 0 23 -15 41 -34 27 -31 70 -52 92 -47 5 1 6
-3 3 -8 -6 -9 21 -26 36 -23 4 1 12 -7 18 -18 6 -11 20 -20 31 -20 30 0 61
-19 53 -33 -4 -7 -4 -9 0 -5 5 4 19 3 32 -3 20 -7 24 -6 22 8 -4 19 12 26 31
14 10 -6 10 -13 2 -28 -8 -16 -6 -25 10 -42 11 -11 25 -21 31 -21 6 0 1 11
-12 25 -18 19 -20 27 -11 39 17 20 51 28 44 10 -4 -10 4 -14 28 -14 l34 -1
-29 -25 c-15 -14 -26 -28 -22 -31 3 -3 28 -8 56 -11 45 -4 50 -3 50 16 0 12 5
24 10 27 15 9 42 -15 36 -32 -4 -10 6 -13 40 -13 45 0 82 13 96 34 6 8 8 8 8
0 0 -26 170 21 178 49 3 12 7 15 12 7 9 -15 80 18 80 38 0 8 6 12 14 9 8 -3
29 5 47 19 55 40 139 134 133 148 -3 8 4 16 19 20 15 3 34 24 53 57 34 60 41
72 72 121 28 45 53 126 46 153 -2 11 4 38 16 60 23 45 26 85 8 103 -13 13 -20
91 -9 90 20 -2 27 5 29 27 1 19 -3 25 -17 25 -11 0 -23 -9 -26 -20 -7 -23 -25
-27 -25 -6 0 8 4 26 9 39 9 22 6 27 -19 37 -28 12 -46 37 -35 49 3 3 15 0 25
-7 11 -7 24 -12 30 -12 14 0 -7 39 -31 60 -13 10 -17 22 -13 37 4 13 10 20 15
17 5 -3 6 -10 3 -16 -5 -7 -2 -9 8 -5 9 3 21 0 27 -6 8 -8 11 -7 11 4 0 21
-12 36 -37 43 -27 9 -30 23 -5 28 12 3 6 11 -26 32 -33 21 -43 32 -39 47 3 11
-1 23 -11 29 -10 5 -12 10 -4 10 6 0 12 5 12 11 0 6 -7 9 -15 5 -11 -4 -15 2
-15 21 0 20 -3 23 -13 14 -8 -6 -17 -8 -20 -4 -4 3 2 13 13 20 22 15 18 33 -6
33 -9 0 -30 11 -48 25 -22 17 -40 23 -51 18 -13 -4 -16 -3 -11 5 9 15 -30 72
-50 72 -8 0 -14 4 -14 9 0 5 -13 12 -30 16 -16 4 -30 11 -30 16 0 5 -6 9 -14
9 -8 0 -18 4 -21 10 -4 6 4 6 21 0 21 -8 29 -8 35 2 10 16 -42 29 -81 21 -27
-5 -80 28 -80 50 0 7 4 6 10 -3 7 -10 10 -11 10 -2 0 16 -25 26 -42 16 -18
-11 -76 -5 -117 12 -18 8 -36 13 -40 13 -3 -1 -28 -5 -56 -10z m280 -99 c3 -5
1 -10 -4 -10 -6 0 -11 5 -11 10 0 6 2 10 4 10 3 0 8 -4 11 -10z m15 -60 c0 -5
-4 -10 -10 -10 -5 0 -10 5 -10 10 0 6 5 10 10 10 6 0 10 -4 10 -10z m-740 -50
c0 -5 -2 -10 -4 -10 -3 0 -8 5 -11 10 -3 6 -1 10 4 10 6 0 11 -4 11 -10z m140
0 c0 -5 -4 -10 -10 -10 -5 0 -10 5 -10 10 0 6 5 10 10 10 6 0 10 -4 10 -10z
m30 6 c0 -3 -4 -8 -10 -11 -5 -3 -10 -1 -10 4 0 6 5 11 10 11 6 0 10 -2 10 -4z
m50 -16 c0 -5 -4 -10 -10 -10 -5 0 -10 5 -10 10 0 6 5 10 10 10 6 0 10 -4 10
-10z m705 -40 c3 -5 1 -10 -4 -10 -6 0 -11 5 -11 10 0 6 2 10 4 10 3 0 8 -4
11 -10z m-1075 -10 c0 -5 -2 -10 -4 -10 -3 0 -8 5 -11 10 -3 6 -1 10 4 10 6 0
11 -4 11 -10z m34 -35 c-7 -16 -24 -21 -24 -6 0 8 7 13 27 20 1 1 0 -6 -3 -14z
m1156 5 c0 -5 -2 -10 -4 -10 -3 0 -8 5 -11 10 -3 6 -1 10 4 10 6 0 11 -4 11
-10z m-425 -10 c3 -5 1 -10 -4 -10 -6 0 -11 5 -11 10 0 6 2 10 4 10 3 0 8 -4
11 -10z m265 -9 c0 -5 -7 -12 -16 -15 -22 -9 -24 -8 -24 9 0 8 9 15 20 15 11
0 20 -4 20 -9z m-180 -35 c0 -11 -19 -15 -25 -6 -3 5 1 10 9 10 9 0 16 -2 16
-4z m70 -5 c0 -12 -28 -22 -34 -12 -3 5 -3 11 1 15 9 9 33 7 33 -3z m100 -1
c0 -5 -4 -10 -10 -10 -5 0 -10 5 -10 10 0 6 5 10 10 10 6 0 10 -4 10 -10z
m-1090 -40 c0 -5 -2 -10 -4 -10 -3 0 -8 5 -11 10 -3 6 -1 10 4 10 6 0 11 -4
11 -10z m210 6 c0 -3 -4 -8 -10 -11 -5 -3 -10 -1 -10 4 0 6 5 11 10 11 6 0 10
-2 10 -4z m520 -10 c0 -3 -4 -8 -10 -11 -5 -3 -10 -1 -10 4 0 6 5 11 10 11 6
0 10 -2 10 -4z m380 -6 c0 -5 -4 -10 -9 -10 -6 0 -13 5 -16 10 -3 6 1 10 9 10
9 0 16 -4 16 -10z m-685 -19 c3 -5 1 -12 -5 -16 -5 -3 -10 1 -10 9 0 18 6 21
15 7z m285 -31 c0 -5 -2 -10 -4 -10 -3 0 -8 5 -11 10 -3 6 -1 10 4 10 6 0 11
-4 11 -10z m380 -10 c0 -5 -7 -10 -16 -10 -8 0 -12 5 -9 10 3 6 10 10 16 10 5
0 9 -4 9 -10z m-700 -35 c0 -8 -4 -15 -10 -15 -5 0 -10 7 -10 15 0 8 5 15 10
15 6 0 10 -7 10 -15z m105 -13 c0 -18 -20 -15 -23 4 -3 10 1 15 10 12 7 -3 13
-10 13 -16z m580 8 c3 -5 1 -10 -4 -10 -6 0 -11 5 -11 10 0 6 2 10 4 10 3 0 8
-4 11 -10z m235 0 c0 -5 -4 -10 -10 -10 -5 0 -10 5 -10 10 0 6 5 10 10 10 6 0
10 -4 10 -10z m40 0 c0 -5 -2 -10 -4 -10 -3 0 -8 5 -11 10 -3 6 -1 10 4 10 6
0 11 -4 11 -10z m-1225 -20 c3 -5 2 -10 -4 -10 -5 0 -13 5 -16 10 -3 6 -2 10
4 10 5 0 13 -4 16 -10z m535 0 c0 -5 -5 -10 -11 -10 -5 0 -7 5 -4 10 3 6 8 10
11 10 2 0 4 -4 4 -10z m-210 -21 c0 -9 -40 -33 -45 -27 -1 2 1 13 6 25 8 22
39 23 39 2z m165 -9 c3 -5 1 -10 -4 -10 -6 0 -11 5 -11 10 0 6 2 10 4 10 3 0
8 -4 11 -10z m-55 -20 c0 -5 -5 -10 -11 -10 -5 0 -7 5 -4 10 3 6 8 10 11 10 2
0 4 -4 4 -10z m285 0 c-3 -5 -13 -10 -21 -10 -8 0 -12 5 -9 10 3 6 13 10 21
10 8 0 12 -4 9 -10z m455 2 c0 -4 -5 -13 -12 -20 -18 -18 -28 -15 -28 8 0 13
7 20 20 20 11 0 20 -4 20 -8z m-1160 -12 c0 -5 -7 -10 -16 -10 -8 0 -12 5 -9
10 3 6 10 10 16 10 5 0 9 -4 9 -10z m355 0 c-3 -5 -11 -10 -16 -10 -6 0 -7 5
-4 10 3 6 11 10 16 10 6 0 7 -4 4 -10z m-479 -35 c-5 -14 -9 -15 -21 -5 -12
10 -13 16 -4 27 15 18 34 1 25 -22z m444 15 c0 -19 -18 -19 -23 -1 -3 14 -1
18 9 14 8 -3 14 -9 14 -13z m756 0 c16 0 18 -9 4 -30 -8 -13 -11 -13 -26 2
-11 11 -14 23 -9 35 5 12 9 14 12 6 3 -7 11 -13 19 -13z m-1146 0 c0 -5 -5
-10 -11 -10 -5 0 -7 5 -4 10 3 6 8 10 11 10 2 0 4 -4 4 -10z m145 0 c3 -5 -1
-10 -9 -10 -8 0 -18 5 -21 10 -3 6 1 10 9 10 8 0 18 -4 21 -10z m715 -31 c0
-5 -4 -9 -10 -9 -5 0 -10 7 -10 16 0 8 5 12 10 9 6 -3 10 -10 10 -16z m40 11
c0 -5 -4 -10 -10 -10 -5 0 -10 5 -10 10 0 6 5 10 10 10 6 0 10 -4 10 -10z
m-390 -10 c0 -5 -4 -10 -10 -10 -5 0 -10 5 -10 10 0 6 5 10 10 10 6 0 10 -4
10 -10z m511 0 c20 0 -1 -18 -26 -22 -15 -3 -25 -1 -25 7 0 17 12 26 28 20 7
-3 18 -5 23 -5z m-590 -42 c-4 -12 -13 -24 -20 -26 -9 -3 -9 2 0 22 15 32 32
35 20 4z m-531 2 c0 -5 -4 -10 -10 -10 -5 0 -10 5 -10 10 0 6 5 10 10 10 6 0
10 -4 10 -10z m310 -11 c0 -5 -4 -9 -10 -9 -5 0 -10 7 -10 16 0 8 5 12 10 9 6
-3 10 -10 10 -16z m770 6 c0 -12 -19 -12 -23 0 -4 9 -1 12 9 8 7 -3 14 -7 14
-8z m-820 -5 c0 -5 -4 -10 -10 -10 -5 0 -10 5 -10 10 0 6 5 10 10 10 6 0 10
-4 10 -10z m500 -21 c0 -12 -27 -11 -35 1 -11 17 5 32 21 19 8 -6 14 -15 14
-20z m-115 12 c3 -5 1 -12 -5 -16 -5 -3 -10 1 -10 9 0 18 6 21 15 7z m293 -22
c-3 -34 -15 -46 -30 -31 -7 7 -4 18 8 36 24 32 25 32 22 -5z m-658 -2 c0 -7
-7 -22 -15 -33 -12 -16 -14 -17 -15 -2 0 23 11 48 21 48 5 0 9 -6 9 -13z m140
-8 c0 -6 -4 -7 -10 -4 -5 3 -10 11 -10 16 0 6 5 7 10 4 6 -3 10 -11 10 -16z
m644 0 c-3 -5 -10 -7 -15 -3 -5 3 -7 10 -3 15 3 5 10 7 15 3 5 -3 7 -10 3 -15z
m201 -9 c-5 -8 -11 -8 -17 -2 -6 6 -7 16 -3 22 5 8 11 8 17 2 6 -6 7 -16 3
-22z m-945 4 c0 -8 -4 -12 -10 -9 -5 3 -10 10 -10 16 0 5 5 9 10 9 6 0 10 -7
10 -16z m870 12 c0 -18 -15 -36 -31 -36 -18 0 -26 20 -12 33 7 8 43 10 43 3z
m-519 -19 c-1 -12 -15 -9 -19 4 -3 6 1 10 8 8 6 -3 11 -8 11 -12z m104 3 c3
-5 1 -10 -4 -10 -6 0 -11 5 -11 10 0 6 2 10 4 10 3 0 8 -4 11 -10z m345 -16
c0 -8 -7 -14 -15 -14 -8 0 -15 9 -15 20 0 13 5 18 15 14 8 -4 15 -12 15 -20z
m-580 -5 c0 -5 -4 -9 -10 -9 -5 0 -10 7 -10 16 0 8 5 12 10 9 6 -3 10 -10 10
-16z m800 11 c0 -5 -4 -10 -10 -10 -5 0 -10 5 -10 10 0 6 5 10 10 10 6 0 10
-4 10 -10z m-590 -15 c0 -8 -4 -15 -10 -15 -5 0 -10 7 -10 15 0 8 5 15 10 15
6 0 10 -7 10 -15z m310 11 c0 -3 -4 -8 -10 -11 -5 -3 -10 -1 -10 4 0 6 5 11
10 11 6 0 10 -2 10 -4z m-957 -33 c-5 -12 -7 -12 -14 -1 -13 20 -11 28 5 22 8
-3 12 -12 9 -21z m375 3 c3 -13 -1 -17 -14 -14 -11 2 -20 11 -22 22 -3 13 1
17 14 14 11 -2 20 -11 22 -22z m874 2 c-7 -7 -12 -8 -12 -2 0 6 3 14 7 17 3 4
9 5 12 2 2 -3 -1 -11 -7 -17z m-472 -12 c0 -3 -4 -8 -10 -11 -5 -3 -10 -1 -10
4 0 6 5 11 10 11 6 0 10 -2 10 -4z m275 -6 c3 -5 1 -10 -4 -10 -6 0 -11 5 -11
10 0 6 2 10 4 10 3 0 8 -4 11 -10z m30 0 c3 -5 1 -10 -4 -10 -6 0 -11 5 -11
10 0 6 2 10 4 10 3 0 8 -4 11 -10z m165 -6 c0 -2 -9 -4 -21 -4 -11 0 -18 4
-14 10 5 8 35 3 35 -6z m-780 -19 c0 -8 -7 -15 -15 -15 -16 0 -20 12 -8 23 11
12 23 8 23 -8z m360 11 c0 -2 -3 -11 -6 -20 -9 -23 -24 -20 -24 4 0 11 7 20
15 20 8 0 15 -2 15 -4z m-825 -16 c-3 -5 -14 -10 -23 -10 -15 0 -15 2 -2 10
20 13 33 13 25 0z m65 0 c0 -5 -4 -10 -10 -10 -5 0 -10 5 -10 10 0 6 5 10 10
10 6 0 10 -4 10 -10z m465 -10 c3 -5 -1 -10 -9 -10 -8 0 -18 5 -21 10 -3 6 1
10 9 10 8 0 18 -4 21 -10z m469 -9 c3 -5 -1 -14 -9 -21 -13 -10 -15 -9 -15 9
0 21 14 28 24 12z m124 -2 c-2 -6 -8 -10 -13 -10 -5 0 -11 4 -13 10 -2 6 4 11
13 11 9 0 15 -5 13 -11z m-1129 -13 c9 -11 8 -15 -5 -20 -23 -9 -24 -8 -24 14
0 23 13 26 29 6z m256 -5 c-3 -6 -11 -11 -17 -11 -6 0 -6 6 2 15 14 17 26 13
15 -4z m909 -7 c3 -8 2 -12 -4 -9 -6 3 -10 10 -10 16 0 14 7 11 14 -7z m-134
-20 c0 -14 -4 -23 -10 -19 -5 3 -10 15 -10 26 0 10 5 19 10 19 6 0 10 -12 10
-26z m-1074 1 c4 -8 15 -15 25 -15 14 0 19 -7 19 -26 0 -29 -18 -28 -34 1 -6
11 -20 27 -31 37 -18 16 -18 17 -2 18 10 0 20 -7 23 -15z m1114 5 c0 -5 -2
-10 -4 -10 -3 0 -8 5 -11 10 -3 6 -1 10 4 10 6 0 11 -4 11 -10z m-370 -30 c9
-16 8 -18 -5 -14 -8 4 -15 12 -15 20 0 20 7 17 20 -6z m455 10 c3 -5 1 -10 -4
-10 -6 0 -11 5 -11 10 0 6 2 10 4 10 3 0 8 -4 11 -10z m161 -17 c-10 -10 -19
5 -10 18 6 11 8 11 12 0 2 -7 1 -15 -2 -18z m44 17 c0 -5 -4 -10 -10 -10 -5 0
-10 5 -10 10 0 6 5 10 10 10 6 0 10 -4 10 -10z m-1570 -15 c0 -8 -4 -15 -10
-15 -5 0 -10 7 -10 15 0 8 5 15 10 15 6 0 10 -7 10 -15z m60 5 c0 -5 -4 -10
-10 -10 -5 0 -10 5 -10 10 0 6 5 10 10 10 6 0 10 -4 10 -10z m576 -27 c-11
-11 -19 6 -11 24 8 17 8 17 12 0 3 -10 2 -21 -1 -24z m824 17 c0 -11 -4 -20
-10 -20 -5 0 -10 9 -10 20 0 11 5 20 10 20 6 0 10 -9 10 -20z m-1032 -1 c-2
-6 -8 -10 -13 -10 -5 0 -11 4 -13 10 -2 6 4 11 13 11 9 0 15 -5 13 -11z m762
-4 c0 -8 -2 -15 -4 -15 -2 0 -6 7 -10 15 -3 8 -1 15 4 15 6 0 10 -7 10 -15z
m-150 -4 c0 -6 -4 -13 -10 -16 -5 -3 -10 1 -10 9 0 9 5 16 10 16 6 0 10 -4 10
-9z m40 -1 c0 -5 -2 -10 -4 -10 -3 0 -8 5 -11 10 -3 6 -1 10 4 10 6 0 11 -4
11 -10z m172 -11 c-11 -28 -26 -29 -30 -1 -3 17 2 22 17 22 16 0 19 -4 13 -21z
m178 -5 c0 -8 -4 -14 -9 -14 -11 0 -22 26 -14 34 9 9 23 -3 23 -20z m-1180 6
c0 -5 -2 -10 -4 -10 -3 0 -8 5 -11 10 -3 6 -1 10 4 10 6 0 11 -4 11 -10z m43
-35 c-1 -5 -14 -11 -28 -13 -19 -3 -24 0 -19 13 7 17 51 17 47 0z m257 -10 c0
-17 -4 -23 -14 -19 -8 3 -12 13 -9 25 7 27 23 24 23 -6z m950 11 c0 -11 -19
-15 -25 -6 -3 5 1 10 9 10 9 0 16 -2 16 -4z m-1030 -16 c0 -5 -7 -10 -15 -10
-8 0 -15 5 -15 10 0 6 7 10 15 10 8 0 15 -4 15 -10z m305 0 c3 -5 1 -10 -4
-10 -6 0 -11 5 -11 10 0 6 2 10 4 10 3 0 8 -4 11 -10z m355 6 c0 -3 -4 -8 -10
-11 -5 -3 -10 -1 -10 4 0 6 5 11 10 11 6 0 10 -2 10 -4z m-50 -16 c0 -5 -4
-10 -10 -10 -5 0 -10 5 -10 10 0 6 5 10 10 10 6 0 10 -4 10 -10z m-580 -16 c0
-8 -4 -12 -10 -9 -5 3 -10 10 -10 16 0 5 5 9 10 9 6 0 10 -7 10 -16z m930 -5
c0 -11 -4 -17 -10 -14 -5 3 -10 1 -10 -4 0 -6 -9 -11 -20 -11 -17 0 -19 3 -8
19 7 11 15 18 19 15 4 -2 10 0 14 6 10 16 15 12 15 -11z m-690 -11 c0 -16 -3
-19 -11 -11 -6 6 -8 16 -5 22 11 17 16 13 16 -11z m304 0 c-4 -13 -12 -26 -18
-30 -7 -5 -4 -8 7 -8 9 0 17 -7 17 -15 0 -17 -2 -18 -24 -9 -21 8 -20 43 2 65
23 24 25 23 16 -3z m79 -25 c-5 -29 -7 -31 -20 -17 -13 13 -14 19 -3 40 17 31
29 19 23 -23z m-443 27 c0 -5 -4 -10 -10 -10 -5 0 -10 5 -10 10 0 6 5 10 10
10 6 0 10 -4 10 -10z m-240 -8 c0 -13 -12 -22 -22 -16 -10 6 -1 24 13 24 5 0
9 -4 9 -8z m-456 -23 c-3 -5 -10 -7 -15 -3 -5 3 -7 10 -3 15 3 5 10 7 15 3 5
-3 7 -10 3 -15z m116 1 c0 -11 -4 -20 -9 -20 -5 0 -7 9 -4 20 3 11 7 20 9 20
2 0 4 -9 4 -20z m1410 -1 c0 -11 -4 -17 -10 -14 -5 3 -10 13 -10 21 0 8 5 14
10 14 6 0 10 -9 10 -21z m-1340 1 c0 -5 -4 -10 -9 -10 -6 0 -13 5 -16 10 -3 6
1 10 9 10 9 0 16 -4 16 -10z m62 -12 c-6 -6 -15 -8 -19 -4 -4 4 -1 11 7 16 8
5 17 7 19 4 3 -2 -1 -10 -7 -16z m438 -16 c0 -19 3 -23 9 -14 5 8 17 12 27 10
16 -4 14 -7 -10 -17 -46 -18 -72 -11 -67 19 6 47 41 49 41 2z m320 23 c0 -8
-7 -15 -15 -15 -16 0 -20 12 -8 23 11 12 23 8 23 -8z m567 -17 c-3 -7 -5 -2
-5 12 0 14 2 19 5 13 2 -7 2 -19 0 -25z m-397 8 c0 -15 -18 -31 -26 -23 -7 7
7 37 17 37 5 0 9 -6 9 -14z m-870 -11 c-7 -8 -19 -15 -27 -15 -10 0 -14 -7
-10 -20 5 -21 -7 -28 -18 -10 -9 15 25 60 47 60 17 0 18 -3 8 -15z m118 3 c-3
-7 -15 -14 -29 -16 -23 -2 -23 -2 -5 13 24 18 39 20 34 3z m420 -15 c3 -20 1
-21 -30 -10 -43 15 -41 14 -33 27 12 20 60 7 63 -17z m509 -5 c-3 -7 -5 -2 -5
12 0 14 2 19 5 13 2 -7 2 -19 0 -25z m-472 -8 c3 -5 2 -10 -4 -10 -5 0 -13 5
-16 10 -3 6 -2 10 4 10 5 0 13 -4 16 -10z m390 0 c3 -5 1 -10 -4 -10 -6 0 -11
5 -11 10 0 6 2 10 4 10 3 0 8 -4 11 -10z m-455 -21 c0 -5 -4 -9 -10 -9 -5 0
-10 7 -10 16 0 8 5 12 10 9 6 -3 10 -10 10 -16z m337 -1 c-3 -8 -6 -5 -6 6 -1
11 2 17 5 13 3 -3 4 -12 1 -19z m177 16 c17 -6 22 -24 8 -24 -5 0 -17 7 -28
15 -19 15 -8 20 20 9z m-357 -10 c-3 -3 -12 -4 -19 -1 -8 3 -5 6 6 6 11 1 17
-2 13 -5z m263 -3 c0 -5 -7 -11 -15 -15 -9 -3 -15 0 -15 9 0 8 7 15 15 15 8 0
15 -4 15 -9z m-130 -23 c0 -6 -7 -7 -16 -4 -9 3 -18 6 -20 6 -3 0 -3 4 1 10 7
11 35 2 35 -12z m-890 -9 c0 -5 -4 -9 -10 -9 -5 0 -10 7 -10 16 0 8 5 12 10 9
6 -3 10 -10 10 -16z m404 6 c-4 -8 -11 -12 -16 -9 -6 4 -5 10 3 15 19 12 19
11 13 -6z m106 0 c0 -8 -7 -15 -15 -15 -8 0 -15 7 -15 15 0 8 7 15 15 15 8 0
15 -7 15 -15z m43 -5 c-6 -22 -18 -26 -29 -9 -3 6 0 15 7 20 22 14 28 11 22
-11z m748 -13 c-8 -8 -11 -7 -11 4 0 20 13 34 18 19 3 -7 -1 -17 -7 -23z
m-651 8 c0 -8 5 -15 11 -15 6 0 9 -5 7 -11 -4 -13 -23 -13 -23 0 0 5 -3 13 -7
17 -11 11 -10 24 2 24 6 0 10 -7 10 -15z m218 -39 c-2 -16 -7 -23 -15 -18 -6
4 -9 19 -6 35 7 36 26 20 21 -17z m92 24 c0 -5 -7 -10 -15 -10 -8 0 -15 5 -15
10 0 6 7 10 15 10 8 0 15 -4 15 -10z m105 1 c-3 -5 -1 -12 5 -16 5 -3 10 -1
10 5 0 8 6 8 20 0 32 -17 23 -26 -25 -25 -25 0 -45 1 -45 3 0 8 26 42 33 42 4
0 6 -4 2 -9z m-805 -68 c0 -16 -2 -16 -34 -3 -25 9 -37 40 -16 40 6 0 10 8 10
18 0 12 6 8 20 -13 11 -16 20 -36 20 -42z m980 63 c0 -3 -4 -8 -10 -11 -5 -3
-10 -1 -10 4 0 6 5 11 10 11 6 0 10 -2 10 -4z m-920 -26 c0 -23 -10 -26 -28
-8 -18 18 -15 28 8 28 13 0 20 -7 20 -20z m110 4 c0 -14 -3 -14 -15 -4 -8 7
-15 14 -15 16 0 2 7 4 15 4 8 0 15 -7 15 -16z m70 2 c0 -16 -18 -31 -27 -22
-8 8 5 36 17 36 5 0 10 -6 10 -14z m90 -2 c0 -8 -4 -12 -10 -9 -5 3 -10 10
-10 16 0 5 5 9 10 9 6 0 10 -7 10 -16z m-580 -10 c0 -14 -3 -14 -15 -4 -8 7
-15 14 -15 16 0 2 7 4 15 4 8 0 15 -7 15 -16z m345 -2 c0 -18 -20 -15 -23 4
-3 10 1 15 10 12 7 -3 13 -10 13 -16z m427 -7 c6 -29 -7 -34 -15 -6 -4 17 0
31 9 31 1 0 4 -11 6 -25z m-358 -16 c-8 -14 -24 -10 -24 6 0 9 6 12 15 9 8 -4
12 -10 9 -15z m266 -4 c0 -14 -4 -25 -8 -25 -5 0 -14 11 -20 25 -10 22 -9 25
8 25 15 0 20 -7 20 -25z m50 -2 c-1 -24 -2 -26 -11 -10 -5 9 -7 22 -4 27 10
17 15 11 15 -17z m470 12 c-12 -15 -30 -12 -30 6 0 5 10 9 21 9 18 0 19 -2 9
-15z m-1280 -5 c0 -5 -2 -10 -4 -10 -3 0 -8 5 -11 10 -3 6 -1 10 4 10 6 0 11
-4 11 -10z m680 -5 c0 -17 -2 -18 -24 -9 -23 9 -20 24 4 24 11 0 20 -7 20 -15z
m640 -5 c-9 -17 -30 -28 -30 -16 0 16 15 36 26 36 12 0 12 -4 4 -20z m-220 6
c0 -3 -4 -8 -10 -11 -5 -3 -10 -1 -10 4 0 6 5 11 10 11 6 0 10 -2 10 -4z
m-1011 -52 c-14 -14 -17 -14 -29 0 -10 13 -10 19 0 32 12 14 15 14 29 0 14
-15 14 -17 0 -32z m526 -2 c-7 -7 -44 32 -38 41 3 5 14 -1 24 -14 10 -13 16
-25 14 -27z m-360 28 c-3 -5 -12 -10 -18 -10 -7 0 -6 4 3 10 19 12 23 12 15 0z
m55 -34 c-17 -22 -40 -20 -40 2 0 30 21 45 39 28 12 -12 12 -18 1 -30z m585
14 c-5 -8 -11 -8 -17 -2 -6 6 -7 16 -3 22 5 8 11 8 17 2 6 -6 7 -16 3 -22z
m71 5 c7 -30 3 -38 -18 -30 -10 4 -13 15 -10 31 6 31 20 31 28 -1z m214 21 c0
-3 -4 -8 -10 -11 -5 -3 -10 -1 -10 4 0 6 5 11 10 11 6 0 10 -2 10 -4z m80 -15
c0 -30 -11 -51 -26 -51 -12 0 -14 33 -5 68 1 1 8 2 16 2 8 0 15 -9 15 -19z
m-720 -1 c0 -5 -4 -10 -10 -10 -5 0 -10 5 -10 10 0 6 5 10 10 10 6 0 10 -4 10
-10z m312 -8 c-7 -2 -12 -8 -12 -13 0 -6 5 -7 12 -3 7 4 8 3 4 -5 -10 -15 13
-43 28 -34 7 4 8 2 1 -5 -15 -16 -47 -5 -68 24 -19 25 -19 25 2 31 12 3 21 10
21 15 0 5 5 6 12 2 9 -6 9 -9 0 -12z m274 3 c9 -8 13 -23 11 -33 -4 -14 -6
-14 -12 6 -4 12 -14 22 -22 22 -8 0 -11 5 -8 10 8 14 14 13 31 -5z m-706 -10
c0 -9 -6 -12 -15 -9 -8 4 -15 10 -15 15 0 5 7 9 15 9 8 0 15 -7 15 -15z m170
-27 c0 -4 -10 -8 -21 -8 -18 0 -19 2 -9 15 9 10 9 15 1 15 -6 0 -11 5 -11 12
0 6 9 3 20 -7 11 -10 20 -22 20 -27z m160 33 c0 -6 -4 -13 -10 -16 -5 -3 -10
1 -10 9 0 9 5 16 10 16 6 0 10 -4 10 -9z m-592 -42 c-4 -32 -26 -35 -34 -4 -4
18 -2 30 7 36 19 11 31 -4 27 -32z m212 21 c0 -5 -4 -10 -10 -10 -5 0 -10 5
-10 10 0 6 5 10 10 10 6 0 10 -4 10 -10z m550 -11 c0 -5 -7 -9 -15 -9 -15 0
-20 12 -9 23 8 8 24 -1 24 -14z m130 6 c0 -8 -4 -15 -10 -15 -5 0 -10 7 -10
15 0 8 5 15 10 15 6 0 10 -7 10 -15z m-345 -6 c9 -13 6 -16 -28 -24 -17 -5
-27 -3 -27 4 0 6 7 11 15 11 8 0 15 5 15 10 0 13 17 13 25 -1z m305 -8 c0 -10
-6 -24 -14 -31 -8 -6 -12 -19 -9 -27 4 -10 2 -14 -4 -10 -6 4 -13 0 -17 -8 -7
-19 -21 -19 -40 1 -9 8 -21 12 -28 8 -7 -4 -2 6 10 24 26 36 60 51 73 31 6
-10 9 -8 9 9 0 12 5 22 10 22 6 0 10 -8 10 -19z m-810 -5 c0 -8 -4 -18 -10
-21 -5 -3 -10 3 -10 14 0 12 5 21 10 21 6 0 10 -6 10 -14z m120 -1 c17 16 30
11 30 -12 0 -7 -9 -13 -19 -13 -11 0 -23 -4 -26 -10 -3 -5 -15 -10 -25 -10
-14 0 -18 5 -13 17 5 13 2 15 -11 10 -26 -10 -40 3 -20 18 14 10 22 10 43 -1
21 -11 28 -11 41 1z m450 -16 c0 -6 -4 -7 -10 -4 -5 3 -10 11 -10 16 0 6 5 7
10 4 6 -3 10 -11 10 -16z m-276 -21 c-8 -28 -12 -33 -20 -25 -9 8 6 47 17 47
6 0 7 -10 3 -22z m325 15 c-1 -16 -18 -48 -18 -36 -1 6 -4 18 -7 27 -4 11 -1
16 10 16 9 0 16 -3 15 -7z m261 -3 c0 -5 -5 -10 -11 -10 -5 0 -7 5 -4 10 3 6
8 10 11 10 2 0 4 -4 4 -10z m123 -15 c-3 -8 -9 -15 -14 -15 -10 0 -12 24 -3
33 11 11 24 -3 17 -18z m-999 -32 c-8 -57 -12 -63 -33 -63 -30 0 -36 35 -11
70 31 43 50 40 44 -7z m199 -3 c6 -23 -3 -26 -21 -8 -16 16 -15 28 2 28 7 0
16 -9 19 -20z m483 -24 c-7 -11 -17 -21 -23 -23 -16 -6 -24 26 -11 46 9 15 15
17 30 8 15 -10 16 -14 4 -31z m-100 -1 c4 -24 3 -26 -11 -12 -8 9 -12 23 -9
32 8 20 14 15 20 -20z m344 6 c0 -5 -11 -8 -24 -7 -13 0 -22 4 -19 9 6 10 43
9 43 -2z m-530 -41 c5 -20 12 -24 33 -22 28 3 33 -4 19 -26 -10 -16 -42 -5
-60 19 -7 10 -28 21 -47 25 -56 10 -40 35 20 31 22 -2 31 -8 35 -27z m502 8
c-7 -7 -12 -8 -12 -2 0 14 12 26 19 19 2 -3 -1 -11 -7 -17z m-685 -3 c7 -20
-2 -29 -21 -22 -9 4 -13 13 -10 22 8 19 23 19 31 0z m533 -6 c0 -5 -4 -9 -10
-9 -5 0 -10 7 -10 16 0 8 5 12 10 9 6 -3 10 -10 10 -16z m-700 -6 c-1 -18 -18
-35 -24 -24 -4 6 -4 16 -1 21 7 12 25 13 25 3z m580 -13 c-6 -11 -18 -20 -28
-20 -14 1 -13 4 7 20 29 25 34 25 21 0z m294 5 c-4 -8 -14 -15 -23 -15 -14 1
-13 3 3 15 25 19 27 19 20 0z m-404 -15 c0 -5 -2 -10 -4 -10 -3 0 -8 5 -11 10
-3 6 -1 10 4 10 6 0 11 -4 11 -10z m193 -11 c-39 -25 -64 -22 -39 4 10 9 29
17 44 17 l27 0 -32 -21z m-368 1 c3 -5 2 -10 -4 -10 -5 0 -13 5 -16 10 -3 6
-2 10 4 10 5 0 13 -4 16 -10z m227 3 c-9 -4 -10 -8 -2 -18 9 -11 7 -12 -10 -8
-16 4 -18 8 -9 19 6 8 17 14 23 13 6 0 6 -3 -2 -6z m212 -17 c-3 -8 -16 -16
-29 -18 -17 -4 -25 0 -29 14 -4 17 -1 19 20 14 14 -4 24 -2 24 4 0 6 4 9 10 5
5 -3 7 -12 4 -19z m-586 -7 c2 -9 -3 -19 -11 -22 -18 -7 -59 21 -51 34 9 16
58 6 62 -12z m-83 -19 c-5 -8 -11 -8 -21 1 -12 10 -12 14 -2 20 16 10 33 -5
23 -21z m165 20 c-20 -13 -50 -13 -50 0 0 6 15 10 33 10 24 0 28 -3 17 -10z
m247 -31 c2 -18 -2 -38 -8 -45 -9 -11 -7 -14 12 -14 17 0 20 -3 11 -12 -8 -8
-15 -8 -26 1 -8 7 -20 10 -25 7 -5 -4 -12 -2 -16 4 -3 5 -1 10 5 10 6 0 8 5 5
10 -4 6 -12 8 -18 4 -7 -3 -3 2 8 11 11 9 19 21 17 26 -1 5 5 12 13 15 8 3 12
11 8 18 -3 6 -3 8 2 4 5 -5 10 -22 12 -39z m183 -9 c0 -5 -4 -10 -10 -10 -5 0
-10 5 -10 10 0 6 5 10 10 10 6 0 10 -4 10 -10z m-310 -10 c0 -5 -5 -10 -11
-10 -5 0 -7 5 -4 10 3 6 8 10 11 10 2 0 4 -4 4 -10z m174 -5 c4 -13 2 -14 -14
-5 -23 13 -26 20 -6 20 8 0 16 -7 20 -15z m-224 -5 c0 -5 -7 -10 -15 -10 -8 0
-15 5 -15 10 0 6 7 10 15 10 8 0 15 -4 15 -10z m265 -10 c3 -5 -1 -10 -9 -10
-9 0 -16 5 -16 10 0 6 4 10 9 10 6 0 13 -4 16 -10z m-260 -50 c-3 -5 -12 -10
-18 -10 -7 0 -6 4 3 10 19 12 23 12 15 0z"/>
<path d="M0 1089 c0 -457 1 -493 17 -505 10 -7 14 -16 10 -20 -4 -5 -12 -2
-17 6 -7 11 -10 6 -10 -18 0 -29 2 -32 19 -22 11 5 27 10 35 10 28 0 17 -18
-19 -31 -28 -11 -35 -18 -35 -40 0 -15 6 -30 13 -32 9 -4 9 -6 -1 -6 -9 -1
-12 -51 -11 -216 l0 -215 30 0 c18 0 28 4 24 10 -3 5 1 10 9 10 9 0 16 -4 16
-10 0 -6 58 -10 155 -10 131 0 155 2 155 15 0 8 -7 15 -15 15 -19 0 -19 14 0
30 10 8 15 9 15 2 0 -6 10 -20 21 -31 18 -16 25 -18 41 -8 16 9 22 9 25 0 6
-16 35 -17 51 -1 7 7 12 8 12 2 0 -6 14 -11 30 -12 23 0 30 4 30 19 0 14 -7
19 -30 19 -23 0 -30 4 -30 20 0 11 -5 20 -10 20 -6 0 -8 -11 -4 -25 5 -22 3
-25 -20 -23 -14 1 -26 9 -26 16 0 9 6 12 16 8 10 -4 14 -1 12 6 -3 7 -19 18
-36 24 -18 5 -29 13 -26 17 12 12 54 8 60 -6 6 -17 37 -15 58 2 13 11 16 11
16 -2 0 -9 -8 -21 -18 -27 -14 -8 -9 -10 23 -8 39 3 40 2 37 -29 l-3 -31 88 0
c86 0 88 1 89 25 2 18 -2 23 -13 19 -8 -3 -17 -6 -19 -6 -2 0 -4 -7 -4 -15 0
-8 -7 -15 -15 -15 -8 0 -15 7 -15 16 0 8 4 13 9 9 6 -3 13 10 17 30 3 19 11
35 16 35 5 0 6 -9 3 -20 -4 -14 -2 -20 8 -20 9 0 17 6 20 13 3 9 7 9 20 -2 9
-7 14 -18 11 -23 -4 -6 2 -7 16 -3 20 6 22 4 17 -14 -3 -11 -2 -22 1 -22 30
-6 59 -7 72 -2 12 4 11 7 -5 13 -19 9 -19 9 3 16 13 4 21 12 18 19 -2 7 1 18
7 24 13 13 12 13 -25 15 -16 1 -28 -2 -28 -6 0 -4 5 -8 10 -8 6 0 10 -4 10
-10 0 -5 -18 -10 -41 -10 -22 0 -39 3 -37 8 3 4 10 21 16 37 11 28 16 30 47
27 19 -2 35 -8 35 -13 0 -5 7 -9 16 -9 10 0 14 6 10 15 -6 15 5 20 18 8 3 -4
15 -7 26 -8 20 -2 25 11 14 39 -5 13 -9 14 -20 5 -8 -7 -17 -9 -21 -6 -3 4
-12 2 -19 -4 -16 -13 -48 -4 -39 11 4 7 -2 9 -19 4 -16 -4 -26 -2 -26 5 0 10
20 15 47 12 19 -2 28 42 10 53 -13 8 -12 12 7 27 20 17 22 17 43 -3 13 -12 26
-19 29 -15 3 3 -4 14 -15 24 -22 18 -29 39 -10 27 7 -4 10 -1 7 7 -3 8 -14 19
-25 24 -11 6 -18 16 -15 23 2 6 -1 12 -7 12 -6 0 -11 5 -11 11 0 6 9 8 20 4
16 -5 20 -2 20 19 0 17 -6 26 -16 26 -8 0 -13 -4 -10 -8 2 -4 -4 -9 -15 -9
-20 -2 -26 13 -8 19 7 2 5 11 -7 23 -19 18 -19 18 -25 -16 -4 -19 -7 -29 -8
-24 -1 6 -7 2 -14 -7 -9 -11 -18 -14 -27 -8 -12 7 -12 10 3 16 9 3 17 9 17 13
0 11 -90 74 -96 68 -3 -3 -24 14 -48 37 -23 22 -38 44 -33 47 5 4 6 12 3 18
-8 12 -56 -38 -56 -59 0 -6 -4 -9 -9 -5 -6 3 -15 -5 -22 -17 -20 -38 -39 -51
-75 -53 -19 -1 -34 -1 -34 0 0 1 20 23 45 50 24 27 43 51 41 53 -8 8 -88 -58
-111 -92 -42 -63 -48 -78 -35 -86 8 -5 10 -15 6 -26 -6 -16 -10 -15 -32 11
-17 20 -24 38 -21 54 6 30 -30 71 -44 50 -6 -10 -9 -8 -9 8 0 13 -10 27 -22
34 -40 20 -118 122 -118 154 0 13 -11 30 -25 39 -18 12 -24 23 -20 36 7 21 -3
29 -39 32 -19 2 -25 7 -21 18 8 24 -33 101 -52 98 -8 -2 -20 5 -26 14 -9 14
-8 21 8 32 26 20 35 20 35 1 0 -25 44 -17 72 13 14 15 37 45 52 67 14 22 26
34 26 28 0 -7 19 5 42 26 l42 39 -17 43 c-9 24 -23 80 -32 124 -27 144 -42
212 -49 223 -4 7 -21 16 -39 21 l-32 10 35 -1 c19 -1 41 1 48 6 31 19 4 26
-103 26 l-115 0 0 -491z m120 341 c0 -11 -4 -20 -10 -20 -5 0 -10 2 -10 4 0 2
-3 11 -6 20 -4 11 -1 16 10 16 9 0 16 -8 16 -20z m117 -282 c-3 -8 -6 -5 -6 6
-1 11 2 17 5 13 3 -3 4 -12 1 -19z m-87 -62 c0 -3 -4 -8 -10 -11 -5 -3 -10 -1
-10 4 0 6 5 11 10 11 6 0 10 -2 10 -4z m-80 -67 c0 -11 -4 -17 -10 -14 -5 3
-10 13 -10 21 0 8 5 14 10 14 6 0 10 -9 10 -21z m86 5 c-3 -9 -6 -20 -6 -25 0
-5 -11 -9 -25 -9 l-24 0 22 24 c26 28 42 33 33 10z m-134 -146 c-7 -7 -12 -8
-12 -2 0 14 12 26 19 19 2 -3 -1 -11 -7 -17z m38 -68 c0 -5 -9 -10 -20 -10
-11 0 -20 5 -20 10 0 6 9 10 20 10 11 0 20 -4 20 -10z m80 -74 c0 -3 -4 -8
-10 -11 -5 -3 -10 -1 -10 4 0 6 5 11 10 11 6 0 10 -2 10 -4z m-40 -60 c0 -2
-7 -17 -15 -32 -16 -30 -19 -25 -9 14 5 18 24 33 24 18z m-40 -46 c0 -5 -5
-10 -11 -10 -5 0 -7 5 -4 10 3 6 8 10 11 10 2 0 4 -4 4 -10z m58 -57 c-13 -16
-28 -7 -28 18 0 16 3 18 19 7 15 -9 17 -16 9 -25z m582 -53 c-19 -12 -30 -12
-30 -1 0 10 31 20 40 14 2 -2 -2 -8 -10 -13z m-374 -36 c19 -19 39 -45 45 -57
8 -17 3 -14 -18 8 -18 19 -36 29 -49 27 -16 -2 -24 4 -32 27 -15 44 11 41 54
-5z m-182 11 c3 -8 1 -15 -4 -15 -6 0 -10 7 -10 15 0 8 2 15 4 15 2 0 6 -7 10
-15z m-54 -5 c0 -5 -4 -10 -10 -10 -5 0 -10 5 -10 10 0 6 5 10 10 10 6 0 10
-4 10 -10z m160 -5 c-7 -8 -17 -12 -22 -9 -6 4 -5 10 3 15 22 14 33 10 19 -6z
m-130 -15 c0 -5 -4 -10 -10 -10 -5 0 -10 5 -10 10 0 6 5 10 10 10 6 0 10 -4
10 -10z m600 1 c0 -5 -9 -12 -19 -16 -10 -3 -22 -18 -27 -33 -5 -19 -8 -22
-11 -10 -5 21 25 68 43 68 8 0 14 -4 14 -9z m-450 -21 c0 -5 -4 -10 -10 -10
-5 0 -10 5 -10 10 0 6 5 10 10 10 6 0 10 -4 10 -10z m53 -36 c-6 -16 -22 -18
-43 -4 -13 9 -12 12 4 25 22 17 48 3 39 -21z m195 -1 c-17 -16 -49 -7 -42 11
3 8 15 11 30 8 22 -4 24 -7 12 -19z m304 13 c7 4 8 2 4 -5 -9 -13 -26 -5 -25
12 0 9 2 8 6 -1 2 -6 10 -9 15 -6z m-732 0 c0 -11 -19 -15 -25 -6 -3 5 1 10 9
10 9 0 16 -2 16 -4z m630 -17 c0 -5 -4 -9 -10 -9 -5 0 -10 7 -10 16 0 8 5 12
10 9 6 -3 10 -10 10 -16z m-102 -12 c22 5 31 -10 12 -22 -5 -3 -10 -22 -10
-42 0 -28 -3 -33 -13 -24 -8 6 -17 9 -21 6 -3 -3 -2 1 4 7 15 18 12 58 -5 64
-8 4 -15 14 -15 23 1 15 2 14 14 -1 8 -11 20 -15 34 -11z m-418 3 c0 -5 -4
-10 -9 -10 -6 0 -13 5 -16 10 -3 6 1 10 9 10 9 0 16 -4 16 -10z m609 -7 l22
-18 -28 0 c-31 0 -53 11 -53 26 0 15 36 10 59 -8z m-409 -19 c0 -8 -4 -14 -8
-14 -4 0 -8 9 -8 19 0 11 4 17 8 15 4 -3 8 -12 8 -20z m-208 -39 c4 -5 8 -18
8 -27 0 -21 -38 -25 -44 -5 -2 6 -8 21 -12 32 -4 11 -8 28 -9 38 -2 16 1 15
24 -5 14 -13 29 -27 33 -33z m357 5 c-7 -5 -17 -6 -21 -4 -14 9 -9 -9 8 -28
14 -14 14 -20 4 -33 -20 -24 -37 -18 -49 16 -16 46 -14 59 12 68 27 11 68 -6
46 -19z m121 22 c0 -4 9 -8 20 -9 11 -1 20 2 20 8 0 5 5 9 10 9 6 0 10 -10 10
-22 0 -12 -3 -19 -6 -15 -3 3 -16 -5 -28 -17 -24 -26 -66 -43 -66 -27 0 5 8
14 18 20 14 8 15 13 5 29 -12 19 -8 32 9 32 4 0 8 -4 8 -8z m118 -24 c-6 -18
-28 -21 -28 -4 0 9 7 16 16 16 9 0 14 -5 12 -12z m-404 -19 c13 11 18 10 31
-2 9 -10 11 -18 5 -22 -5 -3 -10 -1 -10 4 0 6 -7 11 -16 11 -12 0 -15 -6 -10
-26 4 -15 2 -32 -5 -40 -16 -20 -5 -28 20 -14 23 12 28 5 9 -14 -18 -17 -51
-29 -42 -15 3 6 -3 17 -15 25 -26 19 -29 46 -3 37 13 -5 12 0 -6 19 -22 25
-23 27 -5 36 12 7 20 7 25 -1 5 -8 11 -7 22 2z m563 -1 c9 -1 10 -5 3 -14 -8
-9 -16 -9 -35 0 -31 14 -33 31 -2 21 12 -3 28 -7 34 -7z m-67 -8 c0 -5 -2 -10
-4 -10 -3 0 -8 5 -11 10 -3 6 -1 10 4 10 6 0 11 -4 11 -10z m-150 -15 c0 -8
-9 -19 -21 -25 -17 -10 -20 -9 -17 7 2 15 16 27 36 32 1 1 2 -6 2 -14z m55 -5
c-5 -15 -3 -18 9 -14 18 7 20 -4 7 -24 -11 -18 -56 -11 -57 8 0 8 9 23 20 32
27 22 29 22 21 -2z m61 -5 c4 -8 10 -12 15 -9 11 7 41 -15 34 -25 -2 -4 -19
-5 -38 -3 -29 3 -35 8 -33 28 1 27 14 32 22 9z m-580 -16 c13 -15 14 -20 4
-15 -8 3 -23 9 -32 12 -10 4 -18 10 -18 15 0 17 27 9 46 -12z m184 11 c0 -5
-4 -10 -10 -10 -5 0 -10 5 -10 10 0 6 5 10 10 10 6 0 10 -4 10 -10z m-400 -35
c7 -9 10 -18 7 -21 -6 -7 -47 18 -47 28 0 14 27 9 40 -7z m418 -17 c-6 -18
-28 -21 -28 -4 0 9 7 16 16 16 9 0 14 -5 12 -12z m115 -31 c5 -15 47 2 47 20
0 14 3 14 20 -2 16 -14 23 -16 32 -7 20 20 31 14 26 -13 -3 -14 -1 -28 3 -31
5 -3 9 -11 9 -17 0 -7 -7 -4 -14 6 -7 9 -18 17 -25 17 -6 0 -11 5 -11 10 0 22
-32 8 -44 -20 -9 -23 -15 -27 -24 -18 -7 7 -12 17 -12 24 0 6 -7 14 -15 18 -8
3 -15 1 -15 -5 0 -6 -5 -7 -11 -3 -8 4 -7 9 2 15 12 8 12 10 0 18 -8 5 -10 14
-6 21 6 10 11 9 21 -5 7 -10 15 -22 17 -28z m-431 11 c-7 -7 -12 -8 -12 -2 0
14 12 26 19 19 2 -3 -1 -11 -7 -17z m370 -18 c-2 -22 -8 -37 -13 -34 -10 6
-12 35 -3 58 11 29 20 16 16 -24z m277 3 c7 -14 12 -15 25 -4 21 18 36 5 36
-30 0 -31 -26 -41 -36 -14 -4 9 -19 15 -35 15 -24 0 -29 4 -29 25 0 29 24 34
39 8z m-373 -20 c-10 -10 -19 5 -10 18 6 11 8 11 12 0 2 -7 1 -15 -2 -18z
m-331 7 c3 -5 1 -10 -4 -10 -6 0 -11 5 -11 10 0 6 2 10 4 10 3 0 8 -4 11 -10z
m385 0 c0 -5 -7 -10 -16 -10 -8 0 -12 5 -9 10 3 6 10 10 16 10 5 0 9 -4 9 -10z
m-290 -25 c0 -8 -4 -15 -10 -15 -5 0 -7 7 -4 15 4 8 8 15 10 15 2 0 4 -7 4
-15z m341 -28 c-17 -17 -24 -1 -9 22 11 18 14 19 16 5 2 -9 -1 -21 -7 -27z
m-277 17 c9 -22 8 -24 -9 -18 -8 4 -15 12 -15 20 0 19 16 18 24 -2z m96 6 c0
-5 -7 -10 -16 -10 -8 0 -12 5 -9 10 3 6 10 10 16 10 5 0 9 -4 9 -10z m50 0 c0
-5 -4 -10 -9 -10 -6 0 -13 5 -16 10 -3 6 1 10 9 10 9 0 16 -4 16 -10z m30 0
c0 -5 -5 -10 -11 -10 -5 0 -7 5 -4 10 3 6 8 10 11 10 2 0 4 -4 4 -10z m352
-22 c-6 -6 -15 -8 -19 -4 -4 4 -1 11 7 16 19 12 27 3 12 -12z m-722 8 c0 -11
-19 -15 -25 -6 -3 5 1 10 9 10 9 0 16 -2 16 -4z m268 -33 c16 -35 15 -43 -3
-43 -9 0 -15 9 -15 23 0 13 -5 28 -12 35 -9 9 -9 12 3 12 7 0 20 -12 27 -27z
m-132 0 c18 -24 17 -43 -1 -43 -8 0 -15 8 -15 18 0 10 -5 23 -12 30 -9 9 -9
12 1 12 8 0 20 -8 27 -17z m99 -11 c0 -18 -20 -15 -23 4 -3 10 1 15 10 12 7
-3 13 -10 13 -16z m383 1 c-4 -20 -39 -25 -45 -6 -4 10 11 18 40 22 5 0 7 -7
5 -16z m-524 -7 c-7 -18 -32 -28 -39 -16 -3 5 3 13 12 19 25 14 33 13 27 -3z
m96 -43 c0 -37 -5 -40 -26 -18 -9 8 -11 15 -5 15 6 0 11 15 11 33 0 24 3 28
10 17 5 -8 10 -30 10 -47z m200 12 c11 -13 10 -14 -4 -9 -9 3 -16 10 -16 15 0
13 6 11 20 -6z m-420 -5 c0 -5 -2 -10 -4 -10 -3 0 -8 5 -11 10 -3 6 -1 10 4
10 6 0 11 -4 11 -10z m670 0 c0 -13 -20 -13 -40 0 -12 8 -9 10 13 10 15 0 27
-4 27 -10z m-540 -4 c0 -3 -4 -8 -10 -11 -5 -3 -10 -1 -10 4 0 6 5 11 10 11 6
0 10 -2 10 -4z m181 -21 c-1 -15 -24 -12 -29 3 -3 9 2 13 12 10 10 -1 17 -7
17 -13z"/>
<path d="M3165 1190 c-19 -37 -19 -50 3 -66 16 -13 16 -14 -5 -20 -22 -6 -33
-34 -14 -34 5 0 9 -11 9 -23 0 -19 -6 -24 -27 -23 -19 1 -26 6 -26 21 0 18
-14 22 -135 42 -191 31 -185 32 -209 -23 -12 -25 -18 -51 -14 -58 3 -6 3 -8
-2 -4 -4 4 -29 -25 -55 -65 -41 -63 -45 -73 -31 -84 9 -6 12 -15 8 -19 -4 -5
-12 -2 -18 6 -8 12 -15 9 -38 -20 -26 -31 -28 -36 -13 -44 9 -5 18 -10 20 -11
10 -8 -14 -35 -32 -34 -17 1 -18 2 -3 6 14 4 16 8 6 19 -9 11 -15 12 -25 3 -8
-6 -14 -15 -14 -20 0 -13 60 -99 70 -99 4 0 10 -10 14 -22 8 -33 65 -98 66
-75 0 17 11 22 23 10 4 -3 0 -14 -8 -23 -14 -15 -13 -19 8 -42 13 -14 23 -32
21 -40 -3 -20 -48 -65 -61 -61 -6 2 -41 -17 -77 -43 -53 -36 -65 -50 -61 -65
7 -20 -5 -25 -21 -9 -6 6 -17 4 -32 -6 -19 -13 -21 -18 -11 -31 10 -12 10 -16
0 -23 -8 -4 -11 -13 -7 -19 4 -6 1 -9 -7 -5 -11 4 -14 -4 -13 -35 1 -37 2 -40
25 -34 30 7 62 34 55 45 -3 4 0 8 5 8 14 0 14 -17 1 -25 -5 -3 -6 -13 -3 -22
4 -11 3 -14 -5 -9 -7 4 -12 1 -12 -9 0 -8 7 -18 16 -22 15 -6 15 -7 -1 -19 -9
-7 -14 -17 -10 -23 3 -6 2 -11 -3 -11 -6 0 -12 -7 -16 -15 -4 -10 1 -15 14
-15 15 0 20 7 20 28 l1 27 23 -27 24 -26 163 0 c97 0 156 3 144 8 -11 5 -14 9
-7 9 20 1 14 28 -9 34 -17 5 -19 9 -9 26 12 24 32 29 24 6 -4 -10 0 -15 11
-15 10 0 15 5 12 14 -3 8 8 20 30 30 38 18 59 12 31 -8 -10 -7 -15 -16 -11
-20 3 -3 15 2 26 11 19 17 19 17 16 -2 -2 -11 -14 -24 -27 -30 -12 -5 -22 -18
-22 -28 0 -10 -10 -22 -22 -27 -17 -6 -18 -9 -6 -9 9 -1 20 4 24 10 4 8 9 7
15 -2 7 -11 9 -10 9 4 0 9 5 17 11 17 6 0 8 -7 5 -16 -5 -14 -4 -15 8 -5 11 9
15 9 19 -1 4 -10 8 -10 17 2 9 11 13 12 17 3 2 -7 12 -13 21 -13 15 1 15 2 0
11 -21 12 -24 34 -4 26 8 -3 16 2 19 14 8 30 23 22 21 -11 -1 -17 2 -33 7 -36
5 -3 9 0 9 6 0 8 10 9 29 5 21 -5 30 -2 35 11 9 24 6 265 -3 259 -5 -2 -17 2
-27 10 -18 13 -18 14 9 20 31 8 36 34 7 42 -11 3 -20 10 -20 15 0 5 9 6 20 3
18 -6 20 -2 20 39 0 34 -4 46 -15 46 -8 0 -15 5 -15 10 0 6 7 10 15 10 12 0
15 20 14 120 0 66 -4 120 -9 120 -14 0 -21 33 -9 44 9 8 10 8 5 -1 -3 -6 -2
-14 4 -18 6 -4 10 13 10 45 0 50 -1 52 -24 46 -30 -7 -38 11 -18 42 16 25 34
30 26 7 -4 -8 -1 -15 4 -15 7 0 11 61 11 175 0 103 -4 175 -9 175 -5 0 -16
-13 -25 -30z m-355 -120 c12 -8 11 -10 -7 -10 -13 0 -23 5 -23 10 0 13 11 13
30 0z m280 -26 c0 -2 -9 -4 -21 -4 -11 0 -18 4 -14 10 5 8 35 3 35 -6z m-268
-36 c-7 -7 -12 -8 -12 -2 0 14 12 26 19 19 2 -3 -1 -11 -7 -17z m278 -59 c0
-5 -4 -9 -10 -9 -5 0 -10 7 -10 16 0 8 5 12 10 9 6 -3 10 -10 10 -16z m-335 1
c3 -5 1 -10 -4 -10 -6 0 -11 5 -11 10 0 6 2 10 4 10 3 0 8 -4 11 -10z m205 0
c0 -5 -2 -10 -4 -10 -3 0 -8 5 -11 10 -3 6 -1 10 4 10 6 0 11 -4 11 -10z m147
-31 c6 -6 9 -18 6 -27 -4 -10 -2 -13 5 -8 16 9 15 -7 0 -22 -16 -16 -28 -15
-28 3 0 8 -4 15 -9 15 -12 0 -23 29 -15 41 7 12 28 11 41 -2z m-407 -19 c0 -5
-4 -10 -10 -10 -5 0 -10 5 -10 10 0 6 5 10 10 10 6 0 10 -4 10 -10z m32 -32
c-7 -7 -12 -8 -12 -2 0 14 12 26 19 19 2 -3 -1 -11 -7 -17z m207 -4 c-6 -7
-15 -11 -20 -8 -5 3 -3 11 4 18 16 18 31 8 16 -10z m71 12 c0 -3 -4 -8 -10
-11 -5 -3 -10 -1 -10 4 0 6 5 11 10 11 6 0 10 -2 10 -4z m-315 -16 c3 -5 1
-10 -4 -10 -6 0 -11 5 -11 10 0 6 2 10 4 10 3 0 8 -4 11 -10z m385 -1 c0 -6
-8 -18 -17 -27 -16 -16 -16 -16 -10 1 4 10 7 23 7 28 0 5 5 9 10 9 6 0 10 -5
10 -11z m-200 -30 c0 -6 -4 -7 -10 -4 -5 3 -10 11 -10 16 0 6 5 7 10 4 6 -3
10 -11 10 -16z m110 11 c0 -5 -2 -10 -4 -10 -3 0 -8 5 -11 10 -3 6 -1 10 4 10
6 0 11 -4 11 -10z m29 -31 c-20 -12 -22 -4 -7 20 11 18 14 19 16 5 2 -9 -2
-20 -9 -25z m-259 10 c0 -6 -6 -9 -14 -6 -8 3 -19 -5 -26 -19 -8 -13 -19 -24
-27 -24 -17 0 -11 39 8 51 20 12 59 11 59 -2z m204 -15 c4 -12 2 -15 -9 -11
-8 4 -17 2 -20 -4 -7 -11 -25 -2 -25 13 0 5 7 8 15 5 8 -4 17 -2 20 3 8 14 12
12 19 -6z m-334 -15 c0 -24 -23 -21 -28 4 -2 10 3 17 12 17 10 0 16 -9 16 -21z
m437 6 c0 -8 -4 -12 -9 -9 -4 3 -8 9 -8 15 0 5 4 9 8 9 5 0 9 -7 9 -15z m82 3
c0 -7 -4 -22 -8 -33 -7 -18 -9 -17 -25 13 l-17 32 26 0 c14 0 25 -6 24 -12z
m-269 -8 c0 -5 -4 -10 -10 -10 -5 0 -10 5 -10 10 0 6 5 10 10 10 6 0 10 -4 10
-10z m-112 -35 c8 -7 -12 -34 -29 -38 -15 -4 -19 -2 -15 8 3 8 1 17 -5 20 -17
11 2 26 24 19 12 -3 23 -8 25 -9z m157 -4 c-3 -6 -18 -11 -33 -11 -29 0 -20
15 13 22 24 5 29 3 20 -11z m140 9 c3 -5 -1 -10 -10 -10 -9 0 -13 5 -10 10 3
6 8 10 10 10 2 0 7 -4 10 -10z m-225 -30 c0 -23 -4 -30 -20 -30 -16 0 -20 7
-20 30 0 23 4 30 20 30 16 0 20 -7 20 -30z m135 20 c-3 -5 -13 -10 -21 -10 -8
0 -12 5 -9 10 3 6 13 10 21 10 8 0 12 -4 9 -10z m45 -34 c-5 -15 -7 -33 -3
-39 4 -7 0 -6 -10 2 -19 15 -17 49 3 61 20 12 22 7 10 -24z m-356 8 c7 -19 -2
-37 -15 -29 -12 8 -12 45 0 45 5 0 12 -7 15 -16z m313 -36 c-3 -8 -6 -5 -6 6
-1 11 2 17 5 13 3 -3 4 -12 1 -19z m-45 -11 c-2 -11 2 -15 13 -11 8 3 15 1 15
-5 0 -6 -6 -11 -12 -11 -21 1 -50 28 -43 40 10 16 31 6 27 -13z m209 0 c-13
-13 -26 -3 -16 12 3 6 11 8 17 5 6 -4 6 -10 -1 -17z m-406 3 c3 -5 1 -10 -4
-10 -6 0 -11 5 -11 10 0 6 2 10 4 10 3 0 8 -4 11 -10z m295 -50 c0 -13 -7 -20
-20 -20 -23 0 -25 5 -7 25 17 20 27 18 27 -5z m-360 6 c0 -2 -3 -11 -6 -20 -5
-12 -9 -13 -19 -3 -7 7 -11 15 -8 20 4 7 33 10 33 3z m390 -11 c0 -8 -2 -15
-4 -15 -2 0 -6 7 -10 15 -3 8 -1 15 4 15 6 0 10 -7 10 -15z m-216 -16 c-3 -5
-13 -8 -22 -7 -12 2 -16 -3 -14 -17 3 -16 1 -18 -9 -8 -10 10 -9 16 5 32 17
19 52 19 40 0z m-118 -4 c-8 -8 -18 -15 -22 -15 -3 0 -1 7 6 15 7 8 17 15 22
15 5 0 3 -7 -6 -15z m154 -11 c0 -8 -4 -12 -10 -9 -5 3 -10 10 -10 16 0 5 5 9
10 9 6 0 10 -7 10 -16z m-5 -45 c0 -8 -10 -15 -21 -17 -16 -2 -23 3 -26 21 -4
22 -2 24 21 17 14 -3 26 -13 26 -21z m50 21 c-3 -5 0 -10 7 -10 26 0 38 -21
22 -37 -22 -22 -54 4 -43 35 5 12 11 22 14 22 4 0 3 -4 0 -10z m255 6 c0 -3
-4 -8 -10 -11 -5 -3 -10 -1 -10 4 0 6 5 11 10 11 6 0 10 -2 10 -4z m-362 -44
c2 -7 -2 -10 -12 -6 -9 3 -16 11 -16 16 0 13 23 5 28 -10z m342 3 c0 -8 -4
-15 -10 -15 -5 0 -7 7 -4 15 4 8 8 15 10 15 2 0 4 -7 4 -15z m-410 -5 c0 -5
-2 -10 -4 -10 -3 0 -8 5 -11 10 -3 6 -1 10 4 10 6 0 11 -4 11 -10z m340 -12
c0 -13 -32 -6 -37 9 -3 7 3 9 16 6 12 -3 21 -10 21 -15z m-160 -38 c0 -26 -10
-50 -22 -50 -5 0 -7 8 -3 19 3 12 0 21 -10 25 -20 7 -19 24 3 29 23 5 32 -1
32 -23z m-130 0 c0 -4 -6 -10 -14 -13 -10 -4 -12 0 -9 14 5 18 23 18 23 -1z
m30 4 c0 -8 -4 -12 -10 -9 -5 3 -10 10 -10 16 0 5 5 9 10 9 6 0 10 -7 10 -16z
m205 6 c3 -5 1 -10 -4 -10 -6 0 -11 5 -11 10 0 6 2 10 4 10 3 0 8 -4 11 -10z
m-41 -24 c-4 -12 2 -13 33 -6 35 8 36 8 18 -6 -11 -8 -19 -24 -17 -34 2 -13
-2 -20 -12 -20 -9 0 -15 5 -13 12 1 6 -7 14 -17 16 -11 2 -27 11 -35 20 -15
14 -14 15 3 9 14 -5 17 -4 12 8 -4 10 1 15 14 15 13 0 17 -5 14 -14z m116 -6
c0 -5 -2 -10 -4 -10 -3 0 -8 5 -11 10 -3 6 -1 10 4 10 6 0 11 -4 11 -10z m35
-20 c3 -5 1 -10 -4 -10 -6 0 -11 5 -11 10 0 6 2 10 4 10 3 0 8 -4 11 -10z
m-350 -19 c0 -23 -23 -24 -35 -1 -10 19 -9 21 12 18 13 -2 23 -9 23 -17z m134
-1 c9 0 26 -7 37 -15 18 -15 18 -15 -8 -9 -18 4 -28 2 -28 -5 0 -6 -4 -11 -10
-11 -5 0 -10 5 -10 11 0 7 -8 18 -17 26 -17 14 -17 14 0 9 10 -3 26 -6 36 -6z
m201 -10 c0 -5 -2 -10 -4 -10 -3 0 -8 5 -11 10 -3 6 -1 10 4 10 6 0 11 -4 11
-10z m-2 -38 c3 -9 -2 -13 -14 -10 -9 1 -19 9 -22 16 -3 9 2 13 14 10 9 -1 19
-9 22 -16z m-353 -1 c3 -5 2 -12 -3 -15 -5 -3 -9 1 -9 9 0 17 3 19 12 6z m105
-5 c0 -8 -5 -18 -11 -21 -6 -4 -8 -13 -5 -21 3 -7 1 -16 -4 -19 -12 -7 -12 1
-4 44 7 31 24 44 24 17z m83 -12 c-6 -16 -23 -19 -23 -3 0 5 -4 7 -10 4 -5 -3
-16 -3 -22 1 -9 6 -5 10 12 14 33 9 50 2 43 -16z m-268 -4 c3 -5 1 -10 -4 -10
-6 0 -11 5 -11 10 0 6 2 10 4 10 3 0 8 -4 11 -10z m404 -16 c-10 -13 -10 -17
2 -25 8 -5 9 -9 3 -9 -21 0 -35 25 -22 38 18 18 32 14 17 -4z m-448 -27 c-10
-9 -11 -8 -5 6 3 10 9 15 12 12 3 -3 0 -11 -7 -18z m54 13 c3 -5 -1 -10 -9
-10 -9 0 -16 5 -16 10 0 6 4 10 9 10 6 0 13 -4 16 -10z m100 0 c3 -5 -1 -10
-10 -10 -9 0 -13 5 -10 10 3 6 8 10 10 10 2 0 7 -4 10 -10z m135 0 c0 -5 -7
-10 -15 -10 -8 0 -15 5 -15 10 0 6 7 10 15 10 8 0 15 -4 15 -10z m80 -20 c0
-5 -4 -10 -10 -10 -5 0 -10 5 -10 10 0 6 5 10 10 10 6 0 10 -4 10 -10z m-365
-20 c38 31 87 -73 51 -108 -15 -15 -16 -14 -16 9 0 15 -13 38 -35 59 -19 18
-31 38 -28 44 4 6 8 6 11 -2 3 -10 7 -10 17 -2z m235 6 c0 -3 -4 -8 -10 -11
-5 -3 -10 -1 -10 4 0 6 5 11 10 11 6 0 10 -2 10 -4z m60 -30 c0 -2 -8 -4 -19
-3 -16 1 -18 8 -12 35 1 5 31 -26 31 -32z m-210 20 c0 -3 -4 -8 -10 -11 -5 -3
-10 -1 -10 4 0 6 5 11 10 11 6 0 10 -2 10 -4z m257 -8 c3 6 19 11 36 11 24 -1
26 -3 10 -6 -13 -2 -23 -9 -23 -15 0 -6 -3 -8 -7 -5 -3 4 -12 2 -19 -4 -9 -8
-16 -4 -25 13 -12 22 -11 22 6 8 14 -11 19 -12 22 -2z m123 -3 c10 -12 10 -15
-4 -15 -9 0 -16 5 -16 11 0 5 -4 7 -10 4 -5 -3 -10 -1 -10 4 0 16 26 13 40 -4z
m-290 -5 c0 -5 -4 -10 -9 -10 -6 0 -13 5 -16 10 -3 6 1 10 9 10 9 0 16 -4 16
-10z m-218 -32 c-9 -9 -12 -7 -12 12 0 19 3 21 12 12 9 -9 9 -15 0 -24z m188
-15 c0 -6 -6 -13 -12 -15 -7 -3 0 -11 16 -19 33 -16 46 -39 22 -39 -14 0 -21
-18 -17 -42 0 -4 -6 -5 -13 -2 -9 4 -16 -3 -19 -18 -3 -18 -5 -16 -6 9 -1 38
-19 53 -36 29 -10 -14 -14 -14 -18 -3 -3 8 -1 19 4 24 6 6 11 25 11 42 1 17 5
34 10 37 4 3 8 14 8 25 0 19 1 19 25 2 13 -10 25 -23 25 -30z m-220 27 c0 -5
-4 -10 -9 -10 -6 0 -13 5 -16 10 -3 6 1 10 9 10 9 0 16 -4 16 -10z m300 -10
c0 -5 -5 -10 -11 -10 -5 0 -7 5 -4 10 3 6 8 10 11 10 2 0 4 -4 4 -10z m227 3
c-9 -2 -15 -9 -12 -14 4 -5 -1 -9 -11 -9 -13 0 -14 3 -4 15 7 8 20 14 29 14
13 -1 13 -2 -2 -6z m-163 -16 c3 3 6 1 6 -5 0 -16 -12 -15 -36 4 -18 15 -18
15 2 5 12 -6 24 -7 28 -4z m104 -9 c-5 -15 -23 -11 -26 6 -2 11 2 14 13 10 9
-4 14 -11 13 -16z m-428 -13 c0 -7 7 -15 15 -19 8 -3 15 -1 15 3 0 5 -6 11
-12 14 -7 2 -10 7 -7 11 3 3 16 -3 29 -14 13 -11 19 -20 15 -20 -4 0 0 -9 10
-20 15 -17 16 -20 3 -20 -9 0 -18 7 -22 15 -3 8 -14 15 -24 15 -15 0 -18 -9
-19 -55 -1 -30 3 -55 8 -55 19 0 8 -28 -13 -33 -28 -8 -34 -2 -18 18 10 13 9
15 -8 15 -21 0 -40 32 -23 38 6 2 11 12 11 22 0 10 7 21 16 24 22 8 12 29 -17
36 -14 3 -25 14 -27 26 -3 18 2 20 33 16 20 -2 35 -10 35 -17z m-110 11 c0 -2
-7 -7 -16 -10 -8 -3 -12 -2 -9 4 6 10 25 14 25 6z m411 -15 c13 -10 31 -16 39
-14 12 4 13 3 1 -5 -8 -6 -10 -15 -6 -22 6 -10 2 -12 -13 -8 -12 4 -25 2 -28
-3 -3 -5 -13 -5 -24 1 -26 14 -30 13 -30 -12 0 -12 -3 -18 -7 -14 -8 7 -5 74
3 88 9 14 40 9 65 -11z m234 -1 c3 -5 1 -10 -4 -10 -6 0 -11 -11 -11 -24 0
-13 -7 -26 -15 -30 -20 -7 -20 21 0 41 8 8 13 19 10 24 -4 5 -2 9 4 9 5 0 13
-4 16 -10z m-646 -21 c-11 -11 -23 -18 -26 -15 -7 7 20 35 35 36 7 0 3 -9 -9
-21z m531 5 c0 -2 -7 -4 -15 -4 -8 0 -15 4 -15 10 0 5 7 7 15 4 8 -4 15 -8 15
-10z m80 6 c0 -5 -5 -10 -11 -10 -5 0 -7 5 -4 10 3 6 8 10 11 10 2 0 4 -4 4
-10z m60 -20 c0 -5 -2 -10 -4 -10 -3 0 -8 5 -11 10 -3 6 -1 10 4 10 6 0 11 -4
11 -10z m-180 -10 c0 -5 -2 -10 -4 -10 -3 0 -8 5 -11 10 -3 6 -1 10 4 10 6 0
11 -4 11 -10z m165 -10 c3 -5 1 -10 -4 -10 -6 0 -11 5 -11 10 0 6 2 10 4 10 3
0 8 -4 11 -10z m-87 -9 c11 -7 10 -9 -3 -15 -9 -3 -13 -11 -9 -17 4 -8 9 -7
15 2 5 8 9 9 9 3 0 -6 -7 -17 -15 -24 -15 -13 -15 -13 -29 34 -8 24 9 32 32
17z m-368 -31 c0 -5 -7 -10 -15 -10 -18 0 -20 -16 -2 -23 9 -4 8 -8 -3 -16
-18 -13 -21 -13 -40 -1 -13 9 -11 14 13 35 30 26 47 32 47 15z m440 -7 c0 -5
-4 -15 -10 -23 -6 -9 -5 -17 3 -22 6 -4 8 -10 4 -14 -14 -14 -28 13 -21 40 5
23 24 38 24 19z m-116 -18 c8 -22 -4 -47 -21 -41 -8 3 -21 6 -28 6 -10 0 -7 8
8 24 27 29 33 31 41 11z m-216 -49 c14 5 15 4 2 -4 -8 -5 -31 -7 -50 -4 l-35
6 30 6 c17 3 31 2 33 -2 2 -4 11 -5 20 -2z m-103 -6 c3 -5 2 -10 -4 -10 -5 0
-13 5 -16 10 -3 6 -2 10 4 10 5 0 13 -4 16 -10z"/>
<path d="M2760 161 c0 -5 5 -13 10 -16 6 -3 10 -2 10 4 0 5 -4 13 -10 16 -5 3
-10 2 -10 -4z"/>
<path d="M2597 84 c-8 -8 1 -24 12 -24 4 0 8 7 8 15 0 16 -9 20 -20 9z"/>
<path d="M1030 400 c0 -5 10 -10 23 -10 18 0 19 2 7 10 -19 13 -30 13 -30 0z"/>
<path d="M2056 391 c-4 -5 3 -7 14 -4 23 6 26 13 6 13 -8 0 -17 -4 -20 -9z"/>
<path d="M1027 363 c-10 -9 -9 -23 2 -23 5 0 11 7 15 15 5 15 -5 20 -17 8z"/>
<path d="M1963 360 c-13 -5 -23 -14 -23 -19 0 -6 -12 -8 -27 -5 -16 3 -44 -2
-63 -10 -19 -8 -27 -15 -17 -16 22 0 22 -13 -3 -35 -19 -17 -20 -17 -29 8 -13
34 -28 41 -40 20 -7 -13 -13 -14 -18 -7 -6 9 -20 9 -54 1 -45 -11 -47 -13 -52
-51 -3 -22 -1 -46 5 -53 7 -9 6 -14 -6 -19 -20 -8 -21 -53 -2 -60 8 -3 13 -11
10 -19 -3 -7 5 -15 18 -19 26 -7 58 23 58 55 0 10 5 19 10 19 10 0 14 -14 11
-37 -1 -7 6 -13 15 -13 13 0 15 6 11 29 -6 27 -4 29 20 26 15 -1 40 2 55 7 22
8 26 13 18 23 -8 9 -8 15 0 20 5 3 10 1 10 -4 0 -6 8 -11 18 -12 9 0 12 -3 5
-5 -18 -8 -3 -35 16 -30 9 3 22 1 30 -3 12 -8 12 -12 2 -25 -8 -9 -20 -16 -27
-16 -8 0 -14 -5 -14 -11 0 -5 -11 3 -25 18 -24 27 -24 28 -25 5 0 -14 9 -26
24 -34 23 -10 24 -12 10 -34 -9 -13 -13 -28 -9 -34 3 -5 2 -10 -4 -10 -6 0
-15 9 -21 20 -8 15 -8 20 2 20 8 0 9 3 3 8 -5 4 -15 16 -21 26 -14 27 -36 33
-33 10 2 -11 -1 -25 -5 -33 -7 -11 -5 -13 7 -8 21 8 31 -7 14 -22 -10 -8 -19
-4 -38 13 -15 15 -29 20 -39 15 -8 -4 -23 -10 -32 -13 -46 -14 8 -46 77 -46
29 0 45 4 45 13 0 9 2 9 8 0 9 -14 103 -13 115 2 6 7 10 6 14 -2 2 -7 20 -13
38 -13 31 0 35 3 41 35 5 27 9 33 19 25 9 -8 14 -5 18 10 5 20 37 29 37 10 0
-5 -5 -10 -11 -10 -5 0 -7 -4 -4 -10 10 -17 35 -11 35 8 0 10 -6 27 -14 37 -7
10 -11 27 -8 38 4 14 2 18 -7 12 -10 -6 -11 -3 -2 13 15 28 31 37 31 18 0 -9
-5 -16 -11 -16 -8 0 -8 -5 1 -15 7 -8 20 -15 30 -15 20 0 35 -16 42 -47 7 -27
-18 -20 -27 8 -4 10 -13 19 -21 19 -18 0 -18 -15 2 -34 16 -17 10 -61 -7 -51
-5 4 -9 -3 -9 -14 0 -16 6 -21 25 -21 20 0 25 5 25 26 0 21 3 24 22 19 17 -6
20 -4 15 9 -9 23 10 10 24 -16 10 -18 8 -19 -13 -13 -20 7 -21 6 -9 -8 18 -23
58 -17 109 16 45 29 54 47 22 47 -13 0 -20 -7 -20 -20 0 -11 -7 -20 -15 -20
-8 0 -15 9 -15 19 0 11 -6 22 -12 25 -7 3 1 4 17 3 24 -2 30 2 30 18 0 11 8
21 17 23 12 2 15 -2 11 -16 -3 -12 2 -22 12 -26 13 -5 15 -2 10 15 -6 18 -4
20 15 14 17 -5 21 -3 19 12 -2 10 -1 23 3 28 4 6 3 17 -1 24 -10 15 -52 6 -78
-18 -10 -9 -26 -20 -35 -24 -10 -3 -18 -12 -18 -19 0 -12 -50 -42 -57 -34 -2
2 4 17 14 34 15 27 16 33 4 44 -9 9 -12 9 -7 1 8 -14 -41 -50 -52 -38 -4 4 -1
10 6 12 16 6 15 33 -2 55 -10 13 -15 15 -24 6 -9 -9 -12 -9 -12 -1 0 19 20 26
35 13 26 -21 16 4 -15 37 -19 22 -35 30 -46 26 -14 -5 -14 -3 -3 14 10 17 9
25 -11 53 -22 31 -24 32 -31 12 -6 -15 -15 -20 -33 -18 -15 1 -29 6 -34 11 -4
4 -1 5 6 1 7 -4 12 -1 12 8 0 9 -4 16 -9 16 -14 0 -23 -32 -11 -44 12 -12 -36
-47 -55 -40 -7 3 -15 -2 -18 -10 -4 -9 -11 -16 -17 -16 -6 0 -8 4 -5 10 3 5 1
18 -4 29 -9 16 -7 19 19 23 22 3 30 0 30 -10 0 -28 15 -1 16 29 2 31 0 32 -33
19z m151 -61 c-6 -11 -24 -2 -24 11 0 5 7 7 15 4 8 -4 12 -10 9 -15z m-234 -3
c0 -3 -4 -8 -10 -11 -5 -3 -10 -1 -10 4 0 6 5 11 10 11 6 0 10 -2 10 -4z m201
-19 c-1 -12 -15 -9 -19 4 -3 6 1 10 8 8 6 -3 11 -8 11 -12z m-414 -19 c-3 -8
-6 -5 -6 6 -1 11 2 17 5 13 3 -3 4 -12 1 -19z m129 1 c3 -5 -8 -9 -25 -9 -22
0 -29 4 -25 14 5 14 40 11 50 -5z m198 3 c3 -5 -1 -9 -9 -9 -8 0 -15 4 -15 9
0 4 4 8 9 8 6 0 12 -4 15 -8z m-267 -42 c-2 -26 -57 -34 -57 -9 0 27 29 52 45
39 8 -6 13 -20 12 -30z m123 30 c0 -5 -9 -10 -21 -10 -11 0 -17 5 -14 10 3 6
13 10 21 10 8 0 14 -4 14 -10z m238 -79 c1 -30 -2 -37 -18 -38 -21 -2 -27 11
-10 22 6 3 6 15 0 29 -5 13 -6 34 -3 46 l6 22 12 -22 c6 -12 12 -39 13 -59z
m-311 63 c-3 -3 -12 -4 -19 -1 -8 3 -5 6 6 6 11 1 17 -2 13 -5z m268 -4 c3 -5
-1 -10 -9 -10 -8 0 -18 5 -21 10 -3 6 1 10 9 10 8 0 18 -4 21 -10z m-227 -33
c6 -5 12 -13 12 -18 0 -5 -6 -6 -12 -4 -57 20 -68 26 -64 34 7 10 44 3 64 -12z
m209 1 c-2 -7 0 -21 5 -31 6 -12 6 -23 -2 -31 -14 -18 6 -26 46 -19 29 6 29 6
10 -16 -11 -11 -27 -21 -36 -21 -10 0 -24 -8 -31 -17 -11 -13 -11 -15 -1 -9
10 6 13 2 10 -15 -1 -12 -9 -24 -17 -27 -8 -3 -11 0 -7 7 4 6 2 11 -3 11 -6 0
-11 -5 -11 -11 0 -5 -4 -8 -9 -5 -12 8 -20 56 -9 56 5 0 6 5 3 10 -3 6 -15 10
-26 10 -17 0 -18 3 -7 20 15 23 42 23 44 0 3 -32 5 -34 15 -17 8 13 5 25 -12
49 -20 27 -20 31 -5 25 23 -9 43 2 25 14 -12 8 -11 11 1 19 20 13 23 12 17 -2z
m93 2 c0 -5 -2 -10 -4 -10 -3 0 -8 5 -11 10 -3 6 -1 10 4 10 6 0 11 -4 11 -10z
m-150 -10 c0 -5 -2 -10 -4 -10 -3 0 -8 5 -11 10 -3 6 -1 10 4 10 6 0 11 -4 11
-10z m-254 -11 c3 -6 1 -16 -4 -21 -13 -13 -45 8 -36 23 7 12 31 11 40 -2z
m478 -10 c-6 -11 -31 -12 -37 -1 -3 4 6 8 19 8 13 1 21 -2 18 -7z m210 -13
c-3 -9 -10 -13 -15 -10 -5 3 -3 11 4 19 15 16 19 13 11 -9z m-730 -11 c-4 -8
-10 -15 -15 -15 -5 0 -9 7 -9 15 0 8 7 15 15 15 9 0 12 -6 9 -15z m656 -19 c0
-3 -4 -8 -10 -11 -5 -3 -10 -1 -10 4 0 6 5 11 10 11 6 0 10 -2 10 -4z m-640
-10 c0 -3 -4 -8 -10 -11 -5 -3 -10 -1 -10 4 0 6 5 11 10 11 6 0 10 -2 10 -4z
m540 -16 c0 -5 -5 -10 -11 -10 -5 0 -7 5 -4 10 3 6 8 10 11 10 2 0 4 -4 4 -10z
m51 -37 c-11 -5 -11 -7 0 -14 11 -7 10 -9 -3 -9 -10 0 -18 7 -18 15 0 8 8 15
18 14 12 0 13 -2 3 -6z m-371 -13 c0 -5 -5 -10 -11 -10 -5 0 -7 5 -4 10 3 6 8
10 11 10 2 0 4 -4 4 -10z m-146 -6 c25 -9 19 -24 -9 -24 -24 0 -32 10 -18 23
8 8 8 8 27 1z"/>
<path d="M1008 233 c-29 -7 -20 -28 12 -29 25 -1 28 1 19 17 -5 11 -11 18 -12
18 -1 -1 -10 -3 -19 -6z"/>
<path d="M2418 84 c-33 -17 -36 -34 -7 -34 12 0 19 5 16 13 -2 6 5 17 17 24
30 18 6 15 -26 -3z"/>
<path d="M1004 65 c-5 -12 -10 -13 -20 -4 -16 13 -18 1 -5 -20 5 -8 14 -10 21
-6 8 5 11 3 8 -6 -3 -8 -15 -13 -27 -12 -11 2 -21 -2 -21 -7 0 -15 148 -9 161
6 6 8 7 14 0 18 -5 4 -12 2 -16 -4 -7 -11 -54 15 -68 37 -11 17 -26 16 -33 -2z"/>
<path d="M2458 72 c-22 -4 -22 -11 -1 -34 14 -16 15 -18 0 -18 -9 0 -19 -5
-22 -10 -4 -6 7 -10 25 -10 25 0 31 4 26 15 -3 8 0 15 6 15 13 0 1 14 -13 16
-22 3 -23 5 -9 14 18 11 11 18 -12 12z"/>
<path d="M1607 63 c-4 -3 -7 -15 -7 -26 0 -17 5 -19 31 -13 28 5 30 4 18 -11
-12 -14 -12 -16 1 -11 21 7 19 43 -2 42 -10 -1 -18 4 -18 12 0 15 -12 19 -23
7z"/>
<path d="M2060 18 c0 -17 3 -19 9 -9 6 9 11 10 15 2 4 -6 17 -11 28 -11 19 0
19 1 -5 20 -33 26 -47 25 -47 -2z"/>
<path d="M2390 20 c14 -10 27 -16 30 -13 6 6 -30 33 -44 33 -6 0 0 -9 14 -20z"/>
<path d="M1140 15 c0 -6 16 -9 40 -7 22 2 40 5 40 7 0 2 -18 5 -40 7 -24 2
-40 -1 -40 -7z"/>
</g>
</svg>
