<?xml version="1.0" encoding="utf-8"?>
<!-- Generator: Adobe Illustrator 27.8.1, SVG Export Plug-In . SVG Version: 6.00 Build 0)  -->
<svg version="1.1" id="Layer_1" xmlns="http://www.w3.org/2000/svg" xmlns:xlink="http://www.w3.org/1999/xlink" x="0px" y="0px"
	 viewBox="0 0 246.2 84.9" style="enable-background:new 0 0 246.2 84.9;" xml:space="preserve">
<style type="text/css">
	.st0{fill:#FFFFFF;}
</style>
<path class="st0" d="M2.8,7.9c0.1-0.9-1-0.5-1.2-0.7C1.9,8.7,3.1,7.9,2.8,7.9z"/>
<polygon class="st0" points="5.6,22.4 5.1,22.1 6.3,24.2 "/>
<path class="st0" d="M5.8,35.9C7.7,34.6,5.4,31,6,28.6l0.4-0.4l-1.6-1.1C5.2,30,6.3,33.8,5.8,35.9z"/>
<path class="st0" d="M1.7,43.1c0.7-0.5,0.7,1.5,0.2-1.7c-0.1,0.1-0.1,0.2-0.2,0.3C1.7,42.2,1.7,42.7,1.7,43.1z"/>
<path class="st0" d="M1.7,41.8C1.7,40.3,1.1,42.7,1.7,41.8z"/>
<path class="st0" d="M2.2,48.3l-0.7-1.9c-0.4,0.4-0.5,2.1-0.8,1.5C1.1,49.8,1.5,49.4,2.2,48.3z"/>
<path class="st0" d="M3.7,50.1l-0.3-1C3.2,49.3,3.1,49.5,3.7,50.1z"/>
<path class="st0" d="M3.1,48.2c0.6,0.2,0-0.2-0.4-1.1l0.6,2.1C3.7,48.8,4.3,48.8,3.1,48.2z"/>
<path class="st0" d="M4.4,45.3c-0.3-3.6-1.7-3-1.3,0.5C3.4,44.8,3.7,43.5,4.4,45.3z"/>
<path class="st0" d="M7.7,36.5l0.5-1.4l-0.7-1.2C8,34.5,7.1,36.6,7.7,36.5z"/>
<path class="st0" d="M1.4,60c0.4,0.1,1.1-0.6,1.6-0.8l-0.5-1.4C2.2,58.6,2,59.9,1.4,60z"/>
<path class="st0" d="M3,59.2l0.7,2.1C3.8,59.4,3.4,59.1,3,59.2z"/>
<polygon class="st0" points="5.8,50.4 4.3,47 5.8,51 "/>
<path class="st0" d="M1.5,70.6c-0.3-0.6-0.6-1.3-1-2C1,69.9,1.5,71,2,72.1L1.5,70.6z"/>
<path class="st0" d="M1.3,84c0.1-1.3,0.2-2.6,0.5-3.9c-0.4-0.5-0.7,0.3-1,1.1S0.3,82.9,0,82.1c0.1,0.9,0.2,1.9,0.4,2.8
	c1.8-0.3,3.5-0.7,5-1.1C4.1,84.1,2.7,84.1,1.3,84z"/>
<path class="st0" d="M9.4,83c-1.1,0.2-2.5,0.5-4,0.9C6.8,83.7,8.1,83.4,9.4,83z"/>
<path class="st0" d="M2.4,67.7c0.4-0.5,0.8-1.1,1.1-1.5v-1.3C3.3,65.1,2.7,65.7,2.4,67.7z"/>
<path class="st0" d="M3.6,66.1L3.6,66.1c0,1.5-0.1,2.5-0.1,3C3.6,68.7,3.6,67.8,3.6,66.1z"/>
<path class="st0" d="M3.6,64.6c0,0.1,0,0.2,0,0.2C3.7,64.7,3.7,64.7,3.6,64.6z"/>
<path class="st0" d="M4.8,55.8c0.7,1.2,1.4,3.7,2.3,1.3C6.4,56.2,5.8,57.7,4.8,55.8z"/>
<path class="st0" d="M4.2,61.2L5,63.6l0.2-2.2C4.9,61.4,4.5,61.8,4.2,61.2z"/>
<polygon class="st0" points="5.4,64.7 5,63.6 4.9,64.4 "/>
<path class="st0" d="M4.3,80.3c-0.3,0.1-0.9-0.2-0.9,1.6h0.4c1.9-0.4,3.8-0.6,5.7-0.6C7.8,81.1,6,81,4.3,81
	C4.3,80.7,4.3,80.5,4.3,80.3z"/>
<path class="st0" d="M3.6,74.3c0,0.1,0,0.2,0.1,0.3C3.8,74.3,3.8,74.1,3.6,74.3z"/>
<polygon class="st0" points="25.2,81.3 25.1,81.1 25,81.3 "/>
<path class="st0" d="M4.5,79.8c0.2-1,0.1-2-0.5-2.9c0.1,1.1,0.2,2.3,0.2,3.4C4.5,80.3,4.6,80.2,4.5,79.8z"/>
<path class="st0" d="M15.3,82.4c-0.8-0.2-1.7-0.4-2.5-0.6C13.4,82.2,14.9,82.8,15.3,82.4z"/>
<path class="st0" d="M3.3,75.3l-0.1-0.2C3.1,75.8,3.2,75.7,3.3,75.3z"/>
<path class="st0" d="M3.3,75.3c0.1,0.6,0.4,1.1,0.7,1.6c-0.1-0.8-0.2-1.5-0.4-2.3C3.6,74.8,3.5,75.1,3.3,75.3z"/>
<path class="st0" d="M20.9,81c-0.2,0-0.2,0-0.5,0.1l-0.7,0.1l0.6,0.1c0.1,0,0.2,0,0.3,0l0.2,0.1c0.2,0.1,0.5,0.2,0.7,0.3
	c0.5,0.2,1,0.5,1.7,1c1.5-0.5,1.8-0.9,1.9-1.3l-4.4-0.1L20.9,81z"/>
<path class="st0" d="M13.3,81.1c0.9-0.5,1.9-1,2.8-1.4c0.8-0.4,1.1-0.9,0.4-1.5c-3.5,0.1-2.8,1-5.4,1.5c3.2-0.2,2.6,0,1.8,0.3
	s-2,0.7,0.3,1c-1.3,0.2-2.5,0.3-3.8,0.3c1.1,0.1,2.2,0.3,3.3,0.5l-0.1-0.1h0l0,0c-0.2-0.1-0.3-0.2,0-0.1l0.2,0
	C12.9,81.4,13.1,81.2,13.3,81.1c1.9,0.2,0.2,0.3-0.5,0.4l-0.2,0.2l0,0l7.1-0.6C17.6,81,15.4,81,13.3,81.1z"/>
<path class="st0" d="M9.7,59.3c-0.1,0.1-0.2,0.1-0.3,0.1C9.6,59.7,9.7,59.8,9.7,59.3z"/>
<path class="st0" d="M8.2,59.6c-0.3,1.3-0.9,2.5-1.7,3.5c1-0.5,1.8-1.1,2.5-2c-0.4-0.4-0.6-1-0.5-1.6c0.3-0.9,0.6,0,0.9-0.1
	c-0.3-0.6-0.9-2.1-1.4-0.2L8.2,59.6z"/>
<path class="st0" d="M6.5,63.1l-0.3,0.1C6.3,63.3,6.3,63.2,6.5,63.1z"/>
<path class="st0" d="M6.9,73.1l0.6,4.1c0.3-1.1,0.6-2.1,1-3.1l-0.6,0.6C8.1,72.1,7.4,73.1,6.9,73.1z"/>
<polygon class="st0" points="25.2,83.1 27.2,81.3 25.7,81.9 "/>
<polygon class="st0" points="30.1,82.8 31.3,82.1 30.2,81.7 "/>
<path class="st0" d="M143.1,81.3c1.5,1,3.2,2.5,3,1.3l-0.5-1.2C144.8,81.7,143.9,81.6,143.1,81.3z"/>
<path class="st0" d="M77.3,81.2c1,0.4,2.1,0.6,3.3,0.7C79,81.2,77.7,80.2,77.3,81.2z"/>
<path class="st0" d="M244.4,26.8c-0.2-0.6-0.5-0.9-0.7-0.9C243.9,26.6,244.1,27,244.4,26.8z"/>
<path class="st0" d="M80.6,81.9c1.2,0.7,2.6,0.6,3.8,0c-0.2-0.1-0.5-0.2-0.7-0.3C82.6,81.8,81.6,81.9,80.6,81.9z"/>
<path class="st0" d="M22,2c0.6-0.1,1.2-0.1,1.8-0.1C23.2,1.8,22.6,1.9,22,2z"/>
<path class="st0" d="M48.7,82.2C47.8,82.2,48.6,82.3,48.7,82.2z"/>
<path class="st0" d="M44.4,77c-0.1,0.2-0.2,0.4-0.4,0.6C44.2,77.4,44.3,77.2,44.4,77z"/>
<path class="st0" d="M47.3,81.6c0.4,0.2,0.8,0.3,1.2,0.3C48.1,81.8,47.7,81.7,47.3,81.6z"/>
<path class="st0" d="M47.5,82.2l-0.9-0.1C46.5,82.3,46.6,82.4,47.5,82.2z"/>
<path class="st0" d="M48.7,82.2l1.4-0.1c-0.5,0-1.1,0-1.6-0.1C48.7,82.1,48.8,82.1,48.7,82.2z"/>
<path class="st0" d="M243.6,46.7c0.9-0.6,2.3,0.8,2.5-1.5c0.7-1.2-3-6.7-1.3-9.8c-0.7,0.7-1.4,1.4-1.9-0.2c-0.3-2.4,2.6-6.6,0.3-8.8
	c0.2-0.3,0.4-0.4,0.5-0.4c-0.6-1.9-1-6-2.2-7.2c0.5-0.2,0.9-0.5,1.2-1c0.3-0.6,0.4-1.2,0.4-1.8c0-1.8-0.2-3.7-0.6-5.5
	c-0.6-3.5-1.3-6,0.7-8l0-0.9l-7.7,0.2l0.4-0.4c-2-0.2-4.1,0-6.1,0.4c-0.6,0.1-1.2,0.3-1.8,0.6c-0.4,0.2-0.7,0.5-1,0.7
	c-0.8-0.3-0.2-0.7-0.2-0.9c-5.4-0.8-5.9-0.6-10.4,1.4l-0.5-1.3c-1.2,0.8-7.8-2.1-13-0.5c0.1-0.3,0.3-0.5,0.6-0.6
	c-5.9,1.6-14.2-3.7-16.3,1.2l-3.9,1.2c5,0.4-0.7,2.1,1.3,2.9c-2,0.3-5.1-1.5-2.7-1.7l0.4,0.2c0.9-2.5-6.3-0.9-6.1-2.6
	c-9.9,0.1-19.6-1.2-28.9-1.3l1.1,2L145.1,3c-0.9-0.5-1.1-1.5,1.2-1.5c-1.2-1.1-3.9,0.9-3.9,1.4c-4.5-0.8,1.8-2.3,0.4-2.3l-1.9,0.1
	l0.4,0.2c-1.5,0.8-1.7,1.7-4.4,1.6c-1.8-0.4-0.9-1.2-1.6-1.3c0-0.1-0.2-0.2-1.1-0.1L130,1l1.6,1.5c-1.8,0.8-3.8-0.1-2,1.7
	c-2.8-2.7-15.3-0.9-17-1.8c-2.5,1.1-5,1.1-8.1,1c0.8,0.3,1.2,2.1-1.4,1.9c1-3.6-4.9-1.6-7.1-4.1C98,2.9,88.5,1.6,91.5,4
	c-2.2-0.3-0.1-1.3-1.8-2.2C84.4,3.3,78,1,71.4,1.4c-0.1,0.5,1,1.2-0.4,1.9L67.5,1c-1.3,0.2-1.2,2.7-3.6,1.1c0.3,0.4,0.8,1,0,1.1
	C51,1,37.6,5.2,24.5,0.9c1.8,0.9,0.6,1-0.8,1c0.9,0.2,0,1.2,0.2,1.8L18.5,2c-1,1.8-5.9,0.1-6.4,1.8l1.7-0.3c-1.3,1.1-0.2,2.3,1,3.7
	l-5.4,0l0.9,67.8l9.3,0c-0.1,0-0.1,0-0.2,0.1l0,0.6c1.2,0,2-0.4,1.4-0.7l3,0c-1.9,0.9-0.5,4.3,1.3,6.2c0.1-0.5,0.1-0.9,2.2-1.5
	c-0.8-0.6-4.8-1.3-3-2.3c2.9-0.6,2.4,0.4,3.8,0.9c-1.1-1.2,2.6-1.8,3-3.3l17.5,0c-0.1,0.2-0.1,0.3,0.1,0.5l1.6-0.2
	c1.5,1.2-3.1,1.6-1,2.2c-2.2,0.8-4.6,2.1-7.7,1.5l-0.6-1.6c0.1,0.5,2,1,2.9,0.5c-1.3,0.7-4.7-2.2-6.1-0.1l2.2,1.1
	c-2.2,0.8-4.9,2.6-7.6,2.1c1.2,1.6,0.6-0.2,2.6,1.7c-1.6-2.3,6.3-0.1,4.5-2.1c1.9,1.8,3.3,0.8,5.8,2.6c-0.1-0.5-0.9-1,1.4-0.8
	c0.1-0.2,0.3-0.3,0.5-0.5l0.2,0l-0.1-0.1c0.1-0.1,0.1-0.1,0,0c-0.5-0.2-0.9-0.4-1.2-0.8c1.1-1.3,4.8-1.2,6-1.9
	c1.4,0.3-0.6,0.6,0.2,1.2l1.8-1c0.2,1.2,3.6,2,0.4,2.7l2.9,0c1.7,0.7,3.6,0.9,5.4,0.4c1.4,0.3,3.4-1.3,2.2-0.4l4.5-0.8l0,0.3
	c4.4,0.1,9.1-2,14.2,0.1c1.8-0.5,3.7-0.6,5.5-0.3l0.5,1c1.9-0.4,5.8,1,6.6-0.1c2.1,2.8,9.3,0.6,12.7,1.1l0.1-1.4
	c2.5,0,5-0.3,7.4-0.9l-0.2-1.2c2.5-1,6.4,0.8,10.3,0.7c-0.3,0.5-1.3,0.3-2,0.1c4.7,2.7,9.9-2,14.2,0c0.8-0.4,1.8-0.4,2.6,0
	c-0.1,0-0.2,0-0.3,0.1c0.1,0,0.3,0,0.4,0c0.5,0.2,1,0.4,1.5,0.6c-0.4-0.3-0.8-0.5-1.2-0.6c1.1-0.1,2.2-0.2,3.3-0.5l0.5,1.3
	c0.1,0,0.2,0,0.3,0c1.2,0.5,1-0.6,0.3-1.6c0.6-0.2,1.1-0.4,1.6-0.8c1,2.1,3.2-0.7,4.5,1.5c0.8-1,5.4-0.9,6.5-2.7
	c1.3,0.4,2.7,0.4,3.9-0.1l0.6,1.6l3-2.2c1.8,1,2.6,1.6,0.8,2.9c4.3-2,3.5-0.7,7.2-2.7l-0.2,1.1c1.3,0,3.4-1.5,4.2-0.6
	c2.9,2,14.5,0.2,22.1,2.1c-1.5-3.1,3.5,1.4,3.8-1c0.4,0.7,1.5,1.2,0.3,1.8c3.8-0.7,5.8,1.2,8.4-0.9c0.4,0.7-0.8,1.1-0.4,1.5
	c0.3-0.2,1.2-0.6,1.6-0.2s-0.6,0.6-1.2,0.9c3.9-0.1,4.3-2.4,4.6-4.6c2,1,3,0.9,4.4-0.5c0.7,0.7,1.9,1.4-0.6,1.7
	c0.7,0.1,2.8,0.3,4.7,0.3c0.9,0,1.8,0,2.6-0.2c1-0.2,1.6-0.4,1.6-0.9c0.6,0.4,2.6,0.1,3-0.1c4.1,0.1,4.7,0.2,8.6,0.1l-1.4-0.3
	c-0.1-0.7,0.2-1,0.7-1.1c-0.1-1.2,0.5-2,0.3-4.1l0.2,0.2c0.3-1.1,0.4-2.2,0.5-3.4c0-0.5,0-1.1-0.2-1.6c-0.1-0.5-0.2-1-0.1-1.5
	c0-0.5,0.1-0.9,0.2-1.4c0.1-0.3,0.1-0.6,0.2-1l0.3-0.9l-1.3,0.3c-2.8-0.5,1.6-4.9,0.5-8.1l-0.7,1.2c-1-1.7,3.7-4.9,4-6.7
	c0.2-0.4,0.4,0.6,0.6,1.1C247.3,46.1,244,50.2,243.6,46.7z M134.8,1.7l0.6,0.3C134,2.4,134.4,2.1,134.8,1.7z M24.1,74.9l3.7,0
	C26.7,75.4,25.3,75.4,24.1,74.9z M28.6,75C28.6,74.9,28.6,74.9,28.6,75l0.3-0.1L28.6,75z M59.4,81.1L59.4,81.1
	C61.1,81.5,60.5,81.3,59.4,81.1z M72.9,78.1c-3.5,0.6-1.5-1.5-2.2-1.1c-6.6-0.4-5.7,4-11.2,2.3c-2.2-1.4-0.1-2.9-0.6-3.9
	c2.9-0.6,4.4,0.9,6.4,0.8l-2.4-0.7c1.2-0.6,2.6-0.7,3.9-0.4c-0.3-0.2-0.6-0.3-1-0.4l13.7,0C77.7,76.5,75.4,77.7,72.9,78.1z
	 M94.6,75.9c0.1-0.4-0.2-0.9-0.5-1.2l2.9,0C96.3,75.3,95.5,75.7,94.6,75.9z M113.8,78.3c-0.3-0.1-5.2-2-6.4-3
	c-0.2-0.2-0.3-0.4-0.4-0.6l3.5,0l0.1,2l0.4-2l3.4,0C114.5,75.9,114.3,77.2,113.8,78.3z M131.3,78.5l-0.8-0.9l-3.2,1
	c1.2-1.4,2.6-2.7,4-3.9l5.2,0C135.2,76.4,133.3,77.7,131.3,78.5L131.3,78.5z M158.9,77.9c0.1-0.1,0.2-0.3,0.2-0.5
	C159.2,77.8,159.5,77.9,158.9,77.9L158.9,77.9z M166.7,77c0.2-0.8,0.1-1.6,0-2.4l2.4,0L166.7,77z M218.3,76.6
	c-0.5-0.3-0.1-0.9,0.6-1.6c-0.3,0.1-0.5,0.3-0.7,0.4c-0.6-0.3-0.8-0.6-0.8-0.9h1.9l-0.5,0.5l0.9-0.5h0.8c0.5,0.4,1,0.8,1.6,1.2
	L218.3,76.6z"/>
<path class="st0" d="M38.9,82c0,0.3,0.3,0.6,0,0.7l1.9-0.3C40.1,82.5,39.4,82.3,38.9,82z"/>
<path class="st0" d="M38.9,82.7l-0.2,0C38.7,82.8,38.8,82.8,38.9,82.7z"/>
<path class="st0" d="M34,78c-0.4,1.5,1.1,1,2.7,0.5c-0.2-1.1-1.5-0.7-3-0.5L34,78z"/>
<path class="st0" d="M32,78c-0.2,0.6,0.6,0.1,1.4,0C32.9,78.1,32.5,78.1,32,78z"/>
<path class="st0" d="M51.9,81.3c-0.7-0.3-0.4,1.4-0.8,1C50.3,83.6,55.8,80.5,51.9,81.3z"/>
<polygon class="st0" points="36.8,75.1 35.5,74.9 36,76.2 "/>
<path class="st0" d="M47.2,75.8l-2.4-0.4c0,0.2-0.3,0.4-0.6,0.5C45.6,76,47.2,76.2,47.2,75.8z"/>
<path class="st0" d="M42.3,76.2c0.6,0,1.3-0.1,1.9-0.2C43.5,75.9,42.9,75.9,42.3,76.2z"/>
<path class="st0" d="M73.7,75.1c-0.6,0.3-1.6,0.5-1.2,0.9l2.6-0.4C75.4,75.2,74.7,74.9,73.7,75.1z"/>
<polygon class="st0" points="14.8,0.6 12.8,0 14.1,0.9 "/>
<path class="st0" d="M11,2.6l-0.5-1.7L9.4,2.4C9.8,2.4,10.7,2.2,11,2.6z"/>
</svg>
