<?xml version="1.0" encoding="utf-8"?>
<!-- Generator: Adobe Illustrator 27.8.1, SVG Export Plug-In . SVG Version: 6.00 Build 0)  -->
<svg version="1.1" id="Layer_1" xmlns="http://www.w3.org/2000/svg" xmlns:xlink="http://www.w3.org/1999/xlink" x="0px" y="0px"
	 viewBox="0 0 246.2 84.9" style="enable-background:new 0 0 246.2 84.9;" xml:space="preserve">
<style type="text/css">
	.st0{fill:#FF00F3;}
</style>
<polygon class="st0" points="4.7,22.4 4.3,22.2 5.4,24.3 "/>
<path class="st0" d="M7.4,35.2"/>
<path class="st0" d="M8.5,83.1"/>
<path class="st0" d="M8.6,81.4"/>
<polygon class="st0" points="24.4,81.3 24.2,81.1 24.1,81.3 "/>
<path class="st0" d="M14.4,82.5c-0.8-0.2-1.7-0.4-2.5-0.6C12.5,82.2,14,82.8,14.4,82.5z"/>
<path class="st0" d="M20,81c-0.2,0-0.2,0-0.5,0.1l-0.7,0.1l0.6,0.1c0.1,0,0.2,0,0.3,0l0.2,0.1c0.2,0.1,0.5,0.2,0.7,0.3
	c0.5,0.2,1,0.5,1.7,1c1.5-0.5,1.8-0.9,1.9-1.3l-4.4-0.1L20,81z"/>
<path class="st0" d="M12.4,81.2c0.9-0.5,1.9-1,2.8-1.4c0.8-0.4,1.1-0.9,0.4-1.5c-3.5,0.1-2.8,1-5.4,1.5c3.2-0.2,2.6,0,1.8,0.3
	C11.2,80.4,10,80.8,12.4,81.2c-1.4,0.1-2.6,0.2-3.9,0.2c1.1,0.1,2.2,0.3,3.3,0.5l-0.1-0.1l0,0l0,0c-0.2-0.1-0.3-0.2,0-0.1h0.2
	C12,81.4,12.2,81.3,12.4,81.2c1.9,0.2,0.2,0.3-0.5,0.4l-0.2,0.2l0,0l7.1-0.6C16.7,81,14.5,81,12.4,81.2z"/>
<path class="st0" d="M7.6,74.2"/>
<polygon class="st0" points="24.3,83.1 26.4,81.4 24.8,81.9 "/>
<polygon class="st0" points="29.2,82.8 30.4,82.2 29.4,81.8 "/>
<path class="st0" d="M142.2,81.4c1.5,1,3.2,2.5,3,1.3l-0.5-1.2C143.9,81.7,143,81.7,142.2,81.4z"/>
<path class="st0" d="M76.4,81.2c1,0.4,2.1,0.6,3.3,0.7C78.1,81.3,76.8,80.2,76.4,81.2z"/>
<path class="st0" d="M243.5,26.9c-0.2-0.6-0.4-0.9-0.7-0.9C243,26.7,243.2,27,243.5,26.9z"/>
<path class="st0" d="M79.7,81.9c1.2,0.7,2.6,0.6,3.8,0c-0.2-0.1-0.5-0.2-0.7-0.3C81.8,81.9,80.7,82,79.7,81.9z"/>
<path class="st0" d="M21.1,2.1C21.7,2,22.3,2,22.9,2C22.3,1.9,21.7,1.9,21.1,2.1z"/>
<path class="st0" d="M47.9,82.2C46.9,82.3,47.7,82.4,47.9,82.2z"/>
<path class="st0" d="M43.5,77.1c-0.1,0.2-0.2,0.4-0.4,0.6C43.3,77.5,43.5,77.3,43.5,77.1z"/>
<path class="st0" d="M46.4,81.7c0.4,0.2,0.8,0.3,1.2,0.3C47.2,81.9,46.8,81.8,46.4,81.7z"/>
<path class="st0" d="M46.6,82.2l-0.9-0.1C45.6,82.3,45.7,82.5,46.6,82.2z"/>
<path class="st0" d="M47.9,82.2l1.4-0.1c-0.5,0-1.1,0-1.6-0.1C47.8,82.1,47.9,82.2,47.9,82.2z"/>
<path class="st0" d="M38,82.1c0,0.3,0.3,0.6,0,0.7l1.9-0.3C39.2,82.5,38.6,82.4,38,82.1z"/>
<path class="st0" d="M38,82.8h-0.2C37.9,82.8,37.9,82.8,38,82.8z"/>
<path class="st0" d="M33.1,78c-0.4,1.5,1.1,1,2.7,0.5c-0.2-1.1-1.5-0.7-3-0.5H33.1z"/>
<path class="st0" d="M31.1,78.1c-0.2,0.6,0.6,0.1,1.4,0C32,78.1,31.6,78.1,31.1,78.1z"/>
<path class="st0" d="M51.1,81.3c-0.7-0.3-0.4,1.4-0.8,1C49.4,83.7,54.9,80.6,51.1,81.3z"/>
<polygon class="st0" points="36,75.2 34.6,74.9 35.1,76.3 "/>
<path class="st0" d="M46.3,75.9l-2.4-0.4c0,0.2-0.3,0.4-0.6,0.5C44.7,76,46.3,76.3,46.3,75.9z"/>
<path class="st0" d="M41.4,76.2c0.6,0,1.3-0.1,1.9-0.2C42.6,75.9,42,76,41.4,76.2z"/>
<path class="st0" d="M72.9,75.2c-0.6,0.3-1.6,0.5-1.2,0.9l2.6-0.4C74.5,75.2,73.8,75,72.9,75.2z"/>
<polygon class="st0" points="13.9,0.6 11.9,0.1 13.2,1 "/>
<path class="st0" d="M10.1,2.7L9.6,1L8.4,2.6C8.9,2.4,9.8,2.3,10.1,2.7z"/>
<path class="st0" d="M244.7,21.2l-1.3-3.6l0.1-10.3h-5.6c1.3-1.3,2.4-2.6,1.1-3.7l1.8,0.3c-0.6-1.8-5.6-0.1-6.6-1.9l-5.6,1.8
	c0.2-0.6-0.7-1.6,0.2-1.8c-1.4-0.1-2.6-0.2-0.8-1.1c-13.4,4.4-27.2,0.1-40.5,2.4c-0.9-0.2-0.3-0.8,0-1.2c-2.5,1.7-2.4-0.9-3.7-1.1
	l-3.6,2.4c-1.4-0.7-0.3-1.4-0.4-1.9C173.1,1,166.5,3.3,161,1.9c-1.8,0.8,0.4,1.9-1.9,2.2c3.1-2.5-6.7-1.2-4.7-2.9
	c-2.3,2.6-8.3,0.5-7.3,4.2c-2.8,0.2-2.3-1.6-1.5-1.9c-3.2,0.1-5.8,0.2-8.4-1c-1.7,0.8-14.5-0.9-17.4,1.8c2-1.8-0.1-0.9-2-1.7
	l1.7-1.6l-4.2,0.2c-0.9-0.1-1.1,0-1.1,0.1c-0.7,0.1,0.2,0.9-1.6,1.3c-2.9,0.1-3-0.8-4.6-1.6l0.6-0.2l-1.9-0.1
	c-1.4,0.1,5.1,1.6,0.4,2.4c-0.1-0.4-2.8-2.5-4.1-1.4c2.4-0.1,2.1,1,1.2,1.5l-3.3,0.1l1.1-2c-9.6,0-19.6,1.4-29.8,1.3
	c0.2,1.7-7.2,0-6.3,2.6L66.3,5c2.5,0.2-0.8,2-2.8,1.7c2.2-0.9-3.8-2.6,1.4-3l-4-1.2c-2.2-4.9-10.7,0.4-16.8-1.2
	c0.3,0.1,0.5,0.3,0.6,0.6c-5.4-1.6-12.1,1.3-13.4,0.5l-0.5,1.4c-4.6-2.1-5.2-2.2-10.7-1.4c0,0.2,0.7,0.6-0.2,0.9
	c-0.4-0.2-0.7-0.5-1.1-0.7c-0.6-0.2-1.3-0.5-1.9-0.6c-2.1-0.4-4.2-0.6-6.3-0.4L11,2L3.1,1.8v0.9c2.1,2,1.5,4.5,0.8,8.1
	c-0.4,1.8-0.6,3.6-0.6,5.5c0,0.7,0.1,1.3,0.4,1.9c0.3,0.4,0.7,0.8,1.2,1c-1.2,1.2-1.7,5.4-2.3,7.3C2.8,26.6,3,26.7,3.2,27
	c-2.3,2.2,0.6,6.4,0.3,8.9c-0.6,1.6-1.3,0.9-2,0.2c1.7,3.2-2.1,8.8-1.4,10c0.1,2.3,1.6,0.8,2.5,1.5c-0.4,3.4-3.8-0.7-2.2,4
	C0.6,51,0.8,50,1,50.4c0.3,1.8,5.1,5,4.1,6.8L4.4,56c-1.1,3.2,3.4,7.7,0.5,8.2l-1.3-0.3l0.3,1c0.1,0.4,0.1,0.7,0.2,1
	c0.1,0.4,0.2,0.9,0.2,1.4c0.1,0.6,0,1.1-0.1,1.6C4,69.4,4,70,4,70.5c0,1.1,0.2,2.3,0.6,3.4l0.2-0.2c-0.2,2.1,0.4,3,0.3,4.2
	C5.6,78,5.9,78.3,5.8,79l-1.5,0.2c4.1,0.2,4.6,0.1,9-0.1c0.4,0.2,2.4,0.5,3.1,0.1c-0.1,0.5,0.6,0.7,1.6,0.9c0.9,0.2,1.8,0.2,2.7,0.2
	c2,0,4.2-0.2,4.9-0.3c-2.5-0.3-1.4-1-0.6-1.7c1.4,1.5,2.4,1.6,4.5,0.6c0.3,2.1,0.7,4.5,4.7,4.6c-0.6-0.4-1.6-0.6-1.2-1
	c0.5-0.5,1.4,0,1.6,0.2c0.4-0.5-0.9-0.8-0.4-1.6c2.8,2.1,4.7,0.2,8.7,0.9c-1.2-0.6-0.1-1,0.6-1.9c0.3,2.4,5.4-2.2,3.9,1
	c7.8-1.8,19.7-0.1,22.7-2.1c0.8-0.9,2.9,0.6,4.3,0.6l-0.2-1.1c3.8,1.9,3,0.7,7.4,2.7c-1.8-1.3-1.1-1.9,0.8-2.9l3,2.3l0.6-1.7
	c1.3,0.5,2.7,0.5,4,0.1c1.2,1.8,5.9,1.7,6.7,2.7c1.4-2.2,3.7,0.6,4.7-1.5c0.6,0.3,1.1,0.6,1.7,0.8c-0.7,1-0.9,2.1,0.3,1.6
	c0.1,0,0.2,0,0.3,0l0.5-1.3c1.1,0.3,2.3,0.4,3.4,0.5c-0.5,0.2-0.9,0.4-1.3,0.7c0.5-0.1,1-0.4,1.5-0.6c0.1,0,0.3,0,0.4,0
	c-0.1-0.1-0.2-0.1-0.3-0.1c0.9-0.4,1.9-0.4,2.7,0c4.4-2,9.8,2.8,14.6,0c-0.7,0.2-1.7,0.4-2-0.1c4,0.2,8-1.7,10.6-0.7l-0.2,1.2
	c2.5,0.6,5,0.9,7.6,0.9l0.1,1.4c3.5-0.5,11,1.7,13.1-1.1c0.9,1.1,4.8-0.3,6.8,0.1l0.5-1.1c1.9-0.2,3.8-0.1,5.7,0.4
	c5.2-2.3,10-0.1,14.6-0.2v-0.3l4.6,0.8c-1.2-1,0.9,0.7,2.3,0.4c1.9,0.5,3.8,0.3,5.6-0.4h3c-3.3-0.8,0.2-1.6,0.4-2.8l1.9,1
	c0.8-0.6-1.2-0.9,0.2-1.2c1.3,0.7,5,0.6,6.2,1.9c-0.3,0.3-0.7,0.6-1.2,0.8c-0.1-0.1-0.1-0.1,0,0l-0.1,0.1h0.2
	c0.2,0.2,0.4,0.3,0.5,0.5c2.3-0.3,1.5,0.2,1.4,0.8c2.5-1.8,4-0.7,5.9-2.6c-1.9,2.1,6.3-0.1,4.6,2.2c2-1.9,1.3,0,2.6-1.7
	c-2.8,0.5-5.6-1.3-7.8-2.1l2.2-1.2c-1.5-2.2-5,0.8-6.3,0.1c0.8,0.5,2.8,0,2.9-0.5l-0.6,1.7c-3.2,0.6-5.7-0.7-7.9-1.5
	c2.1-0.6-2.5-1-1-2.2l1.7,0.2c0.2-0.2,0.2-0.3,0.1-0.5h18c0.4,1.5,4.2,2.1,3.1,3.3c1.5-0.5,0.9-1.5,3.9-0.9c1.9,1-2.3,1.8-3.1,2.4
	c2.2,0.7,2.2,1.1,2.3,1.6c1.8-2,3.2-5.4,1.3-6.3h3.1c-0.7,0.3,0.1,0.7,1.4,0.7v-0.6c-0.1-0.1-0.1-0.1-0.2-0.1h9.5l0.1-4.2
	c0.7-1,1.7-2.5,2.1-3.9c0.6-2.3,0-7.5,0-7.5l-1.9-3.1l0.3-10.5l2-1.5l-2-3.4l0.1-8.6v-0.1l1.2-2.9l-0.5-3.2L244.7,21.2z M29.5,75.7
	c0,0.3-0.2,0.6-0.8,0.9c-0.2-0.1-0.4-0.3-0.7-0.4c0.7,0.7,1.1,1.3,0.6,1.6l-4-0.9c0.6-0.4,1.1-0.8,1.6-1.2h0.9l1,0.5l-0.5-0.5H29.5z
	 M81.9,75.8c-0.2,0.8-0.2,1.6,0,2.4l-2.5-2.4H81.9z M89.6,78.7c0,0.2,0.1,0.4,0.2,0.5C89.2,79.2,89.5,79,89.6,78.7z M113.9,2.1
	l0.7-0.3C115,2.2,115.5,2.5,113.9,2.1z M122.2,79.9l-3.2-1l-0.8,0.9c-2.1-0.8-4-2.2-5.4-3.9h5.4C119.6,77.1,121,78.5,122.2,79.9z
	 M143.2,76c-0.1,0.2-0.2,0.4-0.4,0.6c-1.2,1-6.2,2.9-6.6,3c-0.5-1.2-0.7-2.4-0.6-3.7h3.5l0.4,2.1l0.1-2.1L143.2,76z M156.5,75.9
	c-0.3,0.3-0.6,0.8-0.5,1.2c-0.9-0.2-1.8-0.7-2.5-1.2H156.5z M192.2,82.4L192.2,82.4C191.1,82.6,190.5,82.8,192.2,82.4z M192.1,80.7
	c-5.7,1.6-4.7-2.8-11.5-2.4c-0.6-0.3,1.4,1.8-2.2,1.2c-2.5-0.5-4.9-1.6-6.8-3.4h14c-0.3,0.1-0.7,0.2-1,0.4c1.3-0.4,2.8-0.2,4,0.4
	l-2.5,0.7c2,0,3.6-1.5,6.6-0.9C192.2,77.7,194.3,79.2,192.1,80.7z M223.9,76.1h-0.3H223.9L223.9,76.1z M228.5,76.1
	c-1.2,0.6-2.6,0.6-3.8,0H228.5z"/>
</svg>
