<svg xmlns="http://www.w3.org/2000/svg" width="246.165" height="84.939" viewBox="0 0 246.165 84.939"><title>btn-splash</title><path d="M2.847,7.942c.087-.877-1.035-.547-1.24-.676C1.876,8.728,3.139,7.9,2.847,7.942Z"/><polygon points="5.595 22.36 5.132 22.11 6.286 24.226 5.595 22.36"/><path d="M5.753,35.875c1.9-1.3-.375-4.893.275-7.31l.433-.4L4.9,27.1C5.186,30.02,6.261,33.807,5.753,35.875Z"/><path d="M1.7,43.135c.741-.455.664,1.55.212-1.683a2.428,2.428,0,0,1-.185.306A11.546,11.546,0,0,1,1.7,43.135Z"/><path d="M1.724,41.758c-.073-1.422-.616.94,0,0Z"/><path d="M2.238,48.325l-.691-1.866c-.436.4-.514,2.068-.842,1.452C1.1,49.83,1.528,49.428,2.238,48.325Z"/><path d="M3.662,50.084l-.295-.968C3.185,49.289,3.124,49.547,3.662,50.084Z"/><path d="M3.14,48.173c.57.161.019-.239-.4-1.109l.623,2.052C3.674,48.841,4.3,48.8,3.14,48.173Z"/><path d="M4.358,45.348c-.31-3.583-1.653-3.037-1.337.546C3.425,44.836,3.67,43.475,4.358,45.348Z"/><path d="M7.746,36.538l.544-1.413-.66-1.208C7.957,34.521,7.146,36.633,7.746,36.538Z"/><path d="M1.4,60.017c.411.111,1.08-.645,1.6-.792l-.487-1.378C2.242,58.562,2,59.914,1.4,60.017Z"/><path d="M3,59.225l.729,2.063C3.786,59.436,3.448,59.1,3,59.225Z"/><polygon points="5.797 50.39 4.279 47.006 5.825 51.046 5.797 50.39"/><path d="M1.488,70.583Q1,69.65.517,68.612q.738,1.877,1.473,3.465Z"/><path d="M1.305,84.034a35.991,35.991,0,0,1,.474-3.921c-.4-.478-.717.321-1,1.134s-.528,1.609-.778.9a15.926,15.926,0,0,0,.414,2.794c1.814-.286,3.518-.681,5.038-1.05A18.9,18.9,0,0,1,1.305,84.034Z"/><path d="M9.412,83c-1.146.19-2.458.529-3.96.89A23.021,23.021,0,0,0,9.412,83Z"/><path d="M2.445,67.733q.564-.813,1.128-1.536V64.863C3.33,65.13,2.69,65.65,2.445,67.733Z"/><path d="M3.609,66.147l-.036.05c-.012,1.455-.021,2.464-.025,2.9C3.556,68.721,3.574,67.834,3.609,66.147Z"/><path d="M3.575,64.614c0,.092,0,.159,0,.249C3.685,64.717,3.722,64.7,3.575,64.614Z"/><path d="M4.83,55.835c.657,1.209,1.38,3.737,2.327,1.269C6.359,56.241,5.82,57.654,4.83,55.835Z"/><path d="M4.164,61.23,5,63.583l.233-2.2C4.929,61.426,4.491,61.829,4.164,61.23Z"/><polygon points="5.377 64.655 4.998 63.583 4.911 64.4 5.377 64.655"/><path d="M4.315,80.324c-.336.078-.925-.2-.945,1.613h.375A27.137,27.137,0,0,1,9.457,81.3a48.3,48.3,0,0,0-5.136-.331C4.319,80.749,4.317,80.535,4.315,80.324Z"/><path d="M3.588,74.3c.027.093.042.224.069.309C3.751,74.333,3.78,74.147,3.588,74.3Z"/><polygon points="25.246 81.275 25.06 81.067 25.018 81.265 25.246 81.275"/><path d="M4.522,79.788A3.858,3.858,0,0,0,4.07,76.9a32.748,32.748,0,0,1,.245,3.429C4.479,80.29,4.585,80.208,4.522,79.788Z"/><path d="M15.307,82.45c-.782-.239-1.654-.44-2.547-.626C13.379,82.186,14.909,82.75,15.307,82.45Z"/><path d="M3.349,75.324l-.054-.2C3.058,75.793,3.176,75.654,3.349,75.324Z"/><path d="M3.349,75.324A5.125,5.125,0,0,0,4.07,76.9,16.253,16.253,0,0,0,3.657,74.6,5.063,5.063,0,0,1,3.349,75.324Z"/><path d="M20.916,80.967c-.171.022-.25.044-.5.067L19.7,81.1l.591.08c.091.016.2.032.274.049l.176.056a6.041,6.041,0,0,1,.7.291c.479.233,1,.547,1.671.962,1.488-.523,1.8-.919,1.9-1.274l-4.408-.139Z"/><path d="M13.282,81.12A26.641,26.641,0,0,1,16.125,79.7c.8-.426,1.143-.864.444-1.489-3.491.087-2.84.974-5.4,1.482,3.162-.15,2.646.012,1.847.293s-1.993.681.274,1a38.367,38.367,0,0,1-3.831.314q1.712.207,3.3.522l-.129-.072-.034,0,.014-.019c-.235-.144-.29-.231.008-.148l.156-.024a2.219,2.219,0,0,1,.5-.439c1.872.236.2.3-.5.439l-.164.172.02.015L19.7,81.1A45.1,45.1,0,0,0,13.282,81.12Z"/><path d="M9.678,59.335a.315.315,0,0,1-.267.14C9.557,59.747,9.655,59.85,9.678,59.335Z"/><path d="M8.176,59.571a9.585,9.585,0,0,1-1.7,3.5A7.63,7.63,0,0,0,9,61.091a1.858,1.858,0,0,1-.526-1.563c.336-.875.555,0,.935-.053-.315-.6-.859-2.106-1.4-.2Z"/><path d="M6.477,63.074l-.255.13C6.256,63.267,6.35,63.21,6.477,63.074Z"/><path d="M6.9,73.062l.623,4.131q.481-1.624.962-3.075l-.594.588C8.092,72.079,7.363,73.1,6.9,73.062Z"/><polygon points="25.186 83.075 27.224 81.343 25.651 81.851 25.186 83.075"/><polygon points="30.078 82.759 31.289 82.114 30.245 81.694 30.078 82.759"/><path d="M143.076,81.329c1.515.99,3.209,2.527,3.024,1.331l-.468-1.165A4.577,4.577,0,0,1,143.076,81.329Z"/><path d="M77.3,81.162a11.954,11.954,0,0,0,3.26.7C78.981,81.192,77.711,80.19,77.3,81.162Z"/><path d="M244.387,26.849c-.22-.633-.461-.9-.721-.879C243.874,26.622,244.1,26.989,244.387,26.849Z"/><path d="M80.557,81.858a3.863,3.863,0,0,0,3.771-.012c-.23-.116-.457-.175-.691-.273A11.053,11.053,0,0,1,80.557,81.858Z"/><path d="M21.989,2.021a15.487,15.487,0,0,1,1.782-.093A4.734,4.734,0,0,0,21.989,2.021Z"/><path d="M48.731,82.163c-.974.078-.154.129,0,0Z"/><path d="M44.371,76.992a.926.926,0,0,1-.389.568A.733.733,0,0,0,44.371,76.992Z"/><path d="M47.264,81.635a6.758,6.758,0,0,0,1.247.344A7.122,7.122,0,0,0,47.264,81.635Z"/><path d="M47.463,82.187l-.853-.112C46.488,82.27,46.6,82.392,47.463,82.187Z"/><path d="M48.731,82.163l1.358-.066a7.892,7.892,0,0,1-1.578-.118C48.7,82.058,48.783,82.124,48.731,82.163Z"/><path d="M243.6,46.749c.9-.645,2.328.783,2.466-1.525.723-1.159-3.045-6.65-1.34-9.819-.693.7-1.384,1.4-1.933-.184-.283-2.436,2.567-6.63.324-8.8.189-.312.37-.432.545-.447-.6-1.857-1.029-6.047-2.244-7.154a2.284,2.284,0,0,0,1.181-1.009,3.519,3.519,0,0,0,.386-1.826,28.023,28.023,0,0,0-.576-5.455c-.632-3.54-1.292-6,.735-7.992l-.037-.932-7.672.213.435-.421a22.257,22.257,0,0,0-6.107.391,10.038,10.038,0,0,0-1.812.605,8.376,8.376,0,0,0-1.032.722c-.848-.278-.231-.662-.16-.878-5.36-.817-5.892-.641-10.379,1.415l-.47-1.331c-1.216.777-7.75-2.073-13-.507a.96.96,0,0,1,.576-.6c-5.908,1.577-14.16-3.666-16.315,1.192l-3.9,1.2c5.048.367-.747,2.108,1.33,2.91-1.983.289-5.133-1.453-2.695-1.707l.382.241c.891-2.531-6.273-.883-6.142-2.6-9.93.146-19.613-1.234-28.917-1.321L148.31,3.09l-3.246-.106c-.852-.456-1.146-1.536,1.169-1.459-1.219-1.112-3.88.941-3.946,1.37-4.534-.788,1.766-2.3.376-2.342L140.775.7l.427.229c-1.528.807-1.663,1.659-4.445,1.568-1.762-.39-.906-1.211-1.6-1.286,0-.139-.23-.2-1.063-.053L130.006,1l1.639,1.55c-1.811.769-3.845-.073-1.955,1.681-2.775-2.706-15.252-.941-16.954-1.778-2.536,1.137-5.041,1.123-8.144.993.772.321,1.237,2.066-1.44,1.858.971-3.6-4.9-1.553-7.073-4.139,1.937,1.714-7.608.44-4.57,2.874-2.234-.287-.139-1.348-1.835-2.192-5.313,1.407-11.717-.882-18.286-.4-.1.473,1,1.193-.408,1.9L67.506,1c-1.3.234-1.189,2.732-3.563,1.1.335.4.837,1-.033,1.149C51.033.965,37.611,5.186,24.529.885c1.773.913.593,1.006-.758,1.043.879.218-.018,1.168.156,1.808L18.45,1.968C17.457,3.75,12.583,2.1,12.016,3.8l1.732-.309c-1.264,1.105-.161,2.341,1.033,3.657l-5.4.012.9,67.758,9.266-.02a.754.754,0,0,0-.208.064l.022.6c1.236-.036,2.037-.4,1.367-.668l3.048-.007c-1.863.925-.51,4.276,1.287,6.175.065-.465.064-.894,2.237-1.528-.763-.58-4.828-1.349-3-2.317,2.879-.555,2.361.372,3.762.932-1.058-1.175,2.634-1.793,3.043-3.278l17.5-.038c-.107.159-.1.323.117.494l1.622-.207c1.5,1.163-3.051,1.619-.995,2.16-2.176.823-4.614,2.116-7.681,1.464L41.093,77.1c.066.481,2.006.978,2.866.473-1.276.734-4.705-2.221-6.1-.059l2.152,1.137c-2.185.833-4.883,2.589-7.6,2.075,1.24,1.625.626-.188,2.561,1.713-1.616-2.277,6.311-.095,4.508-2.143,1.858,1.837,3.29.754,5.771,2.552-.081-.543-.919-1.038,1.361-.775a2.563,2.563,0,0,1,.5-.48l.154.04-.126-.064c.1-.081.108-.1-.047-.022a2.553,2.553,0,0,1-1.163-.824c1.129-1.251,4.756-1.22,5.98-1.868,1.354.255-.564.625.176,1.2l1.829-.97c.185,1.208,3.6,2,.414,2.713l2.869.047a8.769,8.769,0,0,0,5.447.427c1.353.258,3.415-1.344,2.238-.4l4.5-.758.043.3c4.439.142,9.135-2.02,14.215.148a14.421,14.421,0,0,1,5.539-.346l.49,1.044c1.918-.37,5.766,1.032,6.588-.058,2.076,2.806,9.314.593,12.69,1.084l.125-1.364a33.581,33.581,0,0,0,7.433-.873l-.18-1.2c2.484-1,6.394.843,10.326.711-.266.461-1.264.343-1.97.066,4.7,2.713,9.908-2,14.174-.028a3.088,3.088,0,0,1,2.575.009.63.63,0,0,0-.264.063,3.358,3.358,0,0,0,.437.014c.468.206.952.447,1.476.639a5.137,5.137,0,0,0-1.242-.643,16.812,16.812,0,0,0,3.276-.484l.522,1.293c.1-.017.179-.015.282-.037,1.2.475.959-.616.319-1.588a6.413,6.413,0,0,0,1.609-.785c.974,2.088,3.192-.71,4.521,1.516.758-1.009,5.351-.866,6.54-2.655a5.787,5.787,0,0,0,3.9-.138l.579,1.645,2.959-2.22c1.8,1,2.55,1.58.765,2.851,4.312-1.957,3.5-.741,7.167-2.68l-.176,1.065c1.312-.044,3.407-1.474,4.2-.6,2.939,2.016,14.524.248,22.063,2.111-1.468-3.13,3.5,1.4,3.8-1.032.441.739,1.491,1.156.273,1.8,3.843-.737,5.78,1.162,8.43-.891.442.743-.821,1.088-.428,1.528.308-.162,1.22-.648,1.622-.206s-.562.623-1.17.947c3.928-.133,4.32-2.418,4.6-4.562,1.994,1.011,2.987.865,4.421-.544.695.7,1.852,1.431-.588,1.688.687.05,2.785.3,4.727.327a12.885,12.885,0,0,0,2.646-.186c1-.156,1.612-.421,1.6-.851.643.434,2.647.122,3.04-.078,4.148.094,4.681.247,8.615.076l-1.377-.277c-.09-.736.169-1.009.727-1.065-.116-1.169.485-2.019.3-4.133l.215.227a17.686,17.686,0,0,0,.5-3.375,6.226,6.226,0,0,0-.151-1.585,5.113,5.113,0,0,1-.11-1.531,13.859,13.859,0,0,1,.175-1.4c.053-.3.114-.627.181-1l.264-.94-1.285.317c-2.78-.477,1.571-4.909.468-8.1l-.721,1.166c-.973-1.737,3.706-4.938,4.03-6.7.237-.385.4.6.58,1.132C247.314,46.124,244.042,50.169,243.6,46.749ZM134.793,1.694l.643.339C133.987,2.409,134.393,2.07,134.793,1.694ZM24.134,74.891l3.688-.008A4.281,4.281,0,0,1,24.134,74.891Zm4.435.067a.208.208,0,0,1,.014-.076h.266Zm30.84,6.126.076-.063C61.073,81.523,60.51,81.325,59.409,81.084Zm13.479-2.937c-3.538.571-1.537-1.463-2.152-1.139-6.649-.382-5.656,3.974-11.18,2.349-2.194-1.44-.106-2.876-.593-3.917,2.882-.553,4.429.908,6.383.846l-2.408-.679a5.8,5.8,0,0,1,3.89-.435,2.868,2.868,0,0,0-.979-.372L79.5,74.771A13.434,13.434,0,0,1,72.888,78.147Zm21.745-2.233c.108-.386-.216-.864-.469-1.175l2.865-.007A7.3,7.3,0,0,1,94.633,75.914ZM113.8,78.309c-.35-.139-5.248-1.961-6.391-2.977a1.266,1.266,0,0,1-.366-.621l3.481-.008.075,2.048.412-2.049,3.412-.007A7.268,7.268,0,0,1,113.8,78.309Zm17.494.164-.79-.884L127.351,78.6a46.539,46.539,0,0,1,3.951-3.946l5.228-.012A12.448,12.448,0,0,1,131.289,78.473Zm27.621-.536a1.648,1.648,0,0,0,.216-.456C159.167,77.772,159.5,77.912,158.91,77.937Zm7.747-.965a5.589,5.589,0,0,0-.034-2.391l2.428-.005Zm51.655-.419c-.474-.281-.081-.873.559-1.592-.267.142-.519.283-.717.414-.558-.252-.769-.563-.77-.905l1.938,0-.451.5.949-.5.848,0a15.873,15.873,0,0,0,1.557,1.159Z"/><path d="M38.855,82.007c.041.26.34.617.01.728l1.894-.307A3.363,3.363,0,0,1,38.855,82.007Z"/><path d="M38.865,82.735l-.218.035A.76.76,0,0,0,38.865,82.735Z"/><path d="M33.973,77.952c-.433,1.528,1.142,1.019,2.711.513-.17-1.09-1.495-.717-2.973-.512Z"/><path d="M32,78.021c-.172.612.555.126,1.367-.031A6.085,6.085,0,0,1,32,78.021Z"/><path d="M51.932,81.261c-.7-.28-.438,1.4-.835.952C50.316,83.6,55.77,80.522,51.932,81.261Z"/><polygon points="36.838 75.131 35.478 74.873 36.011 76.219 36.838 75.131"/><path d="M47.159,75.836,44.8,75.468c.036.226-.264.359-.633.461C45.619,75.971,47.216,76.235,47.159,75.836Z"/><path d="M42.261,76.157a9.627,9.627,0,0,0,1.9-.228A4.292,4.292,0,0,0,42.261,76.157Z"/><path d="M73.743,75.092c-.617.323-1.573.5-1.177.949l2.579-.392C75.406,75.187,74.7,74.906,73.743,75.092Z"/><polygon points="14.785 0.566 12.817 0 14.089 0.917 14.785 0.566"/><path d="M11.016,2.605,10.549.862,9.372,2.444C9.816,2.365,10.677,2.212,11.016,2.605Z"/></svg>