<svg xmlns="http://www.w3.org/2000/svg" width="55.742" height="94.139" viewBox="0 0 55.742 94.139"><title>can</title><path d="M27.871,0h0A27.868,27.868,0,0,0,.132,30.555l4.078,42.1a23.772,23.772,0,0,0,23.661,21.48h0a23.772,23.772,0,0,0,23.662-21.48l4.077-42.1A27.868,27.868,0,0,0,27.871,0Zm0,86.418A16.093,16.093,0,1,1,43.964,70.326,16.093,16.093,0,0,1,27.871,86.418ZM47.459,29.089A19.66,19.66,0,0,1,27.871,47.07h0A19.66,19.66,0,0,1,8.283,29.089,19.43,19.43,0,0,1,27.642,8H28.1A19.43,19.43,0,0,1,47.459,29.089Z" fill="#231f20"/></svg>