<svg xmlns="http://www.w3.org/2000/svg" width="585.772" height="82.112" viewBox="0 0 585.772 82.112"><polygon points="458.195 36.854 458.195 36.861 458.189 36.861 458.189 32.701 458.182 32.701 458.182 29.391 458.182 29.384 458.182 25.659 458.182 21.934 454.691 21.934 454.691 18.203 454.685 18.203 454.685 18.196 451.193 18.196 451.193 18.203 451.187 18.203 451.187 18.19 451.193 18.19 451.193 14.465 449.429 14.465 449.429 14.474 416.213 14.474 416.213 18.196 416.213 18.203 412.722 18.203 412.722 21.921 412.722 21.928 412.722 21.934 412.716 21.934 412.709 21.934 409.218 21.934 409.218 25.659 409.218 32.701 409.218 36.848 409.218 36.861 405.726 36.861 405.726 40.586 405.726 40.592 405.726 44.317 405.726 44.324 405.72 44.324 405.72 48.049 405.726 48.049 405.726 51.774 409.218 51.774 409.218 51.78 409.218 55.505 409.218 59.243 409.224 59.243 412.716 59.243 412.722 59.243 412.722 59.25 412.722 62.975 412.722 66.7 412.722 66.713 412.722 70.438 416.213 70.438 416.213 74.17 416.22 74.17 419.711 74.17 419.711 77.901 423.209 77.901 423.209 81.626 423.215 81.626 426.701 81.626 426.707 81.626 426.707 81.633 426.707 81.636 440.693 81.636 440.693 81.626 440.699 81.626 444.191 81.626 444.191 77.901 444.197 77.901 447.689 77.901 447.689 74.176 447.689 74.17 447.701 74.17 451.193 74.17 451.193 70.444 451.193 70.438 451.199 70.438 454.691 70.438 454.691 66.713 454.691 66.706 454.691 62.981 454.691 62.975 454.691 59.25 454.691 59.243 454.697 59.243 458.189 59.243 458.189 55.518 458.189 51.774 458.195 51.774 461.686 51.774 461.686 48.049 461.686 48.042 461.686 44.317 461.686 44.311 461.686 40.586 461.686 40.579 461.686 36.861 461.686 36.854 458.195 36.854" fill="#fcd985"/><rect x="409.458" y="66.721" width="3.725" height="3.725" fill="#040404"/><rect x="413.189" y="70.453" width="3.725" height="3.725" fill="#040404"/><rect x="409.458" y="62.983" width="3.725" height="3.725" fill="#040404"/><rect x="409.458" y="59.258" width="3.725" height="3.725" fill="#040404"/><rect x="416.921" y="74.178" width="3.725" height="3.725" fill="#040404"/><rect x="420.646" y="77.909" width="3.725" height="3.725" fill="#040404"/><rect x="405.726" y="55.526" width="3.725" height="3.725" fill="#040404"/><rect x="405.72" y="51.788" width="3.725" height="3.725" fill="#040404"/><rect x="401.995" y="48.057" width="3.725" height="3.725" fill="#040404"/><rect x="401.988" y="44.332" width="3.725" height="3.725" fill="#040404"/><rect x="401.995" y="40.6" width="3.725" height="3.725" fill="#040404"/><rect x="401.995" y="36.869" width="3.725" height="3.725" fill="#040404"/><rect x="405.726" y="33.131" width="3.725" height="3.725" fill="#040404"/><rect x="405.726" y="29.399" width="3.725" height="3.725" fill="#040404"/><rect x="405.726" y="25.668" width="3.725" height="3.725" fill="#040404"/><rect x="409.458" y="7.016" width="3.725" height="3.725" fill="#040404"/><rect x="413.183" y="3.285" width="3.725" height="3.725" fill="#040404"/><rect x="416.921" y="3.278" width="3.725" height="3.725" fill="#040404"/><rect x="420.652" y="3.278" width="3.725" height="3.725" fill="#040404"/><rect x="424.377" y="3.278" width="3.725" height="3.725" fill="#040404"/><rect x="428.115" y="3.272" width="3.725" height="3.725" fill="#040404"/><rect x="405.726" y="36.869" width="3.725" height="3.725" fill="#ddbd77"/><rect x="405.72" y="40.594" width="3.725" height="3.725" fill="#ddbd77"/><rect x="405.726" y="44.332" width="3.725" height="3.725" fill="#ddbd77"/><rect x="405.726" y="48.063" width="3.725" height="3.725" fill="#ddbd77"/><rect x="424.384" y="77.909" width="3.725" height="3.725" fill="#040404"/><rect x="428.115" y="77.916" width="3.725" height="3.725" fill="#040404"/><rect x="431.847" y="77.916" width="3.725" height="3.725" fill="#040404"/><rect x="435.572" y="77.916" width="3.725" height="3.725" fill="#040404"/><rect x="439.304" y="77.916" width="3.725" height="3.725" fill="#040404"/><rect x="443.035" y="77.909" width="3.725" height="3.725" fill="#040404"/><rect x="416.921" y="40.6" width="3.725" height="3.725" fill="#694a21"/><rect x="420.646" y="40.6" width="3.725" height="3.725" fill="#694a21"/><rect x="424.377" y="40.6" width="3.725" height="3.725" fill="#906b4c"/><rect x="416.921" y="48.057" width="3.725" height="3.725" fill="#efc361"/><rect x="420.646" y="48.063" width="3.725" height="3.725" fill="#efc361"/><rect x="416.921" y="44.332" width="3.725" height="3.725" fill="#fff"/><rect x="424.384" y="44.325" width="3.725" height="3.725" fill="#fff"/><rect x="420.652" y="44.332" width="3.725" height="3.725" fill="#4daad6"/><rect x="428.115" y="62.983" width="3.725" height="3.725" fill="#fff"/><rect x="431.847" y="62.989" width="3.725" height="3.725" fill="#fff"/><rect x="435.572" y="62.983" width="3.725" height="3.725" fill="#fff"/><rect x="439.304" y="62.989" width="3.725" height="3.725" fill="#fff"/><rect x="424.384" y="62.983" width="3.725" height="3.725" fill="#eae9e9"/><rect x="431.847" y="48.063" width="3.725" height="3.725" fill="#efc360"/><rect x="431.847" y="51.788" width="3.725" height="3.725" fill="#efc360"/><rect x="428.109" y="55.52" width="3.725" height="3.725" fill="#e6b64b"/><rect x="431.847" y="55.52" width="3.725" height="3.725" fill="#e6b64b"/><rect x="435.579" y="55.52" width="3.725" height="3.725" fill="#e6b64b"/><rect x="409.458" y="36.862" width="3.725" height="3.725" fill="#694a21"/><rect x="409.458" y="33.131" width="3.725" height="3.725" fill="#694a21"/><rect x="409.451" y="29.406" width="3.725" height="3.725" fill="#040404"/><rect x="413.183" y="29.406" width="3.725" height="3.725" fill="#040404"/><rect x="409.458" y="25.668" width="3.725" height="3.725" fill="#040404"/><rect x="413.183" y="25.68" width="3.725" height="3.725" fill="#040404"/><rect x="416.914" y="29.406" width="3.725" height="3.725" fill="#040404"/><rect x="420.646" y="29.406" width="3.725" height="3.725" fill="#040404"/><rect x="416.914" y="25.674" width="3.725" height="3.725" fill="#040404"/><rect x="420.646" y="25.68" width="3.725" height="3.725" fill="#040404"/><rect x="424.377" y="29.406" width="3.725" height="3.725" fill="#040404"/><rect x="428.109" y="29.406" width="3.725" height="3.725" fill="#040404"/><rect x="424.377" y="25.674" width="3.725" height="3.725" fill="#040404"/><rect x="428.109" y="25.68" width="3.725" height="3.725" fill="#040404"/><rect x="416.914" y="21.942" width="3.725" height="3.725" fill="#fff"/><rect x="420.646" y="21.942" width="3.725" height="3.725" fill="#646565"/><rect x="416.914" y="18.211" width="3.725" height="3.725" fill="#646565"/><rect x="420.646" y="18.217" width="3.725" height="3.725" fill="#fff"/><rect x="424.377" y="21.942" width="3.725" height="3.725" fill="#fff"/><rect x="428.109" y="21.942" width="3.725" height="3.725" fill="#646565"/><rect x="424.377" y="18.211" width="3.725" height="3.725" fill="#fff"/><rect x="428.109" y="18.217" width="3.725" height="3.725" fill="#fff"/><rect x="431.841" y="29.399" width="3.725" height="3.725" fill="#040404"/><rect x="435.572" y="29.399" width="3.725" height="3.725" fill="#040404"/><rect x="431.841" y="25.668" width="3.725" height="3.725" fill="#040404"/><rect x="435.572" y="25.674" width="3.725" height="3.725" fill="#040404"/><rect x="431.847" y="21.936" width="3.725" height="3.725" fill="#fff"/><rect x="435.579" y="21.936" width="3.725" height="3.725" fill="#646565"/><rect x="431.847" y="18.204" width="3.725" height="3.725" fill="#646565"/><rect x="435.579" y="18.211" width="3.725" height="3.725" fill="#646565"/><rect x="439.31" y="29.406" width="3.725" height="3.725" fill="#040404"/><rect x="443.042" y="29.406" width="3.725" height="3.725" fill="#040404"/><rect x="439.31" y="25.674" width="3.725" height="3.725" fill="#040404"/><rect x="443.042" y="25.68" width="3.725" height="3.725" fill="#040404"/><rect x="439.304" y="21.942" width="3.725" height="3.725" fill="#646565"/><rect x="443.042" y="21.936" width="3.725" height="3.725" fill="#646565"/><rect x="439.304" y="18.211" width="3.725" height="3.725" fill="#646565"/><rect x="443.035" y="18.217" width="3.725" height="3.725" fill="#646565"/><rect x="446.773" y="29.406" width="3.725" height="3.725" fill="#040404"/><rect x="450.505" y="29.406" width="3.725" height="3.725" fill="#040404"/><rect x="446.773" y="25.674" width="3.725" height="3.725" fill="#646565"/><rect x="450.505" y="25.68" width="3.725" height="3.725" fill="#646565"/><rect x="446.767" y="21.942" width="3.725" height="3.725" fill="#646565"/><rect x="450.498" y="21.942" width="3.725" height="3.725" fill="#646565"/><rect x="446.767" y="18.211" width="3.725" height="3.725" fill="#646565"/><rect x="431.841" y="3.278" width="3.725" height="3.725" fill="#040404"/><rect x="435.572" y="3.278" width="3.725" height="3.725" fill="#040404"/><rect x="439.297" y="3.278" width="3.725" height="3.725" fill="#040404"/><rect x="443.035" y="3.272" width="3.725" height="3.725" fill="#040404"/><rect x="446.767" y="3.278" width="3.725" height="3.725" fill="#040404"/><rect x="450.511" y="3.285" width="3.725" height="3.725" fill="#040404"/><rect x="454.236" y="7.016" width="3.725" height="3.725" fill="#040404"/><rect x="457.961" y="33.131" width="3.725" height="3.725" fill="#040404"/><rect x="457.961" y="29.399" width="3.725" height="3.725" fill="#040404"/><rect x="457.961" y="25.668" width="3.725" height="3.725" fill="#040404"/><rect x="457.968" y="55.526" width="3.725" height="3.725" fill="#040404"/><rect x="457.961" y="51.788" width="3.725" height="3.725" fill="#040404"/><rect x="454.236" y="66.721" width="3.725" height="3.725" fill="#040404"/><rect x="454.236" y="62.989" width="3.725" height="3.725" fill="#040404"/><rect x="454.236" y="59.258" width="3.725" height="3.725" fill="#040404"/><rect x="450.505" y="70.453" width="3.725" height="3.725" fill="#040404"/><rect x="446.767" y="74.184" width="3.725" height="3.725" fill="#040404"/><rect x="461.699" y="48.057" width="3.725" height="3.725" fill="#040404"/><rect x="461.699" y="44.325" width="3.725" height="3.725" fill="#040404"/><rect x="461.699" y="40.594" width="3.725" height="3.725" fill="#040404"/><rect x="461.699" y="36.862" width="3.725" height="3.725" fill="#040404"/><rect x="454.23" y="29.399" width="3.725" height="3.725" fill="#040404"/><rect x="454.236" y="25.674" width="3.725" height="3.725" fill="#646565"/><rect x="454.236" y="36.862" width="3.725" height="3.725" fill="#9b7658"/><rect x="454.23" y="33.137" width="3.725" height="3.725" fill="#9b7658"/><rect x="457.961" y="44.325" width="3.725" height="3.725" fill="#efc361"/><rect x="457.968" y="48.057" width="3.725" height="3.725" fill="#efc361"/><rect x="439.31" y="44.332" width="3.725" height="3.725" fill="#fff"/><rect x="446.773" y="44.325" width="3.725" height="3.725" fill="#fff"/><rect x="443.042" y="44.332" width="3.725" height="3.725" fill="#4daad6"/><rect x="439.31" y="40.6" width="3.725" height="3.725" fill="#694a21"/><rect x="443.035" y="40.6" width="3.725" height="3.725" fill="#9b7658"/><rect x="446.767" y="40.6" width="3.725" height="3.725" fill="#694a21"/><rect x="401.988" y="29.406" width="3.725" height="3.725" fill="#040404"/><rect x="401.988" y="25.674" width="3.725" height="3.725" fill="#040404"/><rect x="405.72" y="21.936" width="3.725" height="3.725" fill="#040404"/><rect x="405.72" y="18.204" width="3.725" height="3.725" fill="#040404"/><rect x="405.72" y="14.479" width="3.725" height="3.725" fill="#040404"/><rect x="405.72" y="10.748" width="3.725" height="3.725" fill="#040404"/><rect x="457.961" y="21.936" width="3.725" height="3.725" fill="#040404"/><rect x="457.961" y="18.204" width="3.725" height="3.725" fill="#040404"/><rect x="457.961" y="14.473" width="3.725" height="3.725" fill="#040404"/><rect x="457.968" y="10.748" width="3.725" height="3.725" fill="#040404"/><rect x="409.451" y="21.936" width="3.725" height="3.725" fill="#646565"/><rect x="413.183" y="21.936" width="3.725" height="3.725" fill="#646565"/><rect x="409.451" y="18.204" width="3.725" height="3.725" fill="#646565"/><rect x="413.183" y="18.211" width="3.725" height="3.725" fill="#646565"/><rect x="454.236" y="21.942" width="3.725" height="3.725" fill="#646565"/><rect x="450.505" y="18.204" width="3.725" height="3.725" fill="#646565"/><rect x="454.23" y="18.211" width="3.725" height="3.725" fill="#646565"/><rect x="416.914" y="14.479" width="3.725" height="3.725" fill="#fff"/><rect x="420.646" y="14.479" width="3.725" height="3.725" fill="#fff"/><rect x="416.914" y="10.748" width="3.725" height="3.725" fill="#646565"/><rect x="420.646" y="10.754" width="3.725" height="3.725" fill="#fff"/><rect x="424.377" y="14.479" width="3.725" height="3.725" fill="#646565"/><rect x="428.109" y="14.479" width="3.725" height="3.725" fill="#fff"/><rect x="424.377" y="10.748" width="3.725" height="3.725" fill="#fff"/><rect x="428.109" y="10.754" width="3.725" height="3.725" fill="#fff"/><rect x="431.847" y="14.473" width="3.725" height="3.725" fill="#fff"/><rect x="435.579" y="14.473" width="3.725" height="3.725" fill="#646565"/><rect x="431.847" y="10.741" width="3.725" height="3.725" fill="#646565"/><rect x="435.579" y="10.748" width="3.725" height="3.725" fill="#646565"/><rect x="439.304" y="14.479" width="3.725" height="3.725" fill="#646565"/><rect x="443.042" y="14.473" width="3.725" height="3.725" fill="#646565"/><rect x="439.304" y="10.748" width="3.725" height="3.725" fill="#646565"/><rect x="443.035" y="10.754" width="3.725" height="3.725" fill="#646565"/><rect x="446.767" y="14.479" width="3.725" height="3.725" fill="#646565"/><rect x="450.498" y="14.479" width="3.725" height="3.725" fill="#646565"/><rect x="446.767" y="10.748" width="3.725" height="3.725" fill="#646565"/><rect x="409.451" y="14.473" width="3.725" height="3.725" fill="#646565"/><rect x="413.183" y="14.473" width="3.725" height="3.725" fill="#646565"/><rect x="409.451" y="10.741" width="3.725" height="3.725" fill="#646565"/><rect x="413.183" y="10.748" width="3.725" height="3.725" fill="#646565"/><rect x="454.236" y="14.479" width="3.725" height="3.725" fill="#646565"/><rect x="450.505" y="10.741" width="3.725" height="3.725" fill="#646565"/><rect x="454.23" y="10.748" width="3.725" height="3.725" fill="#646565"/><rect x="383.337" y="29.399" width="3.725" height="3.725" fill="#040404"/><rect x="387.062" y="29.406" width="3.725" height="3.725" fill="#040404"/><rect x="390.794" y="29.406" width="3.725" height="3.725" fill="#040404"/><rect x="387.068" y="25.668" width="3.725" height="3.725" fill="#040404"/><rect x="390.794" y="25.68" width="3.725" height="3.725" fill="#040404"/><rect x="394.525" y="29.406" width="3.725" height="3.725" fill="#040404"/><rect x="398.257" y="29.406" width="3.725" height="3.725" fill="#040404"/><rect x="394.525" y="25.674" width="3.725" height="3.725" fill="#040404"/><rect x="398.257" y="25.68" width="3.725" height="3.725" fill="#040404"/><rect x="416.914" y="7.016" width="3.725" height="3.725" fill="#fff"/><rect x="420.646" y="7.023" width="3.725" height="3.725" fill="#646565"/><rect x="424.377" y="7.016" width="3.725" height="3.725" fill="#fff"/><rect x="428.109" y="7.023" width="3.725" height="3.725" fill="#646565"/><rect x="431.847" y="7.01" width="3.725" height="3.725" fill="#fff"/><rect x="435.579" y="7.016" width="3.725" height="3.725" fill="#646565"/><rect x="439.304" y="7.016" width="3.725" height="3.725" fill="#646565"/><rect x="443.035" y="7.023" width="3.725" height="3.725" fill="#646565"/><rect x="446.767" y="7.016" width="3.725" height="3.725" fill="#646565"/><rect x="413.183" y="7.016" width="3.725" height="3.725" fill="#646565"/><rect x="450.505" y="7.01" width="3.725" height="3.725" fill="#646565"/><polygon points="55.98 30.801 55.98 30.807 55.973 30.807 55.973 26.648 55.967 26.648 55.967 23.338 55.967 23.331 55.967 19.606 55.967 15.881 52.242 15.881 52.242 12.149 52.235 12.149 52.235 12.143 48.51 12.143 48.51 12.149 48.504 12.149 48.504 12.136 48.51 12.136 48.51 8.411 44.785 8.411 44.785 8.418 44.779 8.418 44.779 8.411 41.054 8.411 41.054 8.418 41.041 8.418 41.041 8.405 41.041 4.686 41.041 4.68 37.316 4.68 37.316 4.686 37.309 4.686 33.584 4.686 33.577 4.686 29.852 4.686 29.852 4.68 26.127 4.68 26.127 4.686 26.114 4.686 22.389 4.686 18.664 4.686 18.664 8.411 18.664 8.418 18.658 8.418 14.933 8.418 14.92 8.418 11.195 8.418 11.195 12.143 11.195 12.149 7.47 12.149 7.47 15.868 7.47 15.874 7.47 15.881 7.463 15.881 7.457 15.881 3.732 15.881 3.732 19.606 3.732 26.648 3.732 30.794 3.732 30.807 0.006 30.807 0.006 34.532 0.006 34.539 0.006 38.264 0.006 38.27 0 38.27 0 41.995 0.006 41.995 0.006 45.72 3.732 45.72 3.732 45.727 3.732 49.452 3.732 53.19 3.738 53.19 7.463 53.19 7.47 53.19 7.47 53.196 7.47 56.922 7.47 60.647 7.47 60.66 7.47 64.385 11.195 64.385 11.195 68.116 11.201 68.116 14.926 68.116 14.926 71.848 18.658 71.848 18.658 75.573 18.664 75.573 22.383 75.573 22.389 75.573 22.389 75.579 22.389 79.317 26.127 79.317 29.852 79.317 29.859 79.317 33.584 79.317 37.309 79.317 37.309 75.592 37.309 75.573 37.316 75.573 41.041 75.573 41.041 71.848 41.047 71.848 44.772 71.848 44.772 68.123 44.772 68.116 44.785 68.116 48.51 68.116 48.51 64.391 48.51 64.385 48.517 64.385 52.242 64.385 52.242 60.66 52.242 60.653 52.242 56.928 52.242 56.922 52.242 53.196 52.242 53.19 52.248 53.19 55.973 53.19 55.973 49.465 55.973 45.72 55.98 45.72 59.705 45.72 59.705 41.995 59.705 41.989 59.705 38.264 59.705 38.257 59.705 34.532 59.705 34.526 59.705 30.807 59.705 30.801 55.98 30.801" fill="#fcd985"/><rect x="7.558" y="60.63" width="3.725" height="3.725" fill="#040404"/><rect x="11.289" y="64.361" width="3.725" height="3.725" fill="#040404"/><rect x="7.558" y="56.892" width="3.725" height="3.725" fill="#040404"/><rect x="7.558" y="53.167" width="3.725" height="3.725" fill="#040404"/><rect x="15.021" y="68.086" width="3.725" height="3.725" fill="#040404"/><rect x="18.746" y="71.818" width="3.725" height="3.725" fill="#040404"/><rect x="3.826" y="49.435" width="3.725" height="3.725" fill="#040404"/><rect x="3.82" y="45.697" width="3.725" height="3.725" fill="#040404"/><rect x="0.094" y="41.966" width="3.725" height="3.725" fill="#040404"/><rect x="0.088" y="38.241" width="3.725" height="3.725" fill="#040404"/><rect x="0.094" y="34.509" width="3.725" height="3.725" fill="#040404"/><rect x="0.094" y="30.777" width="3.725" height="3.725" fill="#040404"/><rect x="3.826" y="27.039" width="3.725" height="3.725" fill="#040404"/><rect x="3.826" y="23.308" width="3.725" height="3.725" fill="#040404"/><rect x="3.826" y="19.576" width="3.725" height="3.725" fill="#040404"/><rect x="7.558" y="12.12" width="3.725" height="3.725" fill="#040404"/><rect x="11.283" y="8.388" width="3.725" height="3.725" fill="#040404"/><rect x="15.021" y="8.388" width="3.725" height="3.725" fill="#040404"/><rect x="18.752" y="4.657" width="3.725" height="3.725" fill="#040404"/><rect x="22.477" y="4.657" width="3.725" height="3.725" fill="#040404"/><rect x="26.215" y="4.65" width="3.725" height="3.725" fill="#040404"/><rect x="3.826" y="30.777" width="3.725" height="3.725" fill="#ddbd77"/><rect x="3.82" y="34.503" width="3.725" height="3.725" fill="#ddbd77"/><rect x="3.826" y="38.241" width="3.725" height="3.725" fill="#ddbd77"/><rect x="3.826" y="41.972" width="3.725" height="3.725" fill="#ddbd77"/><rect x="7.558" y="49.429" width="3.725" height="3.725" fill="#4f3b22"/><rect x="11.289" y="53.16" width="3.725" height="3.725" fill="#4f3b22"/><rect x="11.289" y="56.892" width="3.725" height="3.725" fill="#4f3b22"/><rect x="11.289" y="60.623" width="3.725" height="3.725" fill="#4f3b22"/><rect x="15.021" y="64.355" width="3.725" height="3.725" fill="#4f3b22"/><rect x="18.746" y="68.086" width="3.725" height="3.725" fill="#765030"/><rect x="18.752" y="56.898" width="3.725" height="3.725" fill="#765030"/><rect x="18.752" y="60.63" width="3.725" height="3.725" fill="#765030"/><rect x="18.752" y="64.355" width="3.725" height="3.725" fill="#765030"/><rect x="26.215" y="64.355" width="3.725" height="3.725" fill="#765030"/><rect x="26.215" y="60.623" width="3.725" height="3.725" fill="#fff"/><rect x="29.94" y="60.63" width="3.725" height="3.725" fill="#fff"/><rect x="29.94" y="64.361" width="3.725" height="3.725" fill="#765030"/><rect x="22.484" y="68.093" width="3.725" height="3.725" fill="#765030"/><rect x="26.215" y="68.093" width="3.725" height="3.725" fill="#765030"/><rect x="29.94" y="68.086" width="3.725" height="3.725" fill="#765030"/><rect x="22.484" y="75.556" width="3.725" height="3.725" fill="#040404"/><rect x="26.215" y="75.563" width="3.725" height="3.725" fill="#040404"/><rect x="29.947" y="75.563" width="3.725" height="3.725" fill="#040404"/><rect x="33.672" y="75.563" width="3.725" height="3.725" fill="#040404"/><rect x="37.403" y="71.818" width="3.725" height="3.725" fill="#040404"/><rect x="15.021" y="34.509" width="3.725" height="3.725" fill="#694a21"/><rect x="18.746" y="34.509" width="3.725" height="3.725" fill="#694a21"/><rect x="22.477" y="34.509" width="3.725" height="3.725" fill="#8f6a4c"/><rect x="15.021" y="41.966" width="3.725" height="3.725" fill="#efc361"/><rect x="18.746" y="41.972" width="3.725" height="3.725" fill="#efc361"/><rect x="15.021" y="38.241" width="3.725" height="3.725" fill="#fff"/><rect x="22.484" y="38.234" width="3.725" height="3.725" fill="#fff"/><rect x="18.752" y="38.241" width="3.725" height="3.725" fill="#4daad6"/><rect x="22.484" y="53.16" width="3.725" height="3.725" fill="#765030"/><rect x="26.215" y="53.16" width="3.725" height="3.725" fill="#765030"/><rect x="29.947" y="53.167" width="3.725" height="3.725" fill="#765030"/><rect x="33.672" y="53.16" width="3.725" height="3.725" fill="#765030"/><rect x="33.678" y="68.086" width="3.725" height="3.725" fill="#765030"/><rect x="37.41" y="68.086" width="3.725" height="3.725" fill="#83603d"/><rect x="37.41" y="64.355" width="3.725" height="3.725" fill="#83603d"/><rect x="37.41" y="60.63" width="3.725" height="3.725" fill="#765030"/><rect x="37.41" y="56.892" width="3.725" height="3.725" fill="#765030"/><rect x="26.215" y="56.892" width="3.725" height="3.725" fill="#fff"/><rect x="29.947" y="56.898" width="3.725" height="3.725" fill="#fff"/><rect x="33.672" y="56.892" width="3.725" height="3.725" fill="#fff"/><rect x="22.484" y="56.892" width="3.725" height="3.725" fill="#eae9e9"/><rect x="22.484" y="49.429" width="3.725" height="3.725" fill="#efc461"/><rect x="26.209" y="45.697" width="3.725" height="3.725" fill="#efc461"/><rect x="26.215" y="41.972" width="3.725" height="3.725" fill="#efc461"/><rect x="7.558" y="30.771" width="3.725" height="3.725" fill="#4f3c23"/><rect x="7.558" y="27.039" width="3.725" height="3.725" fill="#4f3c23"/><rect x="11.289" y="27.046" width="3.725" height="3.725" fill="#83603d"/><rect x="7.551" y="23.314" width="3.725" height="3.725" fill="#765131"/><rect x="11.283" y="23.314" width="3.725" height="3.725" fill="#83603d"/><rect x="7.551" y="19.583" width="3.725" height="3.725" fill="#765131"/><rect x="11.283" y="19.589" width="3.725" height="3.725" fill="#83603d"/><rect x="15.014" y="23.314" width="3.725" height="3.725" fill="#83603d"/><rect x="15.014" y="19.583" width="3.725" height="3.725" fill="#83603d"/><rect x="18.746" y="19.589" width="3.725" height="3.725" fill="#83603d"/><rect x="22.477" y="19.583" width="3.725" height="3.725" fill="#765131"/><rect x="15.014" y="12.12" width="3.725" height="3.725" fill="#765131"/><rect x="18.746" y="12.12" width="3.725" height="3.725" fill="#765131"/><rect x="18.746" y="8.395" width="3.725" height="3.725" fill="#765131"/><rect x="22.477" y="12.12" width="3.725" height="3.725" fill="#765131"/><rect x="26.209" y="12.12" width="3.725" height="3.725" fill="#765131"/><rect x="22.477" y="8.388" width="3.725" height="3.725" fill="#765131"/><rect x="26.209" y="8.395" width="3.725" height="3.725" fill="#977154"/><rect x="33.678" y="38.234" width="3.725" height="3.725" fill="#fff"/><rect x="33.678" y="34.509" width="3.725" height="3.725" fill="#694a21"/><rect x="29.94" y="19.576" width="3.725" height="3.725" fill="#83603d"/><rect x="29.947" y="12.113" width="3.725" height="3.725" fill="#765131"/><rect x="33.678" y="12.113" width="3.725" height="3.725" fill="#765131"/><rect x="29.947" y="8.382" width="3.725" height="3.725" fill="#977154"/><rect x="33.678" y="8.388" width="3.725" height="3.725" fill="#977154"/><rect x="37.41" y="12.113" width="3.725" height="3.725" fill="#765131"/><rect x="37.403" y="8.395" width="3.725" height="3.725" fill="#977154"/><rect x="41.142" y="19.583" width="3.725" height="3.725" fill="#83603d"/><rect x="44.873" y="19.589" width="3.725" height="3.725" fill="#83603d"/><rect x="41.135" y="12.12" width="3.725" height="3.725" fill="#977154"/><rect x="44.867" y="12.12" width="3.725" height="3.725" fill="#977154"/><rect x="29.94" y="4.657" width="3.725" height="3.725" fill="#040404"/><rect x="33.672" y="4.657" width="3.725" height="3.725" fill="#040404"/><rect x="37.403" y="4.65" width="3.725" height="3.725" fill="#040404"/><rect x="41.142" y="8.382" width="3.725" height="3.725" fill="#040404"/><rect x="44.873" y="8.382" width="3.725" height="3.725" fill="#040404"/><rect x="48.598" y="12.113" width="3.725" height="3.725" fill="#040404"/><rect x="52.33" y="27.039" width="3.725" height="3.725" fill="#040404"/><rect x="52.33" y="23.308" width="3.725" height="3.725" fill="#040404"/><rect x="52.33" y="19.576" width="3.725" height="3.725" fill="#040404"/><rect x="52.336" y="49.435" width="3.725" height="3.725" fill="#040404"/><rect x="52.33" y="45.697" width="3.725" height="3.725" fill="#040404"/><rect x="48.605" y="60.63" width="3.725" height="3.725" fill="#040404"/><rect x="48.605" y="56.898" width="3.725" height="3.725" fill="#040404"/><rect x="48.605" y="53.167" width="3.725" height="3.725" fill="#040404"/><rect x="44.873" y="64.361" width="3.725" height="3.725" fill="#040404"/><rect x="41.135" y="68.093" width="3.725" height="3.725" fill="#040404"/><rect x="41.135" y="64.361" width="3.725" height="3.725" fill="#83603d"/><rect x="44.867" y="60.63" width="3.725" height="3.725" fill="#83603d"/><rect x="44.873" y="56.898" width="3.725" height="3.725" fill="#83603d"/><rect x="48.598" y="49.435" width="3.725" height="3.725" fill="#83603d"/><rect x="44.867" y="53.167" width="3.725" height="3.725" fill="#83603d"/><rect x="56.068" y="41.966" width="3.725" height="3.725" fill="#040404"/><rect x="56.068" y="38.234" width="3.725" height="3.725" fill="#040404"/><rect x="56.068" y="34.503" width="3.725" height="3.725" fill="#040404"/><rect x="56.068" y="30.771" width="3.725" height="3.725" fill="#040404"/><rect x="48.598" y="23.308" width="3.725" height="3.725" fill="#977154"/><rect x="48.605" y="19.583" width="3.725" height="3.725" fill="#977154"/><rect x="48.605" y="30.771" width="3.725" height="3.725" fill="#977154"/><rect x="11.289" y="12.12" width="3.725" height="3.725" fill="#765131"/><rect x="48.598" y="27.046" width="3.725" height="3.725" fill="#977154"/><rect x="52.33" y="38.234" width="3.725" height="3.725" fill="#efc361"/><rect x="52.336" y="41.966" width="3.725" height="3.725" fill="#efc361"/><rect x="41.142" y="38.234" width="3.725" height="3.725" fill="#fff"/><rect x="37.41" y="38.241" width="3.725" height="3.725" fill="#4daad6"/><rect x="37.403" y="34.509" width="3.725" height="3.725" fill="#694a21"/><rect x="41.135" y="34.509" width="3.725" height="3.725" fill="#9b7557"/><rect x="22.477" y="71.825" width="3.725" height="3.725" fill="#765030"/><rect x="26.209" y="71.825" width="3.725" height="3.725" fill="#765030"/><rect x="29.934" y="71.818" width="3.725" height="3.725" fill="#765030"/><rect x="33.678" y="71.818" width="3.725" height="3.725" fill="#83603d"/><rect x="3.82" y="15.851" width="3.725" height="3.725" fill="#040404"/><rect x="52.33" y="15.851" width="3.725" height="3.725" fill="#040404"/><rect x="7.551" y="15.851" width="3.725" height="3.725" fill="#765131"/><rect x="11.283" y="15.858" width="3.725" height="3.725" fill="#765131"/><rect x="15.014" y="15.851" width="3.725" height="3.725" fill="#765131"/><rect x="18.746" y="15.858" width="3.725" height="3.725" fill="#83603d"/><rect x="22.477" y="15.851" width="3.725" height="3.725" fill="#83603d"/><rect x="26.209" y="15.858" width="3.725" height="3.725" fill="#765131"/><rect x="29.94" y="15.845" width="3.725" height="3.725" fill="#83603d"/><rect x="33.672" y="15.851" width="3.725" height="3.725" fill="#83603d"/><rect x="41.142" y="15.851" width="3.725" height="3.725" fill="#765131"/><rect x="44.873" y="15.858" width="3.725" height="3.725" fill="#977154"/><rect x="48.605" y="15.851" width="3.725" height="3.725" fill="#977154"/><polygon points="187.512 33.595 187.512 33.602 187.506 33.602 187.506 29.442 187.499 29.442 187.499 26.132 187.499 26.125 187.499 22.4 187.499 18.675 183.774 18.675 183.774 14.944 183.768 14.944 183.768 14.937 180.042 14.937 180.042 14.944 180.036 14.944 180.036 14.931 180.042 14.931 180.042 11.206 176.317 11.206 176.317 11.212 176.311 11.212 176.311 11.206 172.586 11.206 172.586 11.212 172.573 11.212 172.573 11.199 172.573 7.481 172.573 7.474 168.848 7.474 168.848 7.481 168.841 7.481 165.116 7.481 165.11 7.481 161.385 7.481 161.385 7.474 157.66 7.474 157.66 7.481 157.647 7.481 153.922 7.481 150.197 7.481 150.197 11.206 150.197 11.212 150.19 11.212 146.465 11.212 146.452 11.212 142.727 11.212 142.727 14.937 142.727 14.944 139.002 14.944 139.002 18.662 139.002 18.669 139.002 18.675 138.995 18.675 138.989 18.675 135.264 18.675 135.264 22.4 135.264 29.442 135.264 33.589 135.264 33.602 131.539 33.602 131.539 37.327 131.539 37.333 131.539 41.058 131.539 41.065 131.532 41.065 131.532 44.79 131.539 44.79 131.539 48.515 135.264 48.515 135.264 48.521 135.264 52.246 135.264 55.984 135.27 55.984 138.995 55.984 139.002 55.984 139.002 55.991 139.002 59.716 139.002 63.441 139.002 63.454 139.002 67.179 142.727 67.179 142.727 70.911 142.733 70.911 146.458 70.911 146.458 74.642 150.19 74.642 150.19 78.367 150.197 78.367 153.915 78.367 153.922 78.367 153.922 78.374 153.922 82.112 157.66 82.112 161.385 82.112 161.391 82.112 165.116 82.112 168.841 82.112 168.841 78.387 168.841 78.367 168.848 78.367 172.573 78.367 172.573 74.642 172.579 74.642 176.304 74.642 176.304 70.917 176.304 70.911 176.317 70.911 180.042 70.911 180.042 67.185 180.042 67.179 180.049 67.179 183.774 67.179 183.774 63.454 183.774 63.447 183.774 59.722 183.774 59.716 183.774 55.991 183.774 55.984 183.78 55.984 187.506 55.984 187.506 52.259 187.506 48.515 187.512 48.515 191.237 48.515 191.237 44.79 191.237 44.783 191.237 41.058 191.237 41.052 191.237 37.327 191.237 37.32 191.237 33.602 191.237 33.595 187.512 33.595" fill="#fcd985"/><rect x="139.015" y="63.451" width="3.725" height="3.725" fill="#040404"/><rect x="139.015" y="59.713" width="3.725" height="3.725" fill="#040404"/><rect x="139.015" y="55.988" width="3.725" height="3.725" fill="#040404"/><rect x="142.746" y="70.914" width="3.725" height="3.725" fill="#040404"/><rect x="150.203" y="74.639" width="3.725" height="3.725" fill="#040404"/><rect x="135.283" y="52.256" width="3.725" height="3.725" fill="#040404"/><rect x="135.277" y="48.518" width="3.725" height="3.725" fill="#040404"/><rect x="131.552" y="44.786" width="3.725" height="3.725" fill="#040404"/><rect x="131.545" y="41.061" width="3.725" height="3.725" fill="#040404"/><rect x="131.552" y="37.33" width="3.725" height="3.725" fill="#040404"/><rect x="131.552" y="33.598" width="3.725" height="3.725" fill="#040404"/><rect x="135.283" y="29.86" width="3.725" height="3.725" fill="#040404"/><rect x="135.283" y="26.129" width="3.725" height="3.725" fill="#040404"/><rect x="135.283" y="22.397" width="3.725" height="3.725" fill="#040404"/><rect x="139.015" y="14.941" width="3.725" height="3.725" fill="#040404"/><rect x="142.74" y="7.484" width="3.725" height="3.725" fill="#040404"/><rect x="146.478" y="3.752" width="3.725" height="3.725" fill="#040404"/><rect x="150.209" y="3.752" width="3.725" height="3.725" fill="#040404"/><rect x="153.935" y="3.752" width="3.725" height="3.725" fill="#040404"/><rect x="157.673" y="3.746" width="3.725" height="3.725" fill="#040404"/><rect x="135.283" y="33.598" width="3.725" height="3.725" fill="#ddbd77"/><rect x="135.277" y="37.323" width="3.725" height="3.725" fill="#ddbd77"/><rect x="135.283" y="41.061" width="3.725" height="3.725" fill="#ddbd77"/><rect x="135.283" y="44.793" width="3.725" height="3.725" fill="#ddbd77"/><rect x="142.746" y="59.713" width="3.725" height="3.725" fill="#946f55"/><rect x="142.746" y="63.444" width="3.725" height="3.725" fill="#946f55"/><rect x="146.478" y="67.176" width="3.725" height="3.725" fill="#946f55"/><rect x="150.203" y="70.907" width="3.725" height="3.725" fill="#a57c5c"/><rect x="146.478" y="63.444" width="3.725" height="3.725" fill="#946f55"/><rect x="150.209" y="59.719" width="3.725" height="3.725" fill="#946f55"/><rect x="150.209" y="63.451" width="3.725" height="3.725" fill="#a57c5c"/><rect x="150.209" y="67.176" width="3.725" height="3.725" fill="#a57c5c"/><rect x="153.941" y="67.182" width="3.725" height="3.725" fill="#946f55"/><rect x="157.673" y="67.176" width="3.725" height="3.725" fill="#a57c5c"/><rect x="157.673" y="63.444" width="3.725" height="3.725" fill="#fff"/><rect x="161.398" y="63.451" width="3.725" height="3.725" fill="#fff"/><rect x="161.398" y="67.182" width="3.725" height="3.725" fill="#946f55"/><rect x="153.941" y="70.914" width="3.725" height="3.725" fill="#946f55"/><rect x="157.673" y="70.914" width="3.725" height="3.725" fill="#a57c5c"/><rect x="161.398" y="70.907" width="3.725" height="3.725" fill="#a57c5c"/><rect x="153.941" y="78.377" width="3.725" height="3.725" fill="#040404"/><rect x="157.673" y="78.383" width="3.725" height="3.725" fill="#040404"/><rect x="161.404" y="78.383" width="3.725" height="3.725" fill="#040404"/><rect x="165.129" y="78.383" width="3.725" height="3.725" fill="#040404"/><rect x="168.861" y="74.639" width="3.725" height="3.725" fill="#040404"/><rect x="146.478" y="37.33" width="3.725" height="3.725" fill="#765744"/><rect x="150.203" y="37.33" width="3.725" height="3.725" fill="#765744"/><rect x="153.935" y="37.33" width="3.725" height="3.725" fill="#765744"/><rect x="146.478" y="44.786" width="3.725" height="3.725" fill="#efc361"/><rect x="150.203" y="44.793" width="3.725" height="3.725" fill="#efc361"/><rect x="146.478" y="41.061" width="3.725" height="3.725" fill="#fff"/><rect x="153.941" y="41.055" width="3.725" height="3.725" fill="#fff"/><rect x="150.209" y="41.061" width="3.725" height="3.725" fill="#4daad6"/><rect x="153.941" y="55.981" width="3.725" height="3.725" fill="#946f55"/><rect x="157.673" y="55.981" width="3.725" height="3.725" fill="#a57c5c"/><rect x="161.404" y="55.988" width="3.725" height="3.725" fill="#a57c5c"/><rect x="165.129" y="55.981" width="3.725" height="3.725" fill="#a57c5c"/><rect x="165.136" y="67.176" width="3.725" height="3.725" fill="#a57c5c"/><rect x="165.136" y="70.907" width="3.725" height="3.725" fill="#a57c5c"/><rect x="168.867" y="70.907" width="3.725" height="3.725" fill="#a57c5c"/><rect x="168.867" y="67.176" width="3.725" height="3.725" fill="#a57c5c"/><rect x="168.867" y="63.451" width="3.725" height="3.725" fill="#946f55"/><rect x="168.867" y="59.713" width="3.725" height="3.725" fill="#946f55"/><rect x="157.673" y="59.713" width="3.725" height="3.725" fill="#fff"/><rect x="161.404" y="59.719" width="3.725" height="3.725" fill="#fff"/><rect x="165.129" y="59.713" width="3.725" height="3.725" fill="#fff"/><rect x="153.941" y="59.713" width="3.725" height="3.725" fill="#eae9e9"/><rect x="153.941" y="52.25" width="3.725" height="3.725" fill="#efc461"/><rect x="157.666" y="48.518" width="3.725" height="3.725" fill="#efc461"/><rect x="157.673" y="44.793" width="3.725" height="3.725" fill="#efc461"/><rect x="139.008" y="22.404" width="3.725" height="3.725" fill="#946f55"/><rect x="146.471" y="11.215" width="3.725" height="3.725" fill="#946f55"/><rect x="150.203" y="11.215" width="3.725" height="3.725" fill="#946f55"/><rect x="150.203" y="7.49" width="3.725" height="3.725" fill="#946f55"/><rect x="153.935" y="11.215" width="3.725" height="3.725" fill="#a57c5c"/><rect x="157.666" y="11.215" width="3.725" height="3.725" fill="#946f55"/><rect x="153.935" y="7.484" width="3.725" height="3.725" fill="#a57c5c"/><rect x="157.666" y="7.49" width="3.725" height="3.725" fill="#946f55"/><rect x="165.136" y="41.055" width="3.725" height="3.725" fill="#fff"/><rect x="165.136" y="37.33" width="3.725" height="3.725" fill="#765744"/><rect x="161.404" y="11.209" width="3.725" height="3.725" fill="#a57c5c"/><rect x="165.136" y="11.209" width="3.725" height="3.725" fill="#946f55"/><rect x="161.404" y="7.477" width="3.725" height="3.725" fill="#a57c5c"/><rect x="165.136" y="7.484" width="3.725" height="3.725" fill="#946f55"/><rect x="168.867" y="22.41" width="3.725" height="3.725" fill="#fee3a3"/><rect x="168.867" y="11.209" width="3.725" height="3.725" fill="#946f55"/><rect x="168.861" y="7.49" width="3.725" height="3.725" fill="#a57c5c"/><rect x="172.592" y="11.215" width="3.725" height="3.725" fill="#a57c5c"/><rect x="176.324" y="11.215" width="3.725" height="3.725" fill="#a57c5c"/><rect x="161.398" y="3.752" width="3.725" height="3.725" fill="#040404"/><rect x="165.129" y="3.752" width="3.725" height="3.725" fill="#040404"/><rect x="168.861" y="3.746" width="3.725" height="3.725" fill="#040404"/><rect x="172.599" y="3.752" width="3.725" height="3.725" fill="#040404"/><rect x="176.33" y="7.477" width="3.725" height="3.725" fill="#040404"/><rect x="180.055" y="14.934" width="3.725" height="3.725" fill="#040404"/><rect x="183.787" y="29.86" width="3.725" height="3.725" fill="#040404"/><rect x="183.787" y="26.129" width="3.725" height="3.725" fill="#040404"/><rect x="183.787" y="22.397" width="3.725" height="3.725" fill="#040404"/><rect x="183.793" y="52.256" width="3.725" height="3.725" fill="#040404"/><rect x="183.787" y="48.518" width="3.725" height="3.725" fill="#040404"/><rect x="180.062" y="63.451" width="3.725" height="3.725" fill="#040404"/><rect x="180.062" y="59.719" width="3.725" height="3.725" fill="#040404"/><rect x="180.062" y="55.988" width="3.725" height="3.725" fill="#040404"/><rect x="176.33" y="70.92" width="3.725" height="3.725" fill="#040404"/><rect x="172.599" y="74.652" width="3.725" height="3.725" fill="#040404"/><rect x="172.592" y="67.182" width="3.725" height="3.725" fill="#a57c5c"/><rect x="176.324" y="63.451" width="3.725" height="3.725" fill="#a57c5c"/><rect x="176.33" y="59.719" width="3.725" height="3.725" fill="#a57c5c"/><rect x="172.599" y="63.444" width="3.725" height="3.725" fill="#a57c5c"/><rect x="187.525" y="44.786" width="3.725" height="3.725" fill="#040404"/><rect x="187.525" y="41.055" width="3.725" height="3.725" fill="#040404"/><rect x="187.525" y="37.323" width="3.725" height="3.725" fill="#040404"/><rect x="187.525" y="33.592" width="3.725" height="3.725" fill="#040404"/><rect x="180.062" y="22.404" width="3.725" height="3.725" fill="#a57c5c"/><rect x="142.746" y="11.215" width="3.725" height="3.725" fill="#946f55"/><rect x="183.787" y="41.055" width="3.725" height="3.725" fill="#efc361"/><rect x="183.793" y="44.786" width="3.725" height="3.725" fill="#efc361"/><rect x="172.599" y="41.055" width="3.725" height="3.725" fill="#fff"/><rect x="168.867" y="41.061" width="3.725" height="3.725" fill="#4daad6"/><rect x="168.861" y="37.33" width="3.725" height="3.725" fill="#765744"/><rect x="172.592" y="37.33" width="3.725" height="3.725" fill="#765744"/><rect x="153.935" y="74.645" width="3.725" height="3.725" fill="#946f55"/><rect x="157.666" y="74.645" width="3.725" height="3.725" fill="#a57c5c"/><rect x="161.391" y="74.639" width="3.725" height="3.725" fill="#a57c5c"/><rect x="165.136" y="74.639" width="3.725" height="3.725" fill="#a57c5c"/><rect x="135.277" y="18.672" width="3.725" height="3.725" fill="#040404"/><rect x="183.787" y="18.672" width="3.725" height="3.725" fill="#040404"/><rect x="139.008" y="18.672" width="3.725" height="3.725" fill="#946f55"/><rect x="161.398" y="18.666" width="3.725" height="3.725" fill="#fee3a3"/><rect x="165.129" y="18.672" width="3.725" height="3.725" fill="#fee3a3"/><rect x="168.867" y="18.679" width="3.725" height="3.725" fill="#fee3a3"/><rect x="172.599" y="18.672" width="3.725" height="3.725" fill="#fee3a3"/><rect x="180.062" y="18.672" width="3.725" height="3.725" fill="#a57c5c"/><rect x="139.015" y="67.182" width="3.725" height="3.725" fill="#040404"/><rect x="146.471" y="74.652" width="3.725" height="3.725" fill="#040404"/><rect x="142.746" y="67.182" width="3.725" height="3.725" fill="#946f55"/><rect x="146.471" y="70.914" width="3.725" height="3.725" fill="#946f55"/><rect x="180.055" y="67.182" width="3.725" height="3.725" fill="#040404"/><rect x="176.324" y="67.182" width="3.725" height="3.725" fill="#a57c5c"/><rect x="172.592" y="70.914" width="3.725" height="3.725" fill="#946f55"/><rect x="139.008" y="11.209" width="3.725" height="3.725" fill="#040404"/><rect x="180.055" y="11.215" width="3.725" height="3.725" fill="#040404"/><rect x="146.478" y="7.484" width="3.725" height="3.725" fill="#946f55"/><rect x="172.592" y="7.484" width="3.725" height="3.725" fill="#a57c5c"/><polygon points="581.959 29.852 581.959 29.859 581.952 29.859 581.952 25.7 581.946 25.7 581.946 22.389 581.946 22.383 581.946 18.658 581.946 14.933 578.221 14.933 578.221 11.201 578.214 11.201 578.214 11.195 574.489 11.195 574.489 11.201 574.483 11.201 574.483 11.188 574.489 11.188 574.489 7.463 570.764 7.463 570.764 7.47 570.758 7.47 570.758 7.463 567.033 7.463 567.033 7.47 567.02 7.47 567.02 7.457 567.02 3.738 567.02 3.732 563.295 3.732 563.295 3.738 563.288 3.738 559.563 3.738 559.557 3.738 555.831 3.738 555.831 3.732 552.106 3.732 552.106 3.738 552.093 3.738 548.368 3.738 544.643 3.738 544.643 7.463 544.643 7.47 544.637 7.47 540.912 7.47 540.899 7.47 537.174 7.47 537.174 11.195 537.174 11.201 533.449 11.201 533.449 14.92 533.449 14.926 533.449 14.933 533.442 14.933 533.436 14.933 529.711 14.933 529.711 18.658 529.711 25.7 529.711 29.846 529.711 29.859 525.986 29.859 525.986 33.584 525.986 33.59 525.986 37.316 525.986 37.322 525.979 37.322 525.979 41.047 525.986 41.047 525.986 44.772 529.711 44.772 529.711 44.779 529.711 48.504 529.711 52.242 529.717 52.242 533.442 52.242 533.449 52.242 533.449 52.248 533.449 55.973 533.449 59.698 533.449 59.711 533.449 63.436 537.174 63.436 537.174 67.168 537.18 67.168 540.905 67.168 540.905 70.899 544.637 70.899 544.637 74.625 544.643 74.625 548.362 74.625 548.368 74.625 548.368 74.631 548.368 78.369 552.106 78.369 555.831 78.369 555.838 78.369 559.563 78.369 563.288 78.369 563.288 74.644 563.288 74.625 563.295 74.625 567.02 74.625 567.02 70.899 567.026 70.899 570.751 70.899 570.751 67.174 570.751 67.168 570.764 67.168 574.489 67.168 574.489 63.443 574.489 63.436 574.496 63.436 578.221 63.436 578.221 59.711 578.221 59.705 578.221 55.98 578.221 55.973 578.221 52.248 578.221 52.242 578.227 52.242 581.952 52.242 581.952 48.517 581.952 44.772 581.959 44.772 585.684 44.772 585.684 41.047 585.684 41.041 585.684 37.316 585.684 37.309 585.684 33.584 585.684 33.577 585.684 29.859 585.684 29.852 581.959 29.852" fill="#fcd985"/><rect x="529.799" y="59.682" width="3.725" height="3.725" fill="#040404"/><rect x="529.799" y="55.944" width="3.725" height="3.725" fill="#040404"/><rect x="529.799" y="67.145" width="3.725" height="3.725" fill="#040404"/><rect x="529.799" y="63.407" width="3.725" height="3.725" fill="#040404"/><rect x="533.53" y="74.608" width="3.725" height="3.725" fill="#040404"/><rect x="533.53" y="70.87" width="3.725" height="3.725" fill="#040404"/><rect x="529.799" y="52.218" width="3.725" height="3.725" fill="#040404"/><rect x="578.315" y="59.682" width="3.725" height="3.725" fill="#040404"/><rect x="578.315" y="55.944" width="3.725" height="3.725" fill="#040404"/><rect x="578.315" y="67.145" width="3.725" height="3.725" fill="#040404"/><rect x="578.315" y="63.407" width="3.725" height="3.725" fill="#040404"/><rect x="578.315" y="52.218" width="3.725" height="3.725" fill="#040404"/><rect x="541" y="67.138" width="3.725" height="3.725" fill="#4f3c23"/><rect x="533.524" y="52.218" width="3.725" height="3.725" fill="#4f3c23"/><rect x="533.524" y="26.101" width="3.725" height="3.725" fill="#4f3c23"/><rect x="544.725" y="70.87" width="3.725" height="3.725" fill="#4f3c23"/><rect x="529.805" y="48.487" width="3.725" height="3.725" fill="#040404"/><rect x="529.799" y="44.749" width="3.725" height="3.725" fill="#040404"/><rect x="526.074" y="41.017" width="3.725" height="3.725" fill="#040404"/><rect x="526.067" y="37.292" width="3.725" height="3.725" fill="#040404"/><rect x="526.074" y="33.561" width="3.725" height="3.725" fill="#040404"/><rect x="526.074" y="29.829" width="3.725" height="3.725" fill="#040404"/><rect x="529.805" y="26.091" width="3.725" height="3.725" fill="#040404"/><rect x="529.805" y="22.36" width="3.725" height="3.725" fill="#040404"/><rect x="529.805" y="18.628" width="3.725" height="3.725" fill="#040404"/><rect x="533.537" y="11.171" width="3.725" height="3.725" fill="#040404"/><rect x="537.262" y="7.44" width="3.725" height="3.725" fill="#040404"/><rect x="541" y="3.708" width="3.725" height="3.725" fill="#040404"/><rect x="529.805" y="29.829" width="3.725" height="3.725" fill="#ddbd77"/><rect x="529.799" y="33.554" width="3.725" height="3.725" fill="#ddbd77"/><rect x="529.805" y="37.292" width="3.725" height="3.725" fill="#ddbd77"/><rect x="529.805" y="41.024" width="3.725" height="3.725" fill="#ddbd77"/><rect x="552.194" y="59.675" width="3.725" height="3.725" fill="#fff"/><rect x="555.919" y="59.682" width="3.725" height="3.725" fill="#fff"/><rect x="548.463" y="74.608" width="3.725" height="3.725" fill="#040404"/><rect x="552.194" y="74.614" width="3.725" height="3.725" fill="#040404"/><rect x="555.926" y="74.614" width="3.725" height="3.725" fill="#040404"/><rect x="537.262" y="78.346" width="3.725" height="3.725" fill="#040404"/><rect x="540.993" y="78.352" width="3.725" height="3.725" fill="#040404"/><rect x="544.725" y="78.352" width="3.725" height="3.725" fill="#040404"/><rect x="563.379" y="78.352" width="3.725" height="3.725" fill="#040404"/><rect x="567.111" y="78.352" width="3.725" height="3.725" fill="#040404"/><rect x="570.859" y="74.598" width="3.725" height="3.725" fill="#040404"/><rect x="574.584" y="70.883" width="3.725" height="3.725" fill="#040404"/><rect x="559.651" y="74.614" width="3.725" height="3.725" fill="#040404"/><rect x="563.383" y="70.87" width="3.725" height="3.725" fill="#4f3c23"/><rect x="541" y="33.561" width="3.725" height="3.725" fill="#694a21"/><rect x="544.725" y="33.561" width="3.725" height="3.725" fill="#694a21"/><rect x="548.456" y="33.561" width="3.725" height="3.725" fill="#8f6a4c"/><rect x="541" y="41.017" width="3.725" height="3.725" fill="#efc361"/><rect x="544.725" y="41.024" width="3.725" height="3.725" fill="#efc361"/><rect x="541" y="37.292" width="3.725" height="3.725" fill="#fff"/><rect x="548.463" y="37.286" width="3.725" height="3.725" fill="#fff"/><rect x="544.731" y="37.292" width="3.725" height="3.725" fill="#4daad6"/><rect x="552.194" y="55.944" width="3.725" height="3.725" fill="#fff"/><rect x="555.926" y="55.95" width="3.725" height="3.725" fill="#fff"/><rect x="559.651" y="55.944" width="3.725" height="3.725" fill="#fff"/><rect x="548.463" y="55.944" width="3.725" height="3.725" fill="#eae9e9"/><rect x="548.463" y="48.48" width="3.725" height="3.725" fill="#efc461"/><rect x="552.188" y="44.749" width="3.725" height="3.725" fill="#efc461"/><rect x="552.194" y="41.024" width="3.725" height="3.725" fill="#efc461"/><rect x="537.268" y="63.413" width="3.725" height="3.725" fill="#765131"/><rect x="533.537" y="59.672" width="3.725" height="3.725" fill="#765131"/><rect x="533.537" y="55.94" width="3.725" height="3.725" fill="#765131"/><rect x="533.537" y="67.135" width="3.725" height="3.725" fill="#765131"/><rect x="533.537" y="63.403" width="3.725" height="3.725" fill="#765131"/><rect x="537.262" y="67.135" width="3.725" height="3.725" fill="#765131"/><rect x="537.262" y="63.403" width="3.725" height="3.725" fill="#765131"/><rect x="537.262" y="74.598" width="3.725" height="3.725" fill="#765131"/><rect x="537.262" y="70.867" width="3.725" height="3.725" fill="#765131"/><rect x="540.993" y="74.598" width="3.725" height="3.725" fill="#765131"/><rect x="544.725" y="74.598" width="3.725" height="3.725" fill="#765131"/><rect x="540.993" y="70.867" width="3.725" height="3.725" fill="#765131"/><rect x="559.658" y="37.286" width="3.725" height="3.725" fill="#fff"/><rect x="559.658" y="33.561" width="3.725" height="3.725" fill="#694a21"/><rect x="544.731" y="0.006" width="3.725" height="3.725" fill="#040404"/><rect x="548.456" y="0.006" width="3.725" height="3.725" fill="#040404"/><rect x="552.194" width="3.725" height="3.725" fill="#040404"/><rect x="555.919" y="0.006" width="3.725" height="3.725" fill="#040404"/><rect x="559.651" y="0.006" width="3.725" height="3.725" fill="#040404"/><rect x="563.383" width="3.725" height="3.725" fill="#040404"/><rect x="544.731" y="3.738" width="3.725" height="3.725" fill="#646565"/><rect x="548.456" y="3.738" width="3.725" height="3.725" fill="#646565"/><rect x="552.194" y="3.732" width="3.725" height="3.725" fill="#646565"/><rect x="555.919" y="3.738" width="3.725" height="3.725" fill="#646565"/><rect x="559.651" y="3.738" width="3.725" height="3.725" fill="#646565"/><rect x="563.383" y="3.732" width="3.725" height="3.725" fill="#646565"/><rect x="544.713" y="7.455" width="3.725" height="3.725" fill="#646565"/><rect x="548.438" y="7.455" width="3.725" height="3.725" fill="#646565"/><rect x="552.176" y="7.449" width="3.725" height="3.725" fill="#646565"/><rect x="555.901" y="7.455" width="3.725" height="3.725" fill="#646565"/><rect x="559.633" y="7.455" width="3.725" height="3.725" fill="#646565"/><rect x="563.364" y="7.449" width="3.725" height="3.725" fill="#646565"/><rect x="544.731" y="11.187" width="3.725" height="3.725" fill="#646565"/><rect x="548.456" y="11.187" width="3.725" height="3.725" fill="#646565"/><rect x="552.194" y="11.181" width="3.725" height="3.725" fill="#646565"/><rect x="555.919" y="11.187" width="3.725" height="3.725" fill="#646565"/><rect x="559.651" y="11.187" width="3.725" height="3.725" fill="#646565"/><rect x="563.383" y="11.181" width="3.725" height="3.725" fill="#646565"/><rect x="555.932" y="14.906" width="3.725" height="3.725" fill="#646565"/><rect x="559.658" y="14.906" width="3.725" height="3.725" fill="#646565"/><rect x="563.396" y="14.9" width="3.725" height="3.725" fill="#646565"/><rect x="567.121" y="14.906" width="3.725" height="3.725" fill="#646565"/><rect x="570.852" y="14.906" width="3.725" height="3.725" fill="#646565"/><rect x="567.121" y="11.165" width="3.725" height="3.725" fill="#646565"/><rect x="567.121" y="7.433" width="3.725" height="3.725" fill="#646565"/><rect x="570.852" y="11.165" width="3.725" height="3.725" fill="#646565"/><rect x="574.584" y="14.9" width="3.725" height="3.725" fill="#646565"/><rect x="552.194" y="14.906" width="3.725" height="3.725" transform="translate(1108.114 33.538) rotate(-180)" fill="#646565"/><rect x="548.469" y="14.906" width="3.725" height="3.725" transform="translate(1100.664 33.538) rotate(-180)" fill="#646565"/><rect x="544.731" y="14.9" width="3.725" height="3.725" transform="translate(1093.188 33.525) rotate(-180)" fill="#646565"/><rect x="541.006" y="14.906" width="3.725" height="3.725" transform="translate(1085.738 33.538) rotate(-180)" fill="#646565"/><rect x="537.275" y="14.906" width="3.725" height="3.725" transform="translate(1078.274 33.538) rotate(-180)" fill="#646565"/><rect x="541.006" y="11.165" width="3.725" height="3.725" transform="translate(1085.738 26.055) rotate(-180)" fill="#646565"/><rect x="541.006" y="7.433" width="3.725" height="3.725" transform="translate(1085.738 18.592) rotate(-180)" fill="#646565"/><rect x="537.275" y="11.165" width="3.725" height="3.725" transform="translate(1078.274 26.055) rotate(-180)" fill="#646565"/><rect x="533.543" y="14.9" width="3.725" height="3.725" transform="translate(1070.811 33.525) rotate(-180)" fill="#646565"/><rect x="533.543" y="18.636" width="3.725" height="3.725" fill="#646565"/><rect x="537.268" y="18.636" width="3.725" height="3.725" fill="#646565"/><rect x="541.006" y="18.63" width="3.725" height="3.725" fill="#646565"/><rect x="544.731" y="18.636" width="3.725" height="3.725" fill="#646565"/><rect x="548.463" y="18.636" width="3.725" height="3.725" fill="#646565"/><rect x="552.194" y="18.63" width="3.725" height="3.725" fill="#646565"/><rect x="555.901" y="18.636" width="3.725" height="3.725" fill="#646565"/><rect x="559.626" y="18.636" width="3.725" height="3.725" fill="#646565"/><rect x="563.364" y="18.63" width="3.725" height="3.725" fill="#646565"/><rect x="567.089" y="18.636" width="3.725" height="3.725" fill="#646565"/><rect x="570.821" y="18.636" width="3.725" height="3.725" fill="#646565"/><rect x="574.552" y="18.63" width="3.725" height="3.725" fill="#646565"/><rect x="567.121" y="3.702" width="3.725" height="3.725" fill="#040404"/><rect x="570.852" y="7.433" width="3.725" height="3.725" fill="#040404"/><rect x="574.577" y="11.165" width="3.725" height="3.725" fill="#040404"/><rect x="578.309" y="26.091" width="3.725" height="3.725" fill="#040404"/><rect x="578.309" y="22.36" width="3.725" height="3.725" fill="#040404"/><rect x="578.309" y="18.628" width="3.725" height="3.725" fill="#040404"/><rect x="578.315" y="48.487" width="3.725" height="3.725" fill="#040404"/><rect x="578.309" y="44.749" width="3.725" height="3.725" fill="#040404"/><rect x="574.584" y="59.682" width="3.725" height="3.725" fill="#040404"/><rect x="574.584" y="55.95" width="3.725" height="3.725" fill="#040404"/><rect x="574.584" y="52.218" width="3.725" height="3.725" fill="#4f3c23"/><rect x="570.852" y="63.413" width="3.725" height="3.725" fill="#040404"/><rect x="567.114" y="67.145" width="3.725" height="3.725" fill="#4f3c23"/><rect x="582.047" y="41.017" width="3.725" height="3.725" fill="#040404"/><rect x="582.047" y="37.286" width="3.725" height="3.725" fill="#040404"/><rect x="582.047" y="33.554" width="3.725" height="3.725" fill="#040404"/><rect x="582.047" y="29.823" width="3.725" height="3.725" fill="#040404"/><rect x="578.309" y="37.286" width="3.725" height="3.725" fill="#efc361"/><rect x="578.315" y="41.017" width="3.725" height="3.725" fill="#efc361"/><rect x="567.121" y="37.286" width="3.725" height="3.725" fill="#fff"/><rect x="563.389" y="37.292" width="3.725" height="3.725" fill="#4daad6"/><rect x="563.383" y="33.561" width="3.725" height="3.725" fill="#694a21"/><rect x="567.114" y="33.561" width="3.725" height="3.725" fill="#9b7557"/><rect x="529.799" y="14.903" width="3.725" height="3.725" fill="#040404"/><rect x="578.309" y="14.903" width="3.725" height="3.725" fill="#040404"/><rect x="559.651" y="41.027" width="3.725" height="3.725" fill="#464646"/><rect x="574.577" y="33.564" width="3.725" height="3.725" fill="#464646"/><rect x="578.309" y="29.829" width="3.725" height="3.725" fill="#464646"/><rect x="563.383" y="44.746" width="3.725" height="3.725" fill="#464646"/><rect x="567.114" y="44.746" width="3.725" height="3.725" fill="#464646"/><rect x="570.839" y="41.017" width="3.725" height="3.725" fill="#464646"/><rect x="570.839" y="37.286" width="3.725" height="3.725" fill="#464646"/><rect x="555.919" y="37.286" width="3.725" height="3.725" fill="#464646"/><rect x="559.651" y="33.551" width="3.725" height="3.725" fill="#464646"/><rect x="563.383" y="33.557" width="3.725" height="3.725" fill="#464646"/><rect x="567.114" y="33.557" width="3.725" height="3.725" fill="#464646"/><rect x="570.839" y="33.557" width="3.725" height="3.725" fill="#464646"/><rect x="548.463" y="41.027" width="3.725" height="3.725" transform="translate(1100.651 85.779) rotate(180)" fill="#464646"/><rect x="533.537" y="33.564" width="3.725" height="3.725" transform="translate(1070.798 70.853) rotate(180)" fill="#464646"/><rect x="529.805" y="29.829" width="3.725" height="3.725" transform="translate(1063.335 63.383) rotate(180)" fill="#464646"/><rect x="544.731" y="44.746" width="3.725" height="3.725" transform="translate(1093.188 93.216) rotate(180)" fill="#464646"/><rect x="541" y="44.746" width="3.725" height="3.725" transform="translate(1085.725 93.216) rotate(180)" fill="#464646"/><rect x="537.275" y="41.017" width="3.725" height="3.725" transform="translate(1078.274 85.76) rotate(180)" fill="#464646"/><rect x="537.275" y="37.286" width="3.725" height="3.725" transform="translate(1078.274 78.297) rotate(180)" fill="#464646"/><rect x="552.194" y="37.286" width="3.725" height="3.725" transform="translate(1108.114 78.297) rotate(180)" fill="#464646"/><rect x="548.463" y="33.551" width="3.725" height="3.725" transform="translate(1100.651 70.827) rotate(180)" fill="#464646"/><rect x="544.731" y="33.557" width="3.725" height="3.725" transform="translate(1093.188 70.84) rotate(180)" fill="#464646"/><rect x="541" y="33.557" width="3.725" height="3.725" transform="translate(1085.725 70.84) rotate(180)" fill="#464646"/><rect x="537.275" y="33.557" width="3.725" height="3.725" transform="translate(1078.274 70.84) rotate(180)" fill="#464646"/><rect x="570.852" y="63.413" width="3.725" height="3.725" transform="translate(1145.429 130.551) rotate(-180)" fill="#83603d"/><rect x="574.584" y="59.672" width="3.725" height="3.725" transform="translate(1152.892 123.069) rotate(-180)" fill="#83603d"/><rect x="574.584" y="55.94" width="3.725" height="3.725" transform="translate(1152.892 115.606) rotate(-180)" fill="#83603d"/><rect x="574.584" y="67.135" width="3.725" height="3.725" transform="translate(1152.892 137.995) rotate(-180)" fill="#83603d"/><rect x="574.584" y="63.403" width="3.725" height="3.725" transform="translate(1152.892 130.532) rotate(-180)" fill="#83603d"/><rect x="570.859" y="67.135" width="3.725" height="3.725" transform="translate(1145.442 137.995) rotate(-180)" fill="#83603d"/><rect x="570.859" y="63.403" width="3.725" height="3.725" transform="translate(1145.442 130.532) rotate(-180)" fill="#83603d"/><rect x="570.859" y="70.867" width="3.725" height="3.725" transform="translate(1145.442 145.458) rotate(-180)" fill="#83603d"/><rect x="567.127" y="74.598" width="3.725" height="3.725" transform="translate(1137.979 152.921) rotate(-180)" fill="#83603d"/><rect x="563.396" y="74.598" width="3.725" height="3.725" transform="translate(1130.516 152.921) rotate(-180)" fill="#83603d"/><rect x="567.127" y="70.867" width="3.725" height="3.725" transform="translate(1137.979 145.458) rotate(-180)" fill="#83603d"/><rect x="533.537" y="22.373" width="3.725" height="3.725" fill="#040404"/><rect x="537.262" y="22.373" width="3.725" height="3.725" fill="#040404"/><rect x="541" y="22.366" width="3.725" height="3.725" fill="#040404"/><rect x="544.725" y="22.373" width="3.725" height="3.725" fill="#040404"/><rect x="548.456" y="22.373" width="3.725" height="3.725" fill="#040404"/><rect x="552.188" y="22.366" width="3.725" height="3.725" fill="#040404"/><rect x="555.926" y="22.373" width="3.725" height="3.725" fill="#040404"/><rect x="559.651" y="22.373" width="3.725" height="3.725" fill="#040404"/><rect x="563.389" y="22.366" width="3.725" height="3.725" fill="#040404"/><rect x="567.114" y="22.373" width="3.725" height="3.725" fill="#040404"/><rect x="570.846" y="22.373" width="3.725" height="3.725" fill="#040404"/><rect x="574.577" y="22.366" width="3.725" height="3.725" fill="#040404"/><rect x="574.584" y="29.832" width="3.725" height="3.725" transform="translate(1152.892 63.39) rotate(-180)" fill="#83603d"/><rect x="574.584" y="26.101" width="3.725" height="3.725" transform="translate(1152.892 55.927) rotate(-180)" fill="#83603d"/><rect x="533.537" y="29.823" width="3.725" height="3.725" fill="#765131"/><polygon points="317.387 30.317 317.387 30.323 317.381 30.323 317.381 26.164 317.375 26.164 317.375 22.853 317.375 22.847 317.375 19.122 317.375 15.397 313.883 15.397 313.883 11.665 313.877 11.665 313.877 11.659 310.385 11.659 310.385 11.665 310.379 11.665 310.379 11.652 310.385 11.652 310.385 7.927 308.621 7.927 308.621 7.937 275.406 7.937 275.406 11.659 275.406 11.665 271.914 11.665 271.914 15.384 271.914 15.39 271.914 15.397 271.908 15.397 271.902 15.397 268.41 15.397 268.41 19.122 268.41 26.164 268.41 30.31 268.41 30.323 264.918 30.323 264.918 34.048 264.918 34.055 264.918 37.78 264.918 37.786 264.912 37.786 264.912 41.511 264.918 41.511 264.918 45.236 268.41 45.236 268.41 45.243 268.41 48.968 268.41 52.706 268.416 52.706 271.908 52.706 271.914 52.706 271.914 52.712 271.914 56.437 271.914 60.162 271.914 60.175 271.914 63.901 275.406 63.901 275.406 67.632 275.412 67.632 278.904 67.632 278.904 71.364 282.402 71.364 282.402 75.089 282.408 75.089 285.894 75.089 285.9 75.089 285.9 75.095 285.9 75.098 299.885 75.098 299.885 75.089 299.892 75.089 303.383 75.089 303.383 71.364 303.389 71.364 306.881 71.364 306.881 67.639 306.881 67.632 306.893 67.632 310.385 67.632 310.385 63.907 310.385 63.901 310.391 63.901 313.883 63.901 313.883 60.175 313.883 60.169 313.883 56.444 313.883 56.437 313.883 52.712 313.883 52.706 313.889 52.706 317.381 52.706 317.381 48.981 317.381 45.236 317.387 45.236 320.879 45.236 320.879 41.511 320.879 41.505 320.879 37.78 320.879 37.773 320.879 34.048 320.879 34.042 320.879 30.323 320.879 30.317 317.387 30.317" fill="#fcd985"/><rect x="268.637" y="60.172" width="3.725" height="3.725" fill="#040404"/><rect x="272.369" y="63.904" width="3.725" height="3.725" fill="#040404"/><rect x="268.637" y="56.434" width="3.725" height="3.725" fill="#040404"/><rect x="268.637" y="52.709" width="3.725" height="3.725" fill="#040404"/><rect x="276.1" y="67.629" width="3.725" height="3.725" fill="#040404"/><rect x="279.826" y="71.36" width="3.725" height="3.725" fill="#040404"/><rect x="264.906" y="48.978" width="3.725" height="3.725" fill="#040404"/><rect x="264.899" y="45.24" width="3.725" height="3.725" fill="#040404"/><rect x="261.174" y="41.508" width="3.725" height="3.725" fill="#040404"/><rect x="261.168" y="37.783" width="3.725" height="3.725" fill="#040404"/><rect x="261.174" y="34.051" width="3.725" height="3.725" fill="#040404"/><rect x="261.174" y="30.32" width="3.725" height="3.725" fill="#040404"/><rect x="264.906" y="26.582" width="3.725" height="3.725" fill="#040404"/><rect x="264.906" y="22.85" width="3.725" height="3.725" fill="#040404"/><rect x="264.906" y="19.119" width="3.725" height="3.725" fill="#040404"/><rect x="268.637" y="15.394" width="3.725" height="3.725" fill="#040404"/><rect x="272.362" y="11.662" width="3.725" height="3.725" fill="#040404"/><rect x="276.1" y="7.93" width="3.725" height="3.725" fill="#040404"/><rect x="279.832" y="7.93" width="3.725" height="3.725" fill="#040404"/><rect x="283.557" y="7.93" width="3.725" height="3.725" fill="#040404"/><rect x="287.295" y="7.924" width="3.725" height="3.725" fill="#040404"/><rect x="264.906" y="30.32" width="3.725" height="3.725" fill="#ddbd77"/><rect x="264.899" y="34.045" width="3.725" height="3.725" fill="#ddbd77"/><rect x="264.906" y="37.783" width="3.725" height="3.725" fill="#ddbd77"/><rect x="264.906" y="41.514" width="3.725" height="3.725" fill="#ddbd77"/><rect x="268.631" y="34.051" width="3.725" height="3.725" fill="#3c3c3b"/><rect x="268.631" y="37.783" width="3.725" height="3.725" fill="#3c3c3b"/><rect x="268.637" y="41.514" width="3.725" height="3.725" fill="#3c3c3b"/><rect x="268.637" y="45.246" width="3.725" height="3.725" fill="#3c3c3b"/><rect x="268.637" y="48.971" width="3.725" height="3.725" fill="#3c3c3b"/><rect x="272.369" y="52.703" width="3.725" height="3.725" fill="#3c3c3b"/><rect x="272.369" y="56.434" width="3.725" height="3.725" fill="#3c3c3b"/><rect x="272.369" y="60.166" width="3.725" height="3.725" fill="#3c3c3b"/><rect x="276.1" y="63.897" width="3.725" height="3.725" fill="#3c3c3b"/><rect x="279.826" y="67.629" width="3.725" height="3.725" fill="#3c3c3b"/><rect x="276.1" y="56.434" width="3.725" height="3.725" fill="#464646"/><rect x="276.1" y="60.166" width="3.725" height="3.725" fill="#464646"/><rect x="279.832" y="56.441" width="3.725" height="3.725" fill="#464646"/><rect x="279.832" y="60.172" width="3.725" height="3.725" fill="#464646"/><rect x="279.832" y="63.897" width="3.725" height="3.725" fill="#464646"/><rect x="283.564" y="63.904" width="3.725" height="3.725" fill="#464646"/><rect x="287.295" y="63.897" width="3.725" height="3.725" fill="#464646"/><rect x="287.295" y="60.166" width="3.725" height="3.725" fill="#464646"/><rect x="291.02" y="60.172" width="3.725" height="3.725" fill="#464646"/><rect x="291.02" y="63.904" width="3.725" height="3.725" fill="#464646"/><rect x="283.564" y="67.635" width="3.725" height="3.725" fill="#464646"/><rect x="287.295" y="67.635" width="3.725" height="3.725" fill="#464646"/><rect x="291.02" y="67.629" width="3.725" height="3.725" fill="#464646"/><rect x="283.564" y="71.36" width="3.725" height="3.725" fill="#040404"/><rect x="287.295" y="71.367" width="3.725" height="3.725" fill="#040404"/><rect x="291.027" y="71.367" width="3.725" height="3.725" fill="#040404"/><rect x="294.752" y="71.367" width="3.725" height="3.725" fill="#040404"/><rect x="298.483" y="71.367" width="3.725" height="3.725" fill="#040404"/><rect x="302.215" y="71.36" width="3.725" height="3.725" fill="#040404"/><rect x="276.1" y="34.051" width="3.725" height="3.725" fill="#3c3c3b"/><rect x="279.826" y="34.051" width="3.725" height="3.725" fill="#3c3c3b"/><rect x="283.557" y="34.051" width="3.725" height="3.725" fill="#464646"/><rect x="276.1" y="41.508" width="3.725" height="3.725" fill="#efc361"/><rect x="279.826" y="41.514" width="3.725" height="3.725" fill="#efc361"/><rect x="276.1" y="37.783" width="3.725" height="3.725" fill="#fff"/><rect x="283.564" y="37.776" width="3.725" height="3.725" fill="#fff"/><rect x="279.832" y="37.783" width="3.725" height="3.725" fill="#4daad6"/><rect x="283.564" y="52.703" width="3.725" height="3.725" fill="#3c3c3b"/><rect x="287.295" y="52.703" width="3.725" height="3.725" fill="#3c3c3b"/><rect x="291.027" y="52.709" width="3.725" height="3.725" fill="#3c3c3b"/><rect x="294.752" y="52.703" width="3.725" height="3.725" fill="#575757"/><rect x="298.483" y="52.703" width="3.725" height="3.725" fill="#575757"/><rect x="294.758" y="60.172" width="3.725" height="3.725" fill="#575757"/><rect x="294.758" y="63.897" width="3.725" height="3.725" fill="#575757"/><rect x="294.758" y="67.629" width="3.725" height="3.725" fill="#575757"/><rect x="298.49" y="63.904" width="3.725" height="3.725" fill="#575757"/><rect x="298.49" y="67.635" width="3.725" height="3.725" fill="#575757"/><rect x="302.221" y="67.629" width="3.725" height="3.725" fill="#575757"/><rect x="302.221" y="63.897" width="3.725" height="3.725" fill="#575757"/><rect x="302.221" y="60.172" width="3.725" height="3.725" fill="#3c3c3b"/><rect x="302.221" y="56.434" width="3.725" height="3.725" fill="#3c3c3b"/><rect x="287.295" y="56.434" width="3.725" height="3.725" fill="#fff"/><rect x="291.027" y="56.441" width="3.725" height="3.725" fill="#fff"/><rect x="294.752" y="56.434" width="3.725" height="3.725" fill="#fff"/><rect x="298.483" y="56.441" width="3.725" height="3.725" fill="#fff"/><rect x="283.564" y="56.434" width="3.725" height="3.725" fill="#eae9e9"/><rect x="291.027" y="41.514" width="3.725" height="3.725" fill="#efc360"/><rect x="291.027" y="45.24" width="3.725" height="3.725" fill="#efc360"/><rect x="287.289" y="48.971" width="3.725" height="3.725" fill="#e6b64b"/><rect x="291.027" y="48.971" width="3.725" height="3.725" fill="#e6b64b"/><rect x="294.758" y="48.971" width="3.725" height="3.725" fill="#e6b64b"/><rect x="294.758" y="15.387" width="3.725" height="3.725" fill="#fde1a1"/><rect x="298.483" y="15.394" width="3.725" height="3.725" fill="#fde1a1"/><rect x="302.221" y="15.387" width="3.725" height="3.725" fill="#fde1a1"/><rect x="291.02" y="7.93" width="3.725" height="3.725" fill="#040404"/><rect x="294.752" y="7.93" width="3.725" height="3.725" fill="#040404"/><rect x="298.477" y="7.93" width="3.725" height="3.725" fill="#040404"/><rect x="302.215" y="7.924" width="3.725" height="3.725" fill="#040404"/><rect x="305.946" y="7.93" width="3.725" height="3.725" fill="#040404"/><rect x="309.684" y="11.656" width="3.725" height="3.725" fill="#040404"/><rect x="313.409" y="15.387" width="3.725" height="3.725" fill="#040404"/><rect x="317.141" y="26.582" width="3.725" height="3.725" fill="#040404"/><rect x="317.141" y="22.85" width="3.725" height="3.725" fill="#040404"/><rect x="317.141" y="19.119" width="3.725" height="3.725" fill="#040404"/><rect x="317.147" y="48.978" width="3.725" height="3.725" fill="#040404"/><rect x="317.141" y="45.24" width="3.725" height="3.725" fill="#040404"/><rect x="313.416" y="60.172" width="3.725" height="3.725" fill="#040404"/><rect x="313.416" y="56.441" width="3.725" height="3.725" fill="#040404"/><rect x="313.416" y="52.709" width="3.725" height="3.725" fill="#040404"/><rect x="309.684" y="63.904" width="3.725" height="3.725" fill="#040404"/><rect x="305.946" y="67.635" width="3.725" height="3.725" fill="#040404"/><rect x="305.946" y="63.904" width="3.725" height="3.725" fill="#575757"/><rect x="309.678" y="60.172" width="3.725" height="3.725" fill="#575757"/><rect x="309.684" y="56.441" width="3.725" height="3.725" fill="#575757"/><rect x="313.409" y="48.978" width="3.725" height="3.725" fill="#575757"/><rect x="313.409" y="45.246" width="3.725" height="3.725" fill="#575757"/><rect x="313.409" y="41.514" width="3.725" height="3.725" fill="#575757"/><rect x="313.409" y="37.783" width="3.725" height="3.725" fill="#575757"/><rect x="313.416" y="34.045" width="3.725" height="3.725" fill="#575757"/><rect x="309.678" y="52.709" width="3.725" height="3.725" fill="#575757"/><rect x="305.946" y="56.434" width="3.725" height="3.725" fill="#575757"/><rect x="305.953" y="60.166" width="3.725" height="3.725" fill="#575757"/><rect x="320.879" y="41.508" width="3.725" height="3.725" fill="#040404"/><rect x="320.879" y="37.776" width="3.725" height="3.725" fill="#040404"/><rect x="320.879" y="34.045" width="3.725" height="3.725" fill="#040404"/><rect x="320.879" y="30.313" width="3.725" height="3.725" fill="#040404"/><rect x="317.141" y="37.776" width="3.725" height="3.725" fill="#efc361"/><rect x="317.147" y="41.508" width="3.725" height="3.725" fill="#efc361"/><rect x="298.49" y="37.783" width="3.725" height="3.725" fill="#fff"/><rect x="305.953" y="37.776" width="3.725" height="3.725" fill="#fff"/><rect x="302.221" y="37.783" width="3.725" height="3.725" fill="#4daad6"/><rect x="298.49" y="34.051" width="3.725" height="3.725" fill="#464646"/><rect x="302.215" y="34.051" width="3.725" height="3.725" fill="#585858"/><rect x="305.946" y="34.051" width="3.725" height="3.725" fill="#454546"/><rect x="268.631" y="34.045" width="3.732" height="18.664" fill="#3c3c3b"/><rect x="272.362" y="52.703" width="3.732" height="11.195" fill="#3c3c3b"/><polygon points="287.295 60.166 287.295 63.897 283.557 63.897 283.557 56.441 283.551 56.441 283.551 56.434 279.826 56.434 279.826 56.441 276.094 56.441 276.094 63.904 279.826 63.904 279.826 67.629 283.551 67.629 283.557 67.629 283.557 71.354 287.295 71.354 294.745 71.354 294.745 67.629 294.745 63.897 294.745 60.166 287.295 60.166" fill="#464646"/><rect x="283.564" y="52.703" width="11.188" height="3.732" fill="#464646"/><rect x="294.752" y="52.709" width="7.457" height="3.719" fill="#575757"/><polygon points="309.678 52.709 309.678 56.434 305.946 56.434 305.946 63.897 305.946 63.904 305.94 63.904 305.94 63.897 298.477 63.897 298.477 60.172 294.745 60.172 294.745 63.897 294.745 63.904 294.745 67.629 294.745 71.36 294.745 71.367 298.477 71.367 298.477 71.36 305.94 71.36 305.94 67.629 305.946 67.629 309.684 67.629 309.684 63.904 309.684 63.897 313.416 63.897 313.416 56.434 313.416 52.709 309.678 52.709" fill="#575757"/><rect x="302.208" y="56.428" width="3.738" height="7.47" fill="#464646"/><rect x="313.416" y="34.045" width="3.732" height="18.658" fill="#575757"/><rect x="276.1" y="63.897" width="3.725" height="3.725" fill="#3c3c3b"/><rect x="279.826" y="67.629" width="3.725" height="3.725" fill="#3c3c3b"/></svg>