<svg xmlns="http://www.w3.org/2000/svg" xmlns:xlink="http://www.w3.org/1999/xlink" width="120" height="120" viewBox="0 0 120 120"><defs><clipPath id="a"><rect x="536.073" y="89.904" width="330.504" height="6.636" fill="none"/></clipPath></defs><g clip-path="url(#a)"><g opacity="0.1"><line x1="524.004" y1="75.05" x2="-294.177" y2="893.232" fill="none" stroke="#231f20" stroke-miterlimit="10" stroke-width="3"/><line x1="534.705" y1="75.05" x2="-283.477" y2="893.232" fill="none" stroke="#231f20" stroke-miterlimit="10" stroke-width="3"/><line x1="545.406" y1="75.05" x2="-272.776" y2="893.232" fill="none" stroke="#231f20" stroke-miterlimit="10" stroke-width="3"/><line x1="556.107" y1="75.05" x2="-262.075" y2="893.232" fill="none" stroke="#231f20" stroke-miterlimit="10" stroke-width="3"/><line x1="566.808" y1="75.05" x2="-251.374" y2="893.232" fill="none" stroke="#231f20" stroke-miterlimit="10" stroke-width="3"/><line x1="577.508" y1="75.05" x2="-240.673" y2="893.232" fill="none" stroke="#231f20" stroke-miterlimit="10" stroke-width="3"/><line x1="588.209" y1="75.05" x2="-229.972" y2="893.232" fill="none" stroke="#231f20" stroke-miterlimit="10" stroke-width="3"/><line x1="598.91" y1="75.05" x2="-219.272" y2="893.232" fill="none" stroke="#231f20" stroke-miterlimit="10" stroke-width="3"/><line x1="609.611" y1="75.05" x2="-208.571" y2="893.232" fill="none" stroke="#231f20" stroke-miterlimit="10" stroke-width="3"/><line x1="620.312" y1="75.05" x2="-197.87" y2="893.232" fill="none" stroke="#231f20" stroke-miterlimit="10" stroke-width="3"/><line x1="631.012" y1="75.05" x2="-187.169" y2="893.232" fill="none" stroke="#231f20" stroke-miterlimit="10" stroke-width="3"/><line x1="641.713" y1="75.05" x2="-176.468" y2="893.232" fill="none" stroke="#231f20" stroke-miterlimit="10" stroke-width="3"/><line x1="652.414" y1="75.05" x2="-165.768" y2="893.232" fill="none" stroke="#231f20" stroke-miterlimit="10" stroke-width="3"/><line x1="663.115" y1="75.05" x2="-155.067" y2="893.232" fill="none" stroke="#231f20" stroke-miterlimit="10" stroke-width="3"/><line x1="673.816" y1="75.05" x2="-144.366" y2="893.232" fill="none" stroke="#231f20" stroke-miterlimit="10" stroke-width="3"/><line x1="684.517" y1="75.05" x2="-133.665" y2="893.232" fill="none" stroke="#231f20" stroke-miterlimit="10" stroke-width="3"/><line x1="695.217" y1="75.05" x2="-122.964" y2="893.232" fill="none" stroke="#231f20" stroke-miterlimit="10" stroke-width="3"/><line x1="705.918" y1="75.05" x2="-112.263" y2="893.232" fill="none" stroke="#231f20" stroke-miterlimit="10" stroke-width="3"/><line x1="716.619" y1="75.05" x2="-101.563" y2="893.232" fill="none" stroke="#231f20" stroke-miterlimit="10" stroke-width="3"/><line x1="727.32" y1="75.05" x2="-90.862" y2="893.232" fill="none" stroke="#231f20" stroke-miterlimit="10" stroke-width="3"/><line x1="738.021" y1="75.05" x2="-80.161" y2="893.232" fill="none" stroke="#231f20" stroke-miterlimit="10" stroke-width="3"/><line x1="748.721" y1="75.05" x2="-69.46" y2="893.232" fill="none" stroke="#231f20" stroke-miterlimit="10" stroke-width="3"/><line x1="759.422" y1="75.05" x2="-58.759" y2="893.232" fill="none" stroke="#231f20" stroke-miterlimit="10" stroke-width="3"/><line x1="770.123" y1="75.05" x2="-48.059" y2="893.232" fill="none" stroke="#231f20" stroke-miterlimit="10" stroke-width="3"/><line x1="780.824" y1="75.05" x2="-37.358" y2="893.232" fill="none" stroke="#231f20" stroke-miterlimit="10" stroke-width="3"/><line x1="791.525" y1="75.05" x2="-26.657" y2="893.232" fill="none" stroke="#231f20" stroke-miterlimit="10" stroke-width="3"/><line x1="802.226" y1="75.05" x2="-15.956" y2="893.232" fill="none" stroke="#231f20" stroke-miterlimit="10" stroke-width="3"/><line x1="812.926" y1="75.05" x2="-5.255" y2="893.232" fill="none" stroke="#231f20" stroke-miterlimit="10" stroke-width="3"/><line x1="823.627" y1="75.05" x2="5.446" y2="893.232" fill="none" stroke="#231f20" stroke-miterlimit="10" stroke-width="3"/><line x1="834.328" y1="75.05" x2="16.146" y2="893.232" fill="none" stroke="#231f20" stroke-miterlimit="10" stroke-width="3"/><line x1="845.029" y1="75.05" x2="26.847" y2="893.232" fill="none" stroke="#231f20" stroke-miterlimit="10" stroke-width="3"/><line x1="855.73" y1="75.05" x2="37.548" y2="893.232" fill="none" stroke="#231f20" stroke-miterlimit="10" stroke-width="3"/><line x1="866.43" y1="75.05" x2="48.249" y2="893.232" fill="none" stroke="#231f20" stroke-miterlimit="10" stroke-width="3"/><line x1="877.131" y1="75.05" x2="58.95" y2="893.232" fill="none" stroke="#231f20" stroke-miterlimit="10" stroke-width="3"/><line x1="887.832" y1="75.05" x2="69.65" y2="893.232" fill="none" stroke="#231f20" stroke-miterlimit="10" stroke-width="3"/><line x1="898.533" y1="75.05" x2="80.351" y2="893.232" fill="none" stroke="#231f20" stroke-miterlimit="10" stroke-width="3"/><line x1="909.234" y1="75.05" x2="91.052" y2="893.232" fill="none" stroke="#231f20" stroke-miterlimit="10" stroke-width="3"/><line x1="919.935" y1="75.05" x2="101.753" y2="893.232" fill="none" stroke="#231f20" stroke-miterlimit="10" stroke-width="3"/><line x1="930.635" y1="75.05" x2="112.454" y2="893.232" fill="none" stroke="#231f20" stroke-miterlimit="10" stroke-width="3"/></g></g><path d="M60,12.93h0A27.869,27.869,0,0,0,32.261,43.485l4.077,42.1A23.773,23.773,0,0,0,60,107.07h0A23.771,23.771,0,0,0,83.661,85.589l4.078-42.1A27.869,27.869,0,0,0,60,12.93Zm0,86.419A16.093,16.093,0,1,1,76.093,83.256,16.093,16.093,0,0,1,60,99.349ZM79.588,42.02A19.66,19.66,0,0,1,60,60h0A19.66,19.66,0,0,1,40.412,42.02,19.431,19.431,0,0,1,59.771,20.93h.458A19.431,19.431,0,0,1,79.588,42.02Z" fill="#231f20"/></svg>