<svg xmlns="http://www.w3.org/2000/svg" width="120" height="120" viewBox="0 0 120 120"><path d="M77.249,70.092l20.307-34.3a6.591,6.591,0,0,1,9.028-2.313h0a6.59,6.59,0,0,1,2.313,9.027L79.674,91.863A23.552,23.552,0,0,1,47.41,100.13L28.788,89.1a7.961,7.961,0,0,1-3.7-5.073l-10.7-46.7a7.94,7.94,0,0,1,6.285-9.578h0A7.94,7.94,0,0,1,29.9,33.97l3.019,14.793A18.023,18.023,0,0,0,41.4,60.668h0" fill="none" stroke="#231f20" stroke-linecap="round" stroke-miterlimit="10" stroke-width="6"/><rect x="68.607" y="39.423" width="14.259" height="38.457" rx="7.13" transform="translate(40.447 -30.403) rotate(30.628)" fill="none" stroke="#231f20" stroke-linecap="round" stroke-miterlimit="10" stroke-width="6"/><rect x="44.067" y="24.894" width="14.259" height="38.457" rx="7.13" transform="translate(29.621 -19.928) rotate(30.628)" fill="none" stroke="#231f20" stroke-linecap="round" stroke-miterlimit="10" stroke-width="6"/><rect x="57.205" y="28.989" width="14.259" height="41.864" rx="7.13" transform="translate(34.408 -25.812) rotate(30.628)" fill="none" stroke="#231f20" stroke-linecap="round" stroke-miterlimit="10" stroke-width="6"/></svg>