<svg xmlns="http://www.w3.org/2000/svg" width="13.26" height="13.261" viewBox="0 0 13.26 13.261"><title>ext-url</title><polygon points="7.699 8.319 11.472 4.546 13.198 6.272 13.198 0.12 7.045 0.12 8.792 1.866 5.018 5.639 7.699 8.319" fill="#fff"/><path d="M10.974,9.582v.312a1.082,1.082,0,0,1-1.08,1.081H3.367A1.082,1.082,0,0,1,2.286,9.894V3.367A1.083,1.083,0,0,1,3.367,2.286h.769V0H3.367A3.368,3.368,0,0,0,0,3.367V9.894a3.367,3.367,0,0,0,3.367,3.367H9.894A3.367,3.367,0,0,0,13.26,9.894V9.582Z" fill="#fff"/></svg>