<svg xmlns="http://www.w3.org/2000/svg" width="1439.858" height="147.636" viewBox="0 0 1439.858 147.636"><path d="M1.961,99.541c-2.1-.8-1.6,7.6-1.961,9.094C3.612,106.888,1.937,97.361,1.961,99.541Z" fill="#f3f4f4"/><polygon points="37.615 81.595 36.89 84.992 42.316 76.774 37.615 81.595" fill="#f3f4f4"/><path d="M70.41,82.75c-2.666-14.366-11.955,1.941-17.644-3.313l-.864-3.28-2.987,11.4C56.073,85.957,65.53,78.616,70.41,82.75Z" fill="#f3f4f4"/><path d="M86.957,114.149c-.91-5.588,3.929-4.669-4.025-1.864a11.309,11.309,0,0,1,.7,1.43A9.174,9.174,0,0,1,86.957,114.149Z" fill="#f3f4f4"/><path d="M83.628,113.715c-3.467.3,2.118,4.735,0,0Z" fill="#f3f4f4"/><path d="M99.676,111.019l-4.7,4.819c.85,3.309,4.877,4.174,3.3,6.51C103.026,119.777,102.166,116.487,99.676,111.019Z" fill="#f3f4f4"/><path d="M104.308,100.735l-2.422,2.027C102.257,104.15,102.866,104.647,104.308,100.735Z" fill="#f3f4f4"/><path d="M96.751,107.04l5.135-4.278c-.589-2.325-.518-6.953-2.344,1.53C100.08,100.078,98.967,104.108,96.751,107.04Z" fill="#f3f4f4"/><path d="M93.986,104.779c-2.458-3.183-5.7-5.236-.978-10.035C84.244,96.44,85.221,106.512,93.986,104.779Z" fill="#f3f4f4"/><path d="M72.534,68.042,69.25,63.76l-3.1,4.694C67.7,66.126,72.609,72.521,72.534,68.042Z" fill="#f3f4f4"/><path d="M127.8,119.271c.376-3.028-1.283-8.138-1.5-12.033l-3.467,3.382C124.487,112.752,127.7,114.765,127.8,119.271Z" fill="#f3f4f4"/><path d="M126.29,107.238l5.188-5.06C127.005,101.427,126.108,103.881,126.29,107.238Z" fill="#f3f4f4"/><polygon points="105.602 84.917 97.008 95.616 107.198 84.82 105.602 84.917" fill="#f3f4f4"/><polygon points="146.987 120.237 143.922 127.178 149.324 116.714 146.987 120.237" fill="#f3f4f4"/><path d="M159.763,119.4c-2.286,5.753,2.592,9.938.253,13.452,3.492-.938,6.6-5.845,9.4-10.256C166.509,125.013,163.516,124.278,159.763,119.4Z" fill="#f3f4f4"/><path d="M174.079,116.178a37.023,37.023,0,0,0-4.667,6.413A18.913,18.913,0,0,0,174.079,116.178Z" fill="#f3f4f4"/><path d="M140,103.942c.333,1.847.936,6.674,3.693,8.789l-1.717-8.6C141.371,104.062,140.689,104,140,103.942Z" fill="#f3f4f4"/><path d="M141.912,103.854l.061.276c2.141.252,3.624.491,4.258.608C145.686,104.644,144.385,104.39,141.912,103.854Z" fill="#f3f4f4"/><path d="M139.5,103.889a4.236,4.236,0,0,0,.5.053C139.832,103.1,139.726,102.811,139.5,103.889Z" fill="#f3f4f4"/><path d="M118.548,93.05c3.1-4.684,9.415-9.62,3.677-17.084C119.927,81.748,123.213,86,118.548,93.05Z" fill="#f3f4f4"/><path d="M137.369,93.135l-5.281-2.116c.036,2.258.9,5.578-.636,7.9Z" fill="#f3f4f4"/><polygon points="140.067 90.502 137.369 93.135 139.327 93.917 140.067 90.502" fill="#f3f4f4"/><path d="M165.174,107.905c2.42-3.648,4.953-3.885,7.822-4.392a19.119,19.119,0,0,0-9.136-2.85C163.355,103.335,161.89,108.107,165.174,107.905Z" fill="#f3f4f4"/><path d="M153.892,105.186c.165-.189.373-.281.528-.472C154.127,103.983,153.881,103.741,153.892,105.186Z" fill="#f3f4f4"/><path d="M201.06,104.427c-.142-.475-.259-1.063-.4-1.568-.051.5-.09.976-.15,1.473Z" fill="#f3f4f4"/><path d="M163.4,99.057c-2.247-1.72-3.682.328-5.071,2.924a13.263,13.263,0,0,1,5.535-1.318C164.088,99.46,164.147,98.661,163.4,99.057Z" fill="#f3f4f4"/><path d="M182.03,112.424a29.7,29.7,0,0,0-3.834-4.817C179.283,110.348,181.539,114.637,182.03,112.424Z" fill="#f3f4f4"/><path d="M155.122,107.1a2.21,2.21,0,0,1-.355.37C155.464,109.328,155.4,108.427,155.122,107.1Z" fill="#f3f4f4"/><path d="M155.122,107.1a22.547,22.547,0,0,0,3.2-5.119,12.053,12.053,0,0,0-3.905,2.733A13.822,13.822,0,0,1,155.122,107.1Z" fill="#f3f4f4"/><path d="M211.234,49.847c-.646,7.9-6.908,15.041-11.86,6.39-5.311,5.779-2.751,31.923,1.283,46.622.264-3.449.361-6.642,5.782-11.156-1.716-4.381-11.4-10.469-6.732-17.5,7.116-3.867,5.644,2.976,8.915,7.267-2.588-9.957,9.333-14.088,8.252-28.64l-6.286,4.919C210.541,55.493,212.874,51.958,211.234,49.847Z" fill="#f3f4f4"/><path d="M190.625,101.743l-2.2.912c2.434,1.46,4.11,4.677,7.184,10.974,3.731-3.754,4.571-6.67,4.9-9.3l-10.661-1.43Z" fill="#f3f4f4"/><path d="M178.671,102.4c1.958-8.567,7.286-12.07,4.375-21.489-6.391.4-4.685,7.058-8.607,10.681,10.351-1.824-3.1,4.7,4.182,9.819A13.362,13.362,0,0,1,173,103.513a27.02,27.02,0,0,1,5.2,4.094c-.088-.2-.149-.346-.219-.543l-.05.027c0-.058.013-.078.015-.136-.411-1.087-.537-1.745-.056-1.106.037-.105.163-.141.22-.169a22.343,22.343,0,0,1,.563-3.237c2.925,1.868.4,2.252-.563,3.237-.047.419-.141.818-.164,1.275a.377.377,0,0,0,.035.109l10.446-4.409C186.279,101.4,183.541,101.557,178.671,102.4Z" fill="#f3f4f4"/><path d="M128.285,57.608a5.123,5.123,0,0,1,.269,2.011C129.252,58.584,129.527,57.87,128.285,57.608Z" fill="#f3f4f4"/><path d="M132.365,62.938c-.786,1.179-1.515,4.606-3.923,3.643-2.033-2.652.136-4.128.112-6.962-1.537,2.238-5.325,6.022-.85,10.349l.764-1.15c4.058,3.086,9.059,14,8.3,15.154A100.168,100.168,0,0,0,132.365,62.938Z" fill="#f3f4f4"/><path d="M155.881,80.481l8.708-3.966-4.142-7.59.085,4.486C155.707,71.505,156.592,77.053,155.881,80.481Z" fill="#f3f4f4"/><polygon points="201.911 108.74 200.496 117.803 205.843 105.109 201.911 108.74" fill="#f3f4f4"/><polygon points="213.093 107.989 212.44 115.892 215.528 111.208 213.093 107.989" fill="#f3f4f4"/><path d="M845.247,29.006l2.589-2.168A7.653,7.653,0,0,0,845.247,29.006Z" fill="#f3f4f4"/><path d="M827.012,27.912l-.566,3.883C827.356,29.672,827.751,28.1,827.012,27.912Z" fill="#f3f4f4"/><path d="M486.944,115.445c3.446,7.5,7.2,19.086,7.027,10.171l-.863-8.7C490.5,118.386,488.557,117.361,486.944,115.445Z" fill="#f3f4f4"/><path d="M676.052,69.379c-.323-.851-.659-1.769-.993-2.668-.983,2.94-1.906,5.667-2.733,8.221C673.448,73.187,674.719,71.331,676.052,69.379Z" fill="#f3f4f4"/><path d="M679.737,33.566l4.671,5.741A19.247,19.247,0,0,0,679.737,33.566Z" fill="#f3f4f4"/><path d="M945.206,22.849l3.211-8.745C943.813,14.014,945.7,18.526,945.206,22.849Z" fill="#f3f4f4"/><path d="M327.381,108.277c3.065,3.483,5.543,4.985,7.746,5.472C331.461,108.655,328.609,101.085,327.381,108.277Z" fill="#f3f4f4"/><path d="M835.26,120.825a7.031,7.031,0,0,0,2.317-5.206A5.735,5.735,0,0,0,835.26,120.825Z" fill="#f3f4f4"/><path d="M344.28,114a25.037,25.037,0,0,0-1.612-2.09c-2.361,1.383-4.728,2.483-7.541,1.841C337.834,117.545,340.993,119.927,344.28,114Z" fill="#f3f4f4"/><path d="M1306.5,41.052a9.252,9.252,0,0,1,.786,1.06C1307.4,40.943,1307.036,40.864,1306.5,41.052Z" fill="#f3f4f4"/><path d="M1409.147,131.779c-1.053.506-2.746.465-4.344.532C1405.562,132.93,1406.867,132.912,1409.147,131.779Z" fill="#f3f4f4"/><path d="M257.838,113.142c-2.382.494-.4.946,0,0Z" fill="#f3f4f4"/><path d="M247.383,78.492a9.376,9.376,0,0,0,1.073-4.19A11.976,11.976,0,0,1,247.383,78.492Z" fill="#f3f4f4"/><path d="M369.479,60.737c.07,0,.124.034.2.036C369.031,59.053,369.142,59.38,369.479,60.737Z" fill="#f3f4f4"/><path d="M254.4,109.09a11.008,11.008,0,0,0,2.945,2.669A11.711,11.711,0,0,0,254.4,109.09Z" fill="#f3f4f4"/><path d="M254.754,113.2c-.8-.414-1.438-.65-2.042-.9C252.37,113.738,252.607,114.654,254.754,113.2Z" fill="#f3f4f4"/><path d="M261.146,112.775a6.823,6.823,0,0,1-3.8-1.016c.447.6.627,1.095.493,1.383A31.708,31.708,0,0,1,261.146,112.775Z" fill="#f3f4f4"/><path d="M1112.09,58.359a7.866,7.866,0,0,1,.482.837C1115.067,55.667,1114,56.211,1112.09,58.359Z" fill="#f3f4f4"/><path d="M551.232,27.255c-.113.084-.179.308-.283.411.108.091.244.214.341.315Z" fill="#f3f4f4"/><path d="M559.922,21.052c-3.946,10.685-5.962,9.3-8.632,6.929l2.047,25.094Z" fill="#f3f4f4"/><path d="M889.024,27.839,883.3,19.867c7.59-12.606,12.664-8.026,7.4-19.157-1.671,27.129-23.267,2.076-24.924,29.176l-3.757-5.831c1.118.3,1.347-1.3,2.452-.99-7.25-13.235-6.278,19.458-16.013,15.291-3.369-2.183-5.645-6.2-3.206-9.35l-7.856,6.482c-2.209-.593-1.522-5.293.679-4.707l-11.735,1.811.111-.8a94.341,94.341,0,0,1-7.7,13.424c-2.846-3.985,1.575-2.836.92-6.245l-6.663,6.382c-2.417-7.117,3.146-13.779,7.578-12.637-5.208-27.29-5.569,6.669-18.109-9.56l6.206-3.259c-3.464-15.523-8.395-10.084-15-19.9,1.483,5.068,13.072,24.62,5.853,31.169-1.913-2.109-4.489-3.164-8.438,2.186.259-9.655-3.506-7.4-8.145-6.99l.705-12.778c-5.11,3.538-4.913,10.061-8.029,15.731-5.531-1.43-6.384-11.372-7.441-19.758-8.857-2.3,5.675,16.068-4.955,18.157-7.269-5.116-12.636-.053-21.743,7.331-5.058-4.562,1.146-7.793-.605-11.51L735.971,33.6c-1.119-.278-.66-3.4-.427-4.977-4,3.836-.709,12.769-6.911,16.057-2.073,14.035-11.889-20.966-19.921-5.2-1.749-3.687,1.136-7.809.719-12.776-10.672,10.177-9.107,7.352-18.038,21.218l-6.985-8.615c5.028,9.766-2.117,20.922-8.356,30.072,1.747,4.693,3.235,8.8,4.259,10.768L670.6,86.721c-1.084-2.134.007-6.5,1.727-11.789-.68,1.033-1.327,2.06-1.835,3.011-3.254-4.827-1.267-12.154,1.385-19.224,1.081,2.554,2.148,5.283,3.183,7.992,2.583-7.7,5.041-16.232,4.781-23.733a7.247,7.247,0,0,1-3.22,3.359c.677-2.088,1.127-3.961.882-5.247-.282-1.357-1.359,1.443-3.013,4.656l-1.726-14.317-.7,5.645-12.16-9.3c-9.332,14.079-17.713,34.965-32.01,40.42,3.821-10.346,1.273-17.049,1.841-29.429,3.452,13.227,11.1-5.241,18.34-2.353-3.777-1.492-2.757-7.371-1.723-9.4L632.942,38.539c.6-10.122-2.54-7.679-5.821-11.971,1.966,20.1-10.134,13.037-15.631,19.017-.124-6.737,1.358-13.559,7.787-11.742-6.688-15.289-9.952,23.233-16.578,10.213,1.588-.117,2.409.942,3.138-2.455-3.877,5.862-12.765.853-10.462-4.939l1.583-.09C586.529,33.881,565,35.452,562.91,52.408c-.038-2.2,2-20.457,2.741-23.874L545.17,85.175c2.1-14.553-3.181-49.526,5.779-57.509-2.436-2.155-5.456-4.678-10.884.315,1.642,2.131,3.608,21.241,1.236,22.508-5.9-16.458-4.177-8.832-11.64-22.933,2.461,3.21-1.078,26.023-5.095,25.168.735-3.407.352-22.616,1.9-24.954L515.726,49.943c2.633-3.973,1.024-19.039-1.032-25.463.909,4.436-8.682-.675-11.431,1.471l4.1,5.341c-11.251-3.742-12.179,31.274-23.407,29.751,1.5-4.606,4.239-28.478-1.4-31.484C479.58,41,469.243,84.589,459.007,93.148L457.3,86.51l-7.875,7.264c5.29-17.181,19.763-53.231,27.492-67.192-4.09-5.341-.947-7.794-7.328-7.395-2.059-6.237,3.754-9.254,5.637-9.558L460.528,5.2c.249,13.47-11.74,13.134-11.516,24.348L465.527,16.1c.243,13.432-10.466,37.863-20.891,35.17-2.508-5.429,2.726-23.862,2.644-28.35-1.5,4.586-10.232,8.53-11.1,5.222l4.672-7.049c-5.689-5.234-10.079,17.523-16.711,4.483-2.4-.933-6.71-17.527-7.371-9.585,3.485,15.455,2.812,62.919-.174,74.355-.818-1.059-12.28-15.049-14.816-22.708-3.625-12.146,6.865-28.476,3.782-38.907-.258,3.666-2.6,8.129-3.564,9.556-2.45-3.212,1.4-11.34-4.182-9.85-1.338,13.6-11.214-1.494-2.966,11.439-5.529,3.73-5.664-2.976-12.036-2.576,1.754,8.868-6.618,29.8-12.157,33.514.426-3.455-.654-8-1.181-10.081-11.053-1.567-16.818-7.936-27.156-8.369-.853-3.328-5.721-7.474-3.417-13.274-1.561,2.365-3.068,6.941-6.269,7.176-5.814-11.971,7.168-1.618,2.894-15.917-.643,7.9-8.583,10.671-13.276,15.482C323.28,58.108,332.68,48.5,337.38,43.7c-.492,16.869-8.951,34.293-20,41.764-8.719,3.927-3.393-11.016-4.957-8.661-16.046-3.44-14.645,29.04-27.673,16.459-4.989-10.909.412-21.393-.531-29.18,7.123-3.857,10.536,7.15,15.292,6.865l-5.684-5.263c2.335-3.5,7.089-6.075,9.54-2.883-4.162-9.791-27.205-2.686-39.384-11.977-2.321,3.535-6.253,7.146-4.578,11.525l3.985-1.383c3.356,8.779-7.779,11.761-2.916,15.963-5.47,5.93-11.685,15.325-18.975,10.2l-1.024-12.3c.05,3.587,4.64,7.45,6.845,3.776-3.267,5.341-10.9-16.932-14.788-.989l4.956,8.651c-5.493,6-12.448,18.809-18.922,14.742,2.631,12.2,1.562-1.339,5.815,12.967-3.524-17.743,16.842,1.256,10.882-17.46,4.306,16.585,8.107,7.224,13.964,21.431-.071-4.046-1.99-7.8,3.483-5.638a22,22,0,0,1,1.323-3.526,2.652,2.652,0,0,1,.365.314c-.106-.16-.183-.338-.291-.487.258-.6.284-.724-.109-.17a15.342,15.342,0,0,1-2.632-6.235c3.03-9.2,11.822-8.638,14.945-13.349,3.225,2.021-1.515,4.594.146,8.963l4.665-7.049c.166,8.995,8.27,15.181.373,20.206l6.951.612c3.946,5.163,9.524,7.336,13.117,3.664,3.224,2.043,8.6-9.685,5.523-2.743l11.09-5.231.032,2.248c10.74,1.46,22.633-14.191,34.458,2.389,3.7-2.154,7.53-4.813,13.52-2.079l.946,7.8c4.739-2.571,13.749,8.2,16,.166,4.387,21.051,22.465,5.249,30.542,9.206l.619-10.131c5.62.747,11.114-1.967,18.236-5.826l-.157-8.972c6.258-7.177,15.318,6.845,24.89,6.219-.753,3.406-3.146,2.435-4.8.314,10.785,20.592,24.505-14,34.4,1.068,2.676-3.182,4.509-2.013,6.247.3a.889.889,0,0,0-.653.45,2.71,2.71,0,0,0,1.055.14c1.09,1.576,2.207,3.407,3.434,4.881a18.65,18.65,0,0,0-2.865-4.894,16.935,16.935,0,0,0,8.064-3.3l.965,9.663a5.5,5.5,0,0,0,.691-.253c2.791,3.641,2.47-4.487,1.144-11.776a21.329,21.329,0,0,0,4.085-5.688c1.881,15.61,7.91-5,10.62,11.674,2.238-8.021,15.039-5.628,17.131-22.582.033,2.218.872,3.3-.728,3.387,3.235,2.042,6.467,4.075,9.568-.627l1.025,12.283,7.693-16.239c4.142,7.592,5.821,11.981,1.2,21.269,10.917-14.166,8.666-5.2,18.012-19.285l-.675,7.9c3.193-.2,8.607-10.65,10.328-4.051,6.666,15.258,35.185,3.154,53.045,17.688-2.837-23.407,8.181,10.7,9.456-7.333.9,5.538,3.351,8.73.243,13.432,9.5-5.131,13.755,9.165,20.662-5.868.9,5.568-2.243,8.022-1.393,11.321.785-1.168,3.111-4.7,3.982-1.383.851,3.309-1.507,4.586-3.058,6.942,9.561-.637,11.043-17.592,12.222-33.511,4.6,7.693,7.044,6.7,10.851-3.645,1.523,5.263,4.162,10.806-1.818,12.5,3.309.863,20.123,8.265,20.852-4.5.946,3.273,4.629,1.09,5.552-.359,7.454.99,8.076,2.161,15.455,1.176l-1.971-2.152c3.369-15.324,6.208-3.25,12.184-4.925l-.218,1.576c13.234,11.533,6.022-5.15,19.026,7.948l-.437-9.608c1.877-20.586,11.493,12.524,19.5,4.874l-2.639-5.56c4.459-6.93,11.009,28.4,15.193,31.111.874,1.823-1.555,2.834-2.892,4.122,10.788,12.5,1.829-12.518,10.233-15.184,1.327,6.822-2.5,17.168,3.057,18.6,2.621,5.571,16.905-21.5,24.145-8.272-1.524-5.273-3.036-10.536.946-14.342,5.977-1.685,15.4,20.225,21.252,3.929a9.064,9.064,0,0,1,.944,4.123c4.654-4.108,14.922-6.609,17.92-15.447,3.172,33.248,28.625-15.249,27.593,15.291l13.971-1.215-.459,3.112c8.836,2.292,12.205-4.933,15.556-12.168,1.994,2.142.406,4.945.186,6.541,12.814,6.555,14.146,5.3,25.51-9.587l.832,9.942c3.13-5.67,18.323,16.111,31.426,4.943a9.549,9.549,0,0,1-1.537,4.4c14.7-11.189,33.508,28.534,39.865-7.393l9.739-8.6c-12.163-3.176,2.3-15.6-2.555-21.75,4.881-1.97,12.121,11.265,6.146,12.937l-.871-1.833c-2.748,18.743,15.017,7.131,14.3,19.927,24.13-.191,47.3,10.938,69.856,12.428l-2.155-14.7,7.849,1.08c1.963,3.469,2.425,11.525-3.174,10.748,2.7,8.378,9.633-6.651,9.891-9.829,10.819,6.26-4.817,16.921-1.454,17.376l4.614-.954-.98-1.741c3.895-5.86,4.417-12.185,11.148-11.255,4.184,3.057,1.917,9.084,3.582,9.7-.042,1.035.511,1.541,2.566.5l9.884,1.551-3.615-11.667c4.571-5.557,9.311.89,5.131-12.329,6.106,20.371,36.789,8.37,40.725,14.753,6.415-8.226,12.49-7.9,19.99-6.65-1.8-2.458-2.524-15.474,3.924-13.687-3.192,26.713,11.54,11.989,16.2,31.418-4.3-12.921,18.563-2.591,11.754-20.961,5.354,2.332.024,10.035,3.944,16.465,13.217-9.982,28.224,7.612,44.277,4.594.356-3.507-2.151-8.966,1.429-14.094l7.883,17.837c3.2-1.631,3.518-20.206,8.9-7.829-.722-2.983-1.8-7.48.347-8.539,30.716,18.084,64.261-12.09,95,21.07-4.089-6.946-1.205-7.532,2.084-7.686-2.084-1.694.313-8.685.039-13.461l12.878,13.641c2.823-13.152,14.267-.464,16.038-13.062l-4.275,2.145c6.049-14.755-6.815-33.407-5.413-52.533-6.78,16.775-15.749-25.628-26.764-1.657-2.15-3.973,2.122-6.108,1.045-10.587-2.856,8.129-6.053,9.742-11.77,5.885l.721-2.011c-16.437,1.5-23.212-6.8-41.445-12.753l1.074,9.509c-3.915-1.388-4.657-4.382-6.435-6.809-4.975,14.219,11.079,1.148,6.463,16.855-4.657-19.429-27.871-1.142-30.747-23.146-6.079-.3,1.448,11.017-4.627,10.7l-1.432-5.974-1.769,7.587c-3.949-1.38-5.735-8.85-5.731-13.873.949.626,2.793-1.321,3.843-1.719-4.958-7.137-14.652,1.938-16.358-.391l5.732,3.829c-16.767,5.037-36.795-3.359-53.2,8.2l1.08,4.509c-12.5,7.893-9.658-5.209-23.219-1.792l.521-1.051c-2.826,4.37-6.488,6.5-10.152,5.885,3.555-5.128-6.077-10.366-1.448-16.017-13.548,8.467-6.78,6.769-16.056,23.1l-1.8-7.47c-3.193,6.614-3.551,10.141-10.324,11.859,5.7-6.2-3.941-11.425,2.485-19.651-13.6-16.642-21.421,15.733-27.163-8.175-7.095,20.321,11.846,11.764,8.089,16.045,2.829,6.8-5.809,15.172-10.168,12.977-4.487-.595-6.853-26.479-18.187-26.435,1.123.133,1.247-1.418,2.368-1.3-4.078-5.361-8.518,6.834-13.457-1.827-3.291,12.318-6.726-.917-8.048,14.88l10.5-3.344c-6.014,3.959-12.1,22.308-21.526,13.032.853-3.169,3.867-7.279,5.921-9.562-2.694-4.752-5.556,2.928-8.35-1.953,1.321-15.817,12.727-3.062,19.4-14.944-2.84-6.78-12.282,11.1-8.589-5.948-5.222,21.669-11.072-3.093-19.247,13.326l.794-9.473c-1.258,1.457-3.909,5.862-6.134,5.55l4.417-12.177c-6.527,10.3-11.688-9.541-17.816-4.011,12.476.086,2.45,11.516,7.51,18.6-15.763,12.229-8.086-25.084-25.44-21.059,2.371-1.266,8.576,5.966,4.8,10.249-3.217-2.053-7.434-5.825-9.294-10.864-11.466,1.623,1.454,9.813-3.579,15.492-3.531-11.675-5.744,4.535-10.857,8.083l.259-9.647c-12.809-6.583-4.059,19.994-15.532,12.161l5.353-13.223-6.206,3.27,1.593-10.932c-6.884,7.938-8.887,5.766-15.3,2.493,1.3,6.841-1.383,17.476-7.149,17.6-3.752-5.849,2.478-9.1-5.724-7.97,2.026-5.977,4.275-13.49,7.556-4.5.459-3.133,2-6,2.47-9.091-4.027-6.716-10.58-1.825-13.537-1.829a4.911,4.911,0,0,1,3.126,2.352l-12.237,13c-1.752-3.679-.186-6.542,1.364-9.346-2.428.97-4.221,5.352-7.769,6.074,1.151-7.811,1.179-15.91,6.278-19.448l-11.536,8.354c-.649-3.429-5.5-9.537-3.947-12.381-6.109-4.8-15.792,14.741-23.891,8.408a6.883,6.883,0,0,1-3.18,4.005c-7.731-2.013-14.336-11.839-23.892-1.373L913,13c-7.325,2.97,6.548,17.922-5.647,22.857-8.657,4.22-2.815-12.086-5.685-16.091-4.453,6.958-12.259,21.15-19.737,9.473C884.6,26.668,886.572,28.809,889.024,27.839ZM799.7,31.35c1.789-1.969,5.423-8.111,6.512-2.381C803.908,39.958,802.548,34.622,799.7,31.35ZM663.5,50.441c1.382-3.151,3.319-1.509,5.45,2.209C667.294,53.39,665.463,52.974,663.5,50.441ZM284,106.084a3.14,3.14,0,0,0,.2-.462C287.932,109.5,286.611,107.972,284,106.084Zm-7.873-4.43a5.023,5.023,0,0,0-.532,4.018c.633-2.424,2.435-2.535,4.46-1.789C279.559,101.339,278.579,99.56,276.123,101.654Zm859.246,22.387-1.48-2.574C1137.489,118.8,1136.428,121.28,1135.369,124.041Z" fill="#f3f4f4"/><path d="M679.261,37.714a23.681,23.681,0,0,1,.579,5.264A4.884,4.884,0,0,0,679.261,37.714Z" fill="#f3f4f4"/><path d="M944.612,24.463c.089.081.179.054.268.117a9.947,9.947,0,0,0,.326-1.731Z" fill="#f3f4f4"/><path d="M402.54,23.661a10.7,10.7,0,0,1,3.025,5.074C405.726,26.377,405.038,24.363,402.54,23.661Z" fill="#f3f4f4"/><path d="M233.229,116.75l5.2-2.352c-2.493.4-3.314-1.734-4.519-3.3C233.957,113.353,234.837,116.643,233.229,116.75Z" fill="#f3f4f4"/><path d="M190.569,55.714c-.785,1.159-1.592.08-2.367,1.257l.068,4.488C191.469,61.262,193.809,57.718,190.569,55.714Z" fill="#f3f4f4"/><path d="M229.462,84.561c-.159-8.125-3.457-5.47-7.093-4.076A1.066,1.066,0,0,1,223,80.5C221.6,91.824,225.54,88.183,229.462,84.561Z" fill="#f3f4f4"/><path d="M221.529,80.733a4.951,4.951,0,0,1-3.325.1C217.645,85.371,219.521,81.824,221.529,80.733Z" fill="#f3f4f4"/><path d="M265.812,106.722c-1.638-2.141-1.384,10.343-2.247,7.005C261.35,124,275.3,101.579,265.812,106.722Z" fill="#f3f4f4"/><polygon points="227.37 57.744 228.352 67.799 230.609 59.788 227.37 57.744" fill="#f3f4f4"/><path d="M255.49,65.959l-5.651-2.948a3.885,3.885,0,0,1-1.642,3.37C251.721,66.82,255.534,68.932,255.49,65.959Z" fill="#f3f4f4"/><path d="M248.2,66.381c-1.835-.25-3.592-.09-4.667,1.518A9.07,9.07,0,0,0,248.2,66.381Z" fill="#f3f4f4"/><polygon points="235.303 54.977 236.935 57.117 240.962 57.975 235.303 54.977" fill="#f3f4f4"/><path d="M317.089,69.771l6.348-2.68c.742-3.415-.9-5.566-3.272-4.271C318.593,65.167,316.23,66.423,317.089,69.771Z" fill="#f3f4f4"/><path d="M298.994,41.765c1.629,2.131,1.675,4.369,2.529,7.7l.569-12.411Z" fill="#f3f4f4"/><path d="M317.337,39.423c.729-3.428,9.387-9.611,1.429-9.073C318.027,33.747,311.67,36.417,317.337,39.423Z" fill="#f3f4f4"/><polygon points="411.182 58.002 409.584 58.112 409.193 78.479 411.182 58.002" fill="#f3f4f4"/><path d="M495.8,11.829c-7.269-5.106-2.144,12.508-8.662,6.215-1.888,4.758,5.328,5.134,3.415,9.238C495.185,22.343,497.449,25.283,495.8,11.829Z" fill="#f3f4f4"/><path d="M490.553,27.282a20.941,20.941,0,0,0-2.379,3.025A9.868,9.868,0,0,0,490.553,27.282Z" fill="#f3f4f4"/><polygon points="1426.289 143.245 1430.931 147.636 1428.06 140.699 1426.289 143.245" fill="#f3f4f4"/><path d="M1435.907,128.423l.728,13.008,3.223-11.655C1438.763,130.319,1436.637,131.376,1435.907,128.423Z" fill="#f3f4f4"/><path d="M787.246,4.806l-.459,3.114c.635,3.4,1.744,3.686,3.965,4.282Z" fill="#f3f4f4"/><polygon points="851.644 16.489 850.538 16.194 852.261 27.99 851.644 16.489" fill="#f3f4f4"/><path d="M906.4,3.181c-2.2-.555-4.886,1.982-7.1,1.417C904.2,2.626,906.549,17.831,906.4,3.181Z" fill="#f3f4f4"/></svg>