<svg xmlns="http://www.w3.org/2000/svg" width="101.634" height="82.838" viewBox="0 0 101.634 82.838"><title>hinky</title><path d="M66.066,46.511l20.308-34.3A6.59,6.59,0,0,1,95.4,9.9h0a6.59,6.59,0,0,1,2.313,9.027L68.492,68.282a23.552,23.552,0,0,1-32.265,8.267L17.605,65.523a7.958,7.958,0,0,1-3.7-5.073L3.2,13.75A7.941,7.941,0,0,1,9.487,4.172h0a7.94,7.94,0,0,1,9.234,6.217l3.02,14.793a18.022,18.022,0,0,0,8.477,11.905h0" fill="none" stroke="#231f20" stroke-linecap="round" stroke-miterlimit="10" stroke-width="6"/><rect x="57.424" y="15.842" width="14.259" height="38.457" rx="7.13" stroke-width="6" fill="none" stroke="#231f20" stroke-linecap="round" stroke-miterlimit="10" transform="translate(26.873 -27.995) rotate(30.628)"/><rect x="32.885" y="1.313" width="14.259" height="38.457" rx="7.13" stroke-width="6" fill="none" stroke="#231f20" stroke-linecap="round" stroke-miterlimit="10" transform="translate(16.048 -17.52) rotate(30.628)"/><rect x="46.022" y="5.408" width="14.259" height="41.864" rx="7.13" stroke-width="6" fill="none" stroke="#231f20" stroke-linecap="round" stroke-miterlimit="10" transform="matrix(0.86, 0.509, -0.509, 0.86, 20.835, -23.405)"/></svg>