<svg xmlns="http://www.w3.org/2000/svg" width="120" height="120" viewBox="0 0 120 120"><rect x="9.132" y="68.718" width="20.348" height="41.283" rx="2.973" fill="none" stroke="#231f20" stroke-linecap="round" stroke-miterlimit="10" stroke-width="6"/><path d="M29.479,106.186l38.142,6.328a22.756,22.756,0,0,0,11.831-1.184L107.5,100.644a5.222,5.222,0,0,0,2.882-7.067h0a5.22,5.22,0,0,0-5.878-2.908l-26.3,5.87a9.873,9.873,0,0,1-6.415-.73L54.425,87.5l9.4,4.5a6.805,6.805,0,0,0,7.1-.759l.58-.449A6.8,6.8,0,0,0,74,84.021h0A6.8,6.8,0,0,0,70.9,79.606L60.106,73a17.949,17.949,0,0,0-11.654-2.5L29.479,72.925Z" fill="none" stroke="#231f20" stroke-linecap="round" stroke-linejoin="round" stroke-width="6"/><path d="M54.513,70.353V16.071c0-2.163,3.5-3.914,5.048-4.945s2.113-3.948,2.113-3.948H97.84s.568,2.918,2.113,3.948S105,13.908,105,16.071V82.616c0,2.163-3.5,3.915-5.048,4.945s-2.113,3.948-2.113,3.948H71.507" fill="none" stroke="#231f20" stroke-linecap="round" stroke-linejoin="round" stroke-width="6"/><line x1="61.17" y1="19.218" x2="98.344" y2="19.218" fill="none" stroke="#231f20" stroke-linecap="round" stroke-linejoin="round" stroke-width="3"/><line x1="72.914" y1="80.457" x2="98.344" y2="80.457" fill="none" stroke="#231f20" stroke-linecap="round" stroke-linejoin="round" stroke-width="3"/><path d="M94.745,48.832l-3.336-.615a11.632,11.632,0,0,0-1.281-6.008l2.794-1.924a1.471,1.471,0,0,0-1.669-2.423L88.46,39.785a11.637,11.637,0,0,0-5.155-3.342l.615-3.335a1.471,1.471,0,1,0-2.893-.534l-.616,3.335A11.639,11.639,0,0,0,74.4,37.191L72.48,34.4a1.471,1.471,0,1,0-2.423,1.669l1.923,2.793a11.637,11.637,0,0,0-3.342,5.155L65.3,43.4a1.471,1.471,0,1,0-.534,2.893l3.335.616a11.639,11.639,0,0,0,1.282,6.007l-2.794,1.923a1.472,1.472,0,0,0,1.669,2.424l2.793-1.923a11.627,11.627,0,0,0,5.155,3.341l-.616,3.336a1.471,1.471,0,0,0,2.894.534l.615-3.336a11.632,11.632,0,0,0,6.008-1.281l1.924,2.794a1.471,1.471,0,0,0,2.423-1.669l-1.923-2.793a11.627,11.627,0,0,0,3.341-5.155l3.336.616a1.471,1.471,0,0,0,.534-2.894Zm-10.808,4.8a7.37,7.37,0,1,1,3.07-4.734A7.341,7.341,0,0,1,83.937,53.634Z" fill="#231f20"/></svg>