<svg xmlns="http://www.w3.org/2000/svg" width="447.546" height="172.678" viewBox="0 0 447.546 172.678"><title>spinner-can-content</title><path d="M264.524,89.793l-9.07-1.674a31.631,31.631,0,0,0-3.483-16.335l7.595-5.229a4,4,0,1,0-4.536-6.589l-7.6,5.229a31.635,31.635,0,0,0-14.015-9.086l1.674-9.069a4,4,0,0,0-7.867-1.452l-1.674,9.069a31.629,31.629,0,0,0-16.334,3.485l-5.229-7.6a4,4,0,1,0-6.589,4.536l5.228,7.6a31.641,31.641,0,0,0-9.085,14.015l-9.069-1.674a4,4,0,0,0-1.452,7.868l9.069,1.673a31.639,31.639,0,0,0,3.485,16.334l-7.6,5.229a4,4,0,0,0,4.536,6.59l7.6-5.229a31.638,31.638,0,0,0,14.014,9.085l-1.673,9.069a4,4,0,0,0,7.867,1.452l1.673-9.069a31.642,31.642,0,0,0,16.335-3.484l5.229,7.595a4,4,0,1,0,6.589-4.536L244.918,110A31.631,31.631,0,0,0,254,95.986l9.07,1.674a4,4,0,1,0,1.452-7.867Zm-29.385,13.056a20.044,20.044,0,1,1,8.345-12.872A19.959,19.959,0,0,1,235.139,102.849Z" fill="#231f20"/><line x1="171.961" y1="4" x2="147.717" y2="4" fill="none" stroke="#231f20" stroke-linecap="round" stroke-linejoin="round" stroke-width="8"/><line x1="299.829" y1="4" x2="275.585" y2="4" fill="none" stroke="#231f20" stroke-linecap="round" stroke-linejoin="round" stroke-width="8"/><line x1="275.585" y1="4" x2="299.829" y2="4" fill="none" stroke="#231f20" stroke-linecap="round" stroke-linejoin="round" stroke-width="8"/><line x1="147.717" y1="4" x2="171.961" y2="4" fill="none" stroke="#231f20" stroke-linecap="round" stroke-linejoin="round" stroke-width="8"/><line x1="257.683" y1="4" x2="189.863" y2="4" fill="none" stroke="#231f20" stroke-linecap="round" stroke-linejoin="round" stroke-width="8"/><line x1="189.863" y1="4" x2="257.683" y2="4" fill="none" stroke="#231f20" stroke-linecap="round" stroke-linejoin="round" stroke-width="8"/><line x1="325.742" y1="4" x2="443.546" y2="4" fill="none" stroke="#231f20" stroke-linecap="round" stroke-linejoin="round" stroke-width="8"/><line x1="4" y1="4" x2="121.805" y2="4" fill="none" stroke="#231f20" stroke-linecap="round" stroke-linejoin="round" stroke-width="8"/><line x1="171.961" y1="168.678" x2="147.717" y2="168.678" fill="none" stroke="#231f20" stroke-linecap="round" stroke-linejoin="round" stroke-width="8"/><line x1="299.829" y1="168.678" x2="275.585" y2="168.678" fill="none" stroke="#231f20" stroke-linecap="round" stroke-linejoin="round" stroke-width="8"/><line x1="275.585" y1="168.678" x2="299.829" y2="168.678" fill="none" stroke="#231f20" stroke-linecap="round" stroke-linejoin="round" stroke-width="8"/><line x1="147.717" y1="168.678" x2="171.961" y2="168.678" fill="none" stroke="#231f20" stroke-linecap="round" stroke-linejoin="round" stroke-width="8"/><line x1="257.683" y1="168.678" x2="189.863" y2="168.678" fill="none" stroke="#231f20" stroke-linecap="round" stroke-linejoin="round" stroke-width="8"/><line x1="189.863" y1="168.678" x2="257.683" y2="168.678" fill="none" stroke="#231f20" stroke-linecap="round" stroke-linejoin="round" stroke-width="8"/><line x1="325.742" y1="168.678" x2="443.546" y2="168.678" fill="none" stroke="#231f20" stroke-linecap="round" stroke-linejoin="round" stroke-width="8"/><line x1="4" y1="168.678" x2="121.805" y2="168.678" fill="none" stroke="#231f20" stroke-linecap="round" stroke-linejoin="round" stroke-width="8"/></svg>